<svg xmlns="http://www.w3.org/2000/svg" width="512" height="512" viewBox="0 0 512 512">
  <rect width="512" height="512" fill="#fff" />
  <path d="M360.33,388.7l.17.14c-1.83,2.35-1.67,1.09-1.09,6.1s2.95,4.6,2.95-.26C362.36,390.11,360.56,388.84,360.33,388.7Zm-4.25,20.12c-.71-7.22-2-20.25-5.63-16.09l.09.14c-.3,2.19,1.65,2.95,1.8,7.08s-.15,12.35-.27,13.6S356.76,416.05,356.08,408.82Zm-13.36-11.38c-5.25-15.39-9.73-18.71-9.73-18.71h-.14c-2.5.26-2.36,1.94,0,5.39s8.84,38.71,9.31,47.17.56,20.26-.41,22.64,1.51,4.27,2.48-2.38,3.71-38.71-1.54-54.11Zm-38.8,1.81c-1.12-5.22-2.35-10.94-2.71-12.65a13.09,13.09,0,0,0-2.18-4.25v.15c-.56,0-3.6.41-1.8,6.13s4.52,10.93,4.57,15.21.42,7.65.3,11.17,1.74,4,2.57,3.42.35-13.93-.78-19.18Zm-6.31,8.57c-.71-3.28-2.62-17.69-2.67-19.17a18.24,18.24,0,0,0-1.69-4.65h-.08c-1.6.56-1.74,2.77-1.6,5.39s2.16,13.11,2.51,17.66A44.73,44.73,0,0,0,297,419.14c.72,1.39,1.48.76,2.19-.21s-.91-7.83-1.63-11.11Zm-6,.53c-.67-5.89-1.23-14.73-1.39-17.3s-1.85-8.08-3.38-7.16v-.07c-1,.42-1.27,4.6-.83,7.73a136.06,136.06,0,0,1,.88,16.65c-.21,4,.92,11,.71,11.8s1.39.44,1.81-.42a19.89,19.89,0,0,0,2.17-11.23Zm-8.43-19.85c-.27-2-1.57-3.42-2.45-3.07l-.09.06c-1.95.42-2.48.82-1.86,3.39a131.33,131.33,0,0,1,2.45,18v9.22c0,2.36,0,2.94,1.44,2.94s2-5.89,2.09-10.84S283.44,390.5,283.18,388.5Zm-6.3,5.71q-.27-2.9-.79-5.76a2.31,2.31,0,0,0-2.18,1.54,21.82,21.82,0,0,0,.38,7.43c.47,2.51,1,11.8,1.23,13.57s.35,4.83,1.1,5.3,2.29,0,2.38-3.51-1.92-15.75-2.12-18.56Zm-4.57.37c-.15-2.32-.42-7.16-1.68-6.9h0c-1.29,1.27-1,3.84-1.45,8.5s.56,14.59.47,18.58.3,6.56,1.27,6.56,2-3,2-7.08-.46-17.33-.61-19.65Zm-28.23-7.38v.28c-1.44.7-1.62,1-2.18,4.38s-2.54,21.07-2.54,22.64-.87,5.61-.61,6.13a1.74,1.74,0,0,0,2.44-.24h0a1.65,1.65,0,0,0,.26-.44c.44-1.39,1.39-10.72,1.7-13.17s3-14.75,3-16.63S245.71,387.5,244.08,387.2Zm-5.32-2.7h0c-2,2.71-1.53,5.47-2.54,8.85s-5.33,25-5.9,26.79,2.52,1.18,3-.21,2.95-14.73,3.84-17.69,3.48-14.73,3.8-16.39S240.08,384,238.76,384.5Zm-5.3-2.1c-.21-.76-1.7-.71-2.32-.48h-.06c-1.76.73-1.55-.69-2.13,2.92s-3,28.22-3.28,31.71-.62,8.25,0,8.84,1.39,1.65,2.07-2.24,1.53-15.31,2.94-20.9,0-10.23,1.86-14.12,1.16-4.82.92-5.71ZM226.31,384v-.06c-1.62.15-1.1-2.35-3.28,3.13A214.39,214.39,0,0,0,217.56,409a23.39,23.39,0,0,0-1.09,6.39c0,1.59,0,2.59,1.68,2.71s1.92-2.95,2.8-7.65a47.84,47.84,0,0,1,2.13-10.27c1.36-2.95,2.4-10,3.34-11.79s2-5-.11-4.38Zm-27.71,1.13h0c-2.77,4-5.13,15.4-6.56,18.87a34.6,34.6,0,0,0-1.95,13c.3,3.9,1.95,3.48,3.89-2.62s2.19-8.84,4.16-14.74,4-11.38,4-12.21-.36-4.07-3.54-2.28Zm-27.34,8.47c.07-4.1.21-6.56.26-8.4a13.26,13.26,0,0,0-.67-4l.08-.06c-3.68,1-4.15,1.53-3.75,4.37a70.58,70.58,0,0,1,.36,12.42,21.15,21.15,0,0,0,1.59,9.84c1.09,2.94,2.19,5.33,3,2s-.88-12.05-.82-16.15ZM312.42,218.9c-12.77.33-31.07,0-41.27.29a244,244,0,0,0-28.87,1.09,143.85,143.85,0,0,1-18.87,1.95l-.06-.12c-7.78,2.19-15.53,2.94-20,4.71s-10.53,4.45-3.61,4.45,20.26-4.45,35.24-6.1a274.82,274.82,0,0,1,40.24-2.5c15.3.26,24.71.26,35.79.55s11.8.27,12.21-1.38S325.19,218.56,312.42,218.9Zm33.3-10.71c-7.73,0-25.54-1.94-34.71-2.5S292.71,204,284.65,204s-24.71.85-24.71.85h.1c-12.2.83-35.37,2.48-44.22,3.87s-18,1.68-28.3,2.94-18.87.54-18.87,3,.83,3.89,8.32,3.59,28.29-6.1,43-6.36,34.17-2.31,45.78-2.83,20-2,30.82-.57,18,2.78,27.18,3.28,24.15,0,24.15,0,5.55-3.59-2.18-3.59Zm-4.92-16.9-.12-.06.1.06c-3.62-.27-15.25-1.91-29.67-2.19s-20.77-2.94-32.2-.81a201.81,201.81,0,0,1-39.51,2.5,237.76,237.76,0,0,0-29.12.26c-8.85.83-18.33,3.34-17,5.54s7.52,2.51,20.77,1.1a234.28,234.28,0,0,1,34.41-1.95c18,0,23-2.78,36.65-2.51s18.87,1.38,32.8,2.18,19.13,2,22.19,1.39,4.74-3.3.7-5.51ZM184.48,442.5c1.3-2.67-2.07-8.84-1.27-14.73.71-5.11,1.27-11.45,1.92-16.8.74-6,4-32.2-1.26-33.5l-5,51.06.35,2a31.28,31.28,0,0,0,3.66,15.06c1,2,5,12.36,6.37,12.36s2-.43,2-1.33A80,80,0,0,0,184.48,442.5Zm139.79-18.65-30.61,2.65-4-.63-66.24,3.28v.68c-2.36,3.51-4,1.09-4,8l.56.57,6.17-5.63,98.29-3.49v-.88l1.92,1.42v-4.63c-.53-.32-1.71-1.35-2-1.35Zm-103-41.49-4-4.66c-.4,1.82-3.18,6.84-4.37,9.7-1.35,3.45-2.59,7.28-3.59,10.44a74.24,74.24,0,0,0-4.05,24h2v-2c0-3.51,2.74-13.27,4.67-14.74l-2,14.74v3.37h2.68c.68-8.22,2.18-14.49,3.39-22,1-6.43,4.63-13.78,5.9-19.46Zm91.58,13.07c-.52-2.62-1.7-6.29-2.65-9.38-1.1-3.54-3.28-6.05-3.9-8.17h-1.88l-.74,1.92c2,8.58,4.25,14.09,4.25,23.38v4.69l-.2,5.34v.67a35.55,35.55,0,0,0,.67,4.69h1.86l.77-5.9V409.3c2,.53,3.33,5.08,3.33,7.37v2.1L317,418v-2.68c-.05-5.9-3-13.95-4.21-19.9Zm-57.6-7.51.68-3.49-4.4.84c0,5.66-5.36,14.18-5.36,24.6v4h3.3l-.8-.2,5.92-25.39.8.18c0,4-3.54,27.41-1.32,27.41,1.53,0,.76-.22,2.68-.67V402.61l.88-1.53,1.57-7.46.76.18c-1.88-3.42-.81-5.12-4.76-5.89Zm-4-2.6.24-.05v-.07ZM264,388.41h-2l.17,2.07c0,5.33-2,9.54-2,12v5.39l.89,7.49L264,413.8l2-21.4v-2c0-1.53-.48-2-2-2ZM322.3,383v2.65h-1.22l-.85-3.27-.47-.54-2.59,2.7.26.71-2.95-4.86c-1.15.29-2.68.76-2.68,2h-.21c0,2.18,5.14,15.41,6.69,16h-.73l2.09,15.95c3,1.23,0,2.65,3.33,2.65s.68-7.43,1.1-12.14l2.24,8.22,2.64-.73v-2c0-6-4-11.78-4-18.07,2.47,1.81,5.34,10,5.34,14.75,3.35,5-.36,9.34,5.36,8v-2c0-7.13-8.08-29.59-13.36-30Zm-151,10.6c.07-4.1.21-6.56.26-8.4a13.26,13.26,0,0,0-.67-4l.08-.06c-3.68,1-4.15,1.53-3.75,4.37a70.58,70.58,0,0,1,.36,12.42,21.15,21.15,0,0,0,1.59,9.84c1.09,2.94,2.19,5.33,3,2s-.92-12.08-.86-16.18Zm13.18,48.92c1.3-2.67-2.07-8.84-1.27-14.73.71-5.11,1.27-11.45,1.92-16.8.74-6,4-32.2-1.26-33.5l-5,51.06.35,2a31.28,31.28,0,0,0,3.66,15.06c1,2,5,12.36,6.37,12.36s2-.43,2-1.33A80,80,0,0,0,184.48,442.5Zm14.12-57.39h0c-2.77,4-5.13,15.4-6.56,18.87a34.6,34.6,0,0,0-1.95,13c.3,3.9,1.95,3.48,3.89-2.62s2.19-8.84,4.16-14.74,4-11.38,4-12.21-.36-4.1-3.54-2.31Zm22.62-2.75-4-4.66c-.4,1.82-3.18,6.84-4.37,9.7-1.35,3.45-2.59,7.28-3.59,10.44a74.24,74.24,0,0,0-4,24h2v-2c0-3.51,2.74-13.27,4.67-14.74l-2,14.74v3.37h2.68c.68-8.22,2.18-14.49,3.39-22,1-6.43,4.63-13.78,5.9-19.46Zm5.09,1.62v-.06c-1.62.15-1.1-2.35-3.28,3.13A214.39,214.39,0,0,0,217.56,409a23.39,23.39,0,0,0-1.09,6.39c0,1.59,0,2.59,1.68,2.71s1.92-2.95,2.8-7.65a48.1,48.1,0,0,1,2.13-10.3c1.36-2.95,2.4-10,3.34-11.79s2-5-.11-4.38Zm7.15-1.55c-.21-.76-1.7-.71-2.32-.48h-.06c-1.76.73-1.55-.69-2.13,2.92s-3,28.22-3.28,31.71-.62,8.25,0,8.84,1.39,1.65,2.07-2.24,1.53-15.31,2.94-20.9,0-10.23,1.86-14.12,1.16-4.85.92-5.74Zm5.3,2.1h0c-2,2.71-1.53,5.47-2.54,8.85s-5.33,25.05-5.9,26.79,2.52,1.18,3-.21,2.95-14.73,3.84-17.69,3.48-14.73,3.8-16.39-.83-1.86-2.15-1.38Zm5.32,2.67v.28c-1.44.7-1.62,1-2.18,4.38s-2.54,21.07-2.54,22.64-.87,5.61-.61,6.13a1.74,1.74,0,0,0,2.44-.24h0a1.65,1.65,0,0,0,.26-.44c.44-1.39,1.39-10.72,1.7-13.17s3-14.75,3-16.63S245.71,387.5,244.08,387.2Zm7.2-1.89.24-.05v-.07Zm4,2.6.68-3.49-4.4.84c0,5.66-5.36,14.18-5.36,24.6v4h3.3l-.8-.2,5.92-25.39.8.18c0,4-3.54,27.41-1.32,27.41,1.53,0,.76-.22,2.68-.67V402.61l.88-1.53,1.57-7.46.76.18c-1.91-3.42-.84-5.12-4.79-5.89Zm8.78.49h-2l.17,2.07c0,5.33-2,9.54-2,12v5.39l.89,7.49,2.94-1.56,2-21.4v-2c-.07-1.52-.55-2-2.08-2Zm8.33,6.19c-.15-2.32-.42-7.16-1.68-6.9h0c-1.29,1.27-1,3.84-1.45,8.5s.56,14.59.47,18.58.3,6.56,1.27,6.56,2-3,2-7.08-.54-17.34-.69-19.66Zm4.57-.37q-.27-2.89-.79-5.76A2.31,2.31,0,0,0,274,390a21.77,21.77,0,0,0,.38,7.42c.47,2.52,1,11.8,1.23,13.58s.35,4.82,1.1,5.29,2.29,0,2.38-3.51-2-15.76-2.2-18.57Zm6.3-5.71c-.27-2-1.57-3.42-2.45-3.07l-.09.06c-2,.42-2.48.82-1.86,3.39a131.33,131.33,0,0,1,2.45,18v9.22c0,2.36,0,2.94,1.44,2.94s2-5.89,2.09-10.84-1.4-17.71-1.66-19.71Zm8.4,19.84c-.67-5.89-1.23-14.73-1.39-17.3s-1.85-8.08-3.38-7.16v-.07c-1,.42-1.27,4.6-.83,7.73a136.06,136.06,0,0,1,.88,16.65c-.21,4,.92,11,.71,11.8s1.39.44,1.81-.42a19.87,19.87,0,0,0,2.12-11.23Zm6-.53c-.71-3.28-2.62-17.69-2.67-19.17A18.24,18.24,0,0,0,293.3,384h-.08c-1.6.56-1.74,2.77-1.6,5.39s2.11,13.11,2.46,17.66A44.73,44.73,0,0,0,297,419.14c.72,1.39,1.48.76,2.19-.21s-.91-7.83-1.63-11.11Zm6.31-8.57c-1.12-5.22-2.35-10.94-2.71-12.65a13.09,13.09,0,0,0-2.18-4.25v.15c-.56,0-3.6.41-1.8,6.13s4.52,10.93,4.57,15.21.42,7.65.3,11.17,1.74,4,2.57,3.42.3-13.93-.83-19.18Zm8.91-3.83c-.52-2.62-1.7-6.29-2.65-9.38-1.1-3.54-3.28-6.05-3.9-8.17h-1.88l-.74,1.92c2,8.58,4.25,14.09,4.25,23.38v4.69l-.2,5.34v.67a35.55,35.55,0,0,0,.67,4.69h1.86l.77-5.9V409.3c2,.53,3.33,5.08,3.33,7.37v2.1L317,418v-2.68c-.08-5.9-3-13.95-4.24-19.9ZM312.5,218.9c-12.77.33-31.07,0-41.27.29a244,244,0,0,0-28.87,1.09,143.85,143.85,0,0,1-18.87,1.95l-.06-.12c-7.78,2.19-15.53,2.94-20,4.71s-10.53,4.45-3.61,4.45,20.26-4.45,35.24-6.1a274.82,274.82,0,0,1,40.24-2.5c15.3.26,24.71.26,35.79.55s11.8.27,12.21-1.38,1.89-3.28-10.88-2.94Zm11.85,204.94-30.69,2.66-4-.63-66.24,3.28v.68c-2.36,3.51-4,1.09-4,8l.56.57,6.17-5.63,98.29-3.49v-.88l1.92,1.42v-4.63c-.53-.32-1.71-1.35-2-1.35Zm-2-40.87v2.65h-1.27l-.85-3.27-.47-.54-2.59,2.7.26.71-2.95-4.86c-1.15.29-2.68.76-2.68,2h-.21c0,2.18,5.14,15.41,6.69,16h-.73l2.09,15.95c3,1.23,0,2.65,3.33,2.65s.68-7.43,1.1-12.14l2.24,8.22,2.64-.73v-2c0-6-4-11.78-4-18.07,2.47,1.81,5.34,10,5.34,14.75,3.35,5-.36,9.34,5.36,8v-2c0-7.12-8.08-29.58-13.36-30Zm18.51-191.68-.12-.06.1.06c-3.62-.27-15.25-1.91-29.67-2.19s-20.77-2.94-32.2-.81a201.81,201.81,0,0,1-39.51,2.5,237.76,237.76,0,0,0-29.12.26c-8.85.83-18.33,3.34-17,5.54s7.52,2.51,20.77,1.1a234.28,234.28,0,0,1,34.41-1.95c18,0,23-2.78,36.65-2.51s18.87,1.38,32.8,2.18,19.13,2,22.19,1.39,4.68-3.3.64-5.51Zm1.89,206.15c-5.25-15.39-9.73-18.71-9.73-18.71h-.14c-2.5.26-2.36,1.94,0,5.39s8.84,38.71,9.31,47.17.56,20.26-.41,22.64,1.51,4.27,2.48-2.38,3.68-38.71-1.57-54.11Zm3-189.25c-7.73,0-25.54-1.94-34.71-2.5S292.74,204,284.68,204s-24.71.85-24.71.85h.1c-12.2.83-35.37,2.48-44.22,3.87s-18,1.68-28.3,2.94-18.87.54-18.87,3,.83,3.89,8.32,3.59,28.29-6.1,43-6.36,34.17-2.31,45.78-2.83,20-2,30.82-.57,18,2.78,27.18,3.28,24.15,0,24.15,0,5.52-3.59-2.21-3.59Zm10.33,200.63c-.71-7.22-2-20.25-5.63-16.09l.09.14c-.3,2.19,1.65,2.95,1.8,7.08s-.15,12.35-.27,13.6S356.76,416.05,356.08,408.82Zm4.28-20.12.17.14c-1.83,2.35-1.67,1.09-1.09,6.1s2.95,4.6,2.95-.26c0-4.57-1.83-5.84-2.06-6ZM345.72,208.19c-7.73,0-25.54-1.94-34.71-2.5S292.71,204,284.65,204s-24.71.85-24.71.85h.1c-12.2.83-35.37,2.48-44.22,3.87s-18,1.68-28.3,2.94-18.87.54-18.87,3,.83,3.89,8.32,3.59,28.29-6.1,43-6.36,34.17-2.31,45.78-2.83,20-2,30.82-.57,18,2.78,27.18,3.28,24.15,0,24.15,0S353.45,208.19,345.72,208.19Zm-131.64-10.5a234.28,234.28,0,0,1,34.41-1.95c18.05,0,23.05-2.78,36.65-2.51s18.87,1.38,32.8,2.18,19.13,2,22.19,1.39,4.7-3.27.66-5.51l-.12-.06.1.06c-3.62-.27-15.25-1.91-29.67-2.19s-20.77-2.94-32.2-.81a201.81,201.81,0,0,1-39.51,2.5,237.76,237.76,0,0,0-29.12.26c-8.85.83-18.33,3.34-17,5.54S200.84,199.1,214.08,197.69Zm98.33,21.21c-12.77.33-31.07,0-41.27.29a244,244,0,0,0-28.87,1.09,143.85,143.85,0,0,1-18.87,1.95l-.06-.12c-7.78,2.19-15.53,2.94-20,4.71s-10.53,4.45-3.61,4.45,20.26-4.45,35.24-6.1a274.82,274.82,0,0,1,40.24-2.5c15.3.26,24.71.26,35.79.55s11.8.27,12.21-1.38,2-3.28-10.79-2.94Zm47.91,169.8.17.14c-1.83,2.35-1.67,1.09-1.09,6.1s3,4.6,3-.26c0-4.57-1.79-5.84-2-6Zm-9.91,4,.09.14c-.3,2.19,1.65,3,1.8,7.08s-.15,12.35-.27,13.6,4.72,2.5,4-4.73-2-20.22-5.61-16.06ZM333,378.7h-.14c-2.5.26-2.36,1.94,0,5.39s8.84,38.71,9.31,47.17.56,20.26-.41,22.64,1.51,4.27,2.48-2.38,3.74-38.71-1.51-54.11S333,378.73,333,378.73Zm-10.67,4.24v2.65h-1.2l-.85-3.27-.47-.54-2.59,2.7.26.71-2.95-4.86c-1.15.29-2.68.76-2.68,2h-.21c0,2.18,5.14,15.41,6.69,16h-.73l2.09,15.95c3,1.23,0,2.65,3.33,2.65s.68-7.43,1.1-12.14l2.24,8.22,2.64-.73v-2c0-6-4-11.78-4-18.07,2.47,1.81,5.34,10,5.34,14.75,3.35,5-.36,9.34,5.36,8v-2c0-7.09-8.08-29.55-13.36-30ZM293.66,426.5l-4-.63-66.24,3.28v.68c-2.36,3.51-4,1.09-4,8l.56.57,6.17-5.63,98.29-3.49v-.88l1.92,1.42v-4.63a10.17,10.17,0,0,0-2-1.39Zm14.22-18.67-.2,5.34v.67a35.55,35.55,0,0,0,.67,4.69h1.86l.77-5.9V409.3c2,.53,3.33,5.08,3.33,7.37v2.1L317,418v-2.68c0-5.9-2.94-13.95-4.16-19.9-.52-2.62-1.7-6.29-2.65-9.38-1.1-3.54-3.28-6.05-3.9-8.17h-1.88l-.74,1.92c2,8.58,4.25,14.09,4.25,23.38Zm-6.08-4c.06,4.27.42,7.65.3,11.17s1.74,4,2.57,3.42.35-14-.78-19.18-2.35-10.94-2.71-12.65a13.09,13.09,0,0,0-2.18-4.25v.15c-.56,0-3.6.41-1.8,6.13s4.55,10.94,4.6,15.22Zm-7.72,3.22A44.73,44.73,0,0,0,297,419.14c.72,1.39,1.48.76,2.19-.21s-.88-7.83-1.6-11.11-2.62-17.7-2.67-19.18a18.52,18.52,0,0,0-1.69-4.65h-.08c-1.6.56-1.74,2.77-1.6,5.4S293.73,402.5,294.08,407.05Zm-7.17,1.15c-.21,4,.92,11,.71,11.79s1.39.44,1.81-.42a19.86,19.86,0,0,0,2.18-11.23c-.67-5.89-1.23-14.73-1.39-17.3s-1.85-8.08-3.38-7.16v-.07c-1,.42-1.27,4.6-.83,7.73a136.32,136.32,0,0,1,.87,16.66Zm-5.65-1.33v9.22c0,2.36,0,2.94,1.44,2.94s2-5.89,2.09-10.84-1.35-17.69-1.61-19.69-1.57-3.42-2.45-3.07l-.09.06c-1.95.42-2.48.82-1.86,3.39a131.19,131.19,0,0,1,2.45,18ZM275.55,411c.24,1.77.35,4.83,1.1,5.3s2.29,0,2.38-3.51-1.91-15.77-2.12-18.58q-.27-2.89-.79-5.76a2.31,2.31,0,0,0-2.18,1.55,21.77,21.77,0,0,0,.38,7.42c.44,2.52,1,11.81,1.2,13.58Zm-5.87,3.78c-.08,4,.3,6.56,1.27,6.56s2-3,2-7.08-.41-17.36-.56-19.68-.42-7.16-1.68-6.9h0c-1.29,1.27-1,3.84-1.45,8.5s.48,14.61.39,18.6Zm-5.67-1,2-21.4v-2c0-1.53-.48-2-2-2h-2l.17,2.07c0,5.33-2,9.54-2,12v5.39l.89,7.49Zm-17.86.06h3.3l-.8-.2,5.92-25.39.8.18c0,4-3.54,27.41-1.32,27.41,1.53,0,.76-.22,2.68-.67V402.61l.88-1.53,1.57-7.46.76.18c-1.79-3.42-.76-5.12-4.71-5.9l.68-3.48-4.4.84c0,5.66-5.36,14.17-5.36,24.6Zm5.36-28.68-.24.12.24-.05Zm-12.72,35.44a1.74,1.74,0,0,0,2.44-.24h0a1.65,1.65,0,0,0,.26-.44c.44-1.39,1.39-10.72,1.7-13.17s3-14.75,3-16.63-.42-2.62-2.09-2.95v.28c-1.44.7-1.62,1-2.18,4.38s-2.54,21.07-2.54,22.64-.88,5.63-.62,6.15Zm-8.41-.46c-.57,1.74,2.52,1.18,3-.21s2.95-14.73,3.84-17.69,3.48-14.73,3.8-16.39-.91-1.86-2.18-1.36h0c-2,2.71-1.53,5.47-2.54,8.85s-5.33,25.08-5.9,26.82Zm-4.68,5.26c.62.59,1.39,1.65,2.07-2.24s1.53-15.31,2.94-20.9,0-10.23,1.86-14.12,1.16-4.86.92-5.75-1.7-.71-2.32-.48h-.06c-1.76.74-1.55-.69-2.13,2.92s-3,28.22-3.28,31.71-.62,8.29,0,8.88Zm-2.62-25.27c1.36-2.95,2.4-10,3.34-11.79s2-5-.12-4.38v-.06c-1.62.15-1.1-2.35-3.28,3.13A214.39,214.39,0,0,0,217.55,409a23.39,23.39,0,0,0-1.09,6.39c0,1.59,0,2.59,1.68,2.71s1.92-2.95,2.8-7.65A48.16,48.16,0,0,1,223.08,400.14Zm-1.87-17.79-4-4.66c-.4,1.82-3.18,6.84-4.37,9.7-1.35,3.45-2.59,7.28-3.59,10.44a74.24,74.24,0,0,0-4.05,24h2v-2c0-3.51,2.74-13.27,4.67-14.74l-2,14.74v3.37h2.68c.68-8.22,2.18-14.49,3.39-22,1-6.43,4.63-13.78,5.9-19.46Zm-22.62,2.75h0c-2.77,4-5.13,15.4-6.56,18.87a34.6,34.6,0,0,0-1.95,13c.3,3.9,1.95,3.48,3.89-2.62s2.19-8.84,4.16-14.74,4-11.38,4-12.21-.35-4.09-3.53-2.3ZM183.2,427.76c.71-5.11,1.27-11.45,1.92-16.8.74-6,3.95-32.2-1.26-33.5l-5,51.06.35,2a31.28,31.28,0,0,0,3.66,15.06c.95,2,5,12.36,6.37,12.36s2-.42,2-1.33a79.87,79.87,0,0,0-6.76-14.11c1.3-2.68-2.07-8.85-1.27-14.74Zm-11.69-42.59a13.26,13.26,0,0,0-.67-4l.08-.06c-3.68,1-4.15,1.53-3.75,4.37a70.58,70.58,0,0,1,.36,12.42,21.15,21.15,0,0,0,1.59,9.84c1.09,2.94,2.19,5.33,2.95,2s-.88-12-.82-16.13.22-6.6.27-8.44Zm313.14-257.5c-11.26,0-15.5,11.35-26.18,11.35h-16c-8.17,0-14.36-4-21.05-3.89l-3.64-10.63-8.85-24.94a85,85,0,0,0-6.46-26.36c-1.59-3.45-8.29-21-8.29-24.48-3.68-5.46-6.33-17.32-8.84-24.64a112.06,112.06,0,0,0-4.12-12.58c-4.26-8.84-1.92-3.84-8.5-8.37L350.64.5l-29.56,1h.6c-1.6-.17-1.42.26-2.69,1.1-2.5-1.57-11.4,0-15,.38-5.89.44-10-.38-14.44-.38l-4,.17L250.81,1.5l-12-.27h-3.39c-4.63,0-7.94,1.86-12.18,1.48a80.26,80.26,0,0,0-12.59.47c-9.73,1-17,2-26,2.1-12.89,0-43.93,3.92-50.13,9.34-.82-.47-.7-.67-2-.67h-2.1c-.82,2.94-3.92,6.83-5.59,12.44a63.85,63.85,0,0,0-3,15.06l-1.39,2c0,8.84-8.44,39-11.12,48.41-2.51,8.2-3.55,15.84-5.47,23.94-1.09,4.27-1.51,7.65-2.54,12.21-.85,3.8-3.38,7.16-4.3,11H82.9c-7.25,0-21.64-.24-26.54-2.06-6.56-2.36-11.12-8.64-20.13-8.64s-9.61,3.72-13.89,8.2c-2,2.09-4.19,3.8-5.89,5.6-3.28,3.71-2.19,3.56-4.37,6.93,5,9.66,11.15,11.46,23.53,13.79a210.47,210.47,0,0,0,33.84,4.28v2.12l11.44-.91H91.56a9.47,9.47,0,0,1,5,2l-2.35,15.43c-.27,2.06,0,.61.77,2.08l-.9,1.83.42,6.08-.27,6.69v4.22H92.92c0,7.13,3.33,13.68,3.33,18a10.76,10.76,0,0,1-.64,3.36c1.29,2.48,1.09,3.69,2.35,6.34,2,4.1,1.16,3.75-2.62,4.77-10.82,3-6.56,6.76-9.37,7.79l1.58,1.82a4.44,4.44,0,0,0-.64,2.69v.65A99.49,99.49,0,0,0,92,274.18c1.44,3.28,5.28,19.68,7.49,20.63v2c0,4.91,9.64,19.51,11.8,25,1.61,4.15,3,9.31,4.48,13.59,1.77,5,1.3,11.52,5.13,13.56,0,17.31,12.7,30.07,12.94,38l16.54,29.9.62-.33.59,3,3.86,9.16-5.9-6.19c.29,3.65,7.49,13.29,11.36,13.36a155.12,155.12,0,0,0,10.43,20.32c3.36,5,4.67,19,11.79,19.14.3,3.57,4.22,6.78,6.17,9.84a13.68,13.68,0,0,0,9.37,7.44c3.19,1.15,23.8,9.52,23.94,9.52a16.34,16.34,0,0,1,10.7,2.68,38.69,38.69,0,0,1,15,1.77,75.8,75.8,0,0,0,16.58,3.51l1.91,1.42c7.65,0,11.53-4.84,19.11-6.29a67.73,67.73,0,0,0,19-7.07c6.17,0,25.39-5.89,26.74-9.38,3,1.39,3.63-.23,5.91-1.41,3.73-1.89,4.88-.17,4.09-3.92,4.63-1.24,5.25-12.65,8.85-14.1l-.83-2.74,2-.56c7.16-14.94,16.4-28.6,23.58-43.21,2.95-5.75,5.89-18.73,8.32-25.15,3.6-9.67,4.92-15.3,9.58-24l-.33-2.47,6.29-18.91,1.49-.17,3.16-7.16c0-7.4,4.1-18.59,5.22-26.24a209.11,209.11,0,0,1,5.61-25.82c1.94-7.37,5.46-14.75,7.54-23.91,1-4.69,4.74-23.59,2.95-27a3.86,3.86,0,0,0,2-4v-3.36c0-1.71-2-3-3.33-3.36l.2-2-1.56-13.33V205.83l2.12-14.74v-.59c0-3.78-1.32-3.66-1.32-8h1.32v-2c0-3.94-1.23-5-1.32-8.67l5.89-.17,11.36.82v-1.1c10.88,0,20.19-.64,30.86-.94a36.82,36.82,0,0,0,13.48-1.53c2.19-.76,15-1.38,10.5-3,2.33-3.47,4.65-2.53,4.65-6.66V145.7c0-3.53-11.1-18-15.26-18ZM402,328.82l-6.81,19.81c0,4.9-13,35.39-15.54,39.07l2.19,1.1v2a58.4,58.4,0,0,1-3.37,8c0,9.58-5.89,10-5.89,18.72-4.92,0-2.95,5.22-5.25,10.14-1.09,2.47-4.06,7.14-5.89,10.23s-10.8,18.49-11,21.11c-4,.32-3.28,4.68-5.22,8.17-1.65,2.94-3.45,5.89-4.84,8.55l.35,2.94L339.08,481c-1.39-.57-11,5.46-14.21,6.56-5,1.59-10.41,4.22-15.88,6.16-5,1.8-30.11,10-34.79,10l-10.12.29-8.67-1.6v-2h-6.72c-1.48,0-1.44-.53-2.65-1.35-12,0-48.94-11.05-53.25-17-2.95-3.8-10-17.83-12.3-22.49-1.38-2.81-4.12-9.26-5.89-11.65-2.19-3.18-6.34-7.72-5.63-11.09-5.07-3.41-9.29-15.65-12.68-20.62a32.41,32.41,0,0,0-6.83-21.95c-3.81-5.89-8.55-11.79-12-17.36-5.18-8.25-15.24-31.13-15.24-43.61a26.67,26.67,0,0,0,12,4.66c16.78-.35,29.95-1.58,46.26-1.58,17.92,0,26.53-4.26,33.43-15.4a310.85,310.85,0,0,0,16.28-32.43c2.68-5.9,13.68-29.87,19.16-30.34,0,9.08-8,17.93-6.7,24-5.21,7.79-1.09,19.28-2.94,30.36a143.66,143.66,0,0,0-1.59,15.78c0,4.74-2,9.17-2,15.39-2.27.17-9.55,5.3-11.26,6.78-3.09,2.71-5,7-7.65,10.4-4.37,5.67-8.28,18-10.37,25.72-3,10.37-4.28,18.58-6.28,29.83-2.69,15.12-5.16,18,6.31,25.71l2.5-3c-12.79-6.78-6.46-16.63-4.6-31.37,1.09-8.37,8.61-26.3,8.61-34.17,3.39-5,4.21-11.79,9.37-15.36,6.43,13.42,2.19,11.35,19.41,11.35h3.21c5.72,0,8.31,8.85,12.83,11.26,6.69,3.54,12.82-.4,19.28-.56.18-2.18,5.56-9.19,7.19-10.84,4.07-4.31,4.16-5.9,12.85-5.9l1.77-.15,2.19-3.87c5.07.42,13.5,16,14,16,1.92,0,2.42-1.92,3.36-3.33a73.78,73.78,0,0,1-7.34-9.38,119.09,119.09,0,0,0-7.4-9.35c-3.42-4.86-1.09-5.89-6.67-10-3.59-2.65-5.65-5.57-9.33-8a149.35,149.35,0,0,0-2.75-20c-1.47-7.25-1-13.62-2.09-21.31-1.59-10.73-9.18-27.34-9.18-37.52l.06.06a11.73,11.73,0,0,1,6.69,8.84c3.28,1.74,9.35,19.07,10.86,23.94,2.26,7.4,7,17.95,9.84,25.63,3.41,9.49,7.37,15.15,15.3,20.12,5.23,3.28,18.91,8.56,26.9,8.56,12.26,0,27.89-1.47,36.76-5.9a47.62,47.62,0,0,0,12.59-9.52c2.76-2.77,8.65-10.26,11.34-11.8ZM255.42,256.15v-2l4.71-.29h3.37l5.89.2c2.19,3.28,4.31,18.91,7.14,25,3.28,7.13,2.29,18.59,3.8,26.92,1.36,7.51.58,24.12,2.94,29,3.28,6.56,16,10.37,16,16.71h.23c0,15.48-7,5.47-14.75,13.36-2.29,2.35-12.77,12.7-16,12.7h-6.67c-4,0-5.91-4.37-8.41-7-1.62-1.62-8.64-5.55-8.84-6.37-4.22,0-5.9,2-10.71,2h-1.47c-3.57,0-7.32-9.84-5.13-13.11,1.44-2.25,9.28-7.23,11.8-8.85,0-13.68,2.38-34.82,3.94-48.18,1.22-10.31,1.1-13.12,4.49-21.63C248.74,272.1,255.42,256.5,255.42,256.15ZM411.9,215.93l-.71,5.47h-.76V205.88h-1.35l.2,4.72L407.72,226c-.21,1.79.68,1.65,2,2v1.33c-8.84,2-36.59,1.15-45.43,2.19l-85.51,7.82h-7.36l-6.7-.66-8.07-.26-10,1.59c-2.5.41-26.86-.36-32-.74-9.37-.68-23.88-2-34.79-1.95-12.35,0-24.23-1.38-38.15-1.32-4.71,0-14.53-1.6-18.28-.94-1.91.3-13.26.94-16.47.94v-4l-4-26.1c-1.7-9.84,3.39-25.88,4-33.44h-1.24l-2.38,4.73,1.56-7.87-1.42-.49v-.08L246,177.15v-.8c2.32,0,4.51-1.56,6.13-1.89a68.71,68.71,0,0,1,8.61,0c4.87,0,10.61-.68,16.69-.68h7.33a71.24,71.24,0,0,0,17.49-1.2c5.67-.92,15.6.23,19-.39,6.93-1.26,31.47-1.09,38.33-1.09a30.18,30.18,0,0,1,8.85-3.33l9.38-.23,30.51,2.26,1.57,10.7c-.36.56-1.33,1.65-1.33,2,0,3.92,3.36,14,3.36,16.72ZM360.33,388.7l.17.14c-1.83,2.35-1.67,1.09-1.09,6.1s2.95,4.6,2.95-.26C362.36,390.11,360.56,388.84,360.33,388.7Zm-9.91,4,.09.14c-.3,2.19,1.65,3,1.8,7.08s-.15,12.35-.27,13.6,4.72,2.5,4-4.73-2-20.22-5.62-16.06Zm-4.7-184.54c-7.73,0-25.54-1.94-34.71-2.5S292.71,204,284.65,204s-24.71.85-24.71.85h.1c-12.2.83-35.37,2.48-44.22,3.87s-18,1.68-28.3,2.94-18.87.54-18.87,3,.83,3.89,8.32,3.59,28.29-6.1,43-6.36,34.17-2.31,45.78-2.83,20-2,30.82-.57,18,2.78,27.18,3.28,24.15,0,24.15,0,5.55-3.56-2.18-3.56ZM333,378.73h-.14c-2.5.26-2.36,1.94,0,5.39s8.84,38.71,9.31,47.17.56,20.26-.41,22.64,1.51,4.27,2.48-2.38,3.74-38.71-1.51-54.11S333,378.73,333,378.73Zm-118.88-181a234.28,234.28,0,0,1,34.41-1.95c18.05,0,23.05-2.78,36.65-2.51s18.87,1.38,32.8,2.18,19.13,2,22.19,1.39,4.7-3.27.66-5.51l-.12-.06.1.06c-3.62-.27-15.25-1.91-29.67-2.19s-20.77-2.94-32.2-.81a201.81,201.81,0,0,1-39.51,2.5,237.76,237.76,0,0,0-29.12.26c-8.85.83-18.33,3.34-17,5.54S200.84,199.1,214.08,197.69ZM322.28,383v2.65h-1.2l-.85-3.27-.47-.54-2.59,2.7.26.71-2.95-4.86c-1.15.29-2.68.76-2.68,2h-.21c0,2.18,5.14,15.41,6.69,16h-.73l2.09,15.95c3,1.23,0,2.65,3.33,2.65s.68-7.43,1.1-12.14l2.24,8.22,2.64-.73v-2c0-6-4-11.78-4-18.07,2.47,1.81,5.34,10,5.34,14.75,3.35,5-.36,9.34,5.36,8v-2c0-7.12-8.08-29.58-13.36-30ZM293.66,426.5l-4-.63-66.24,3.28v.68c-2.36,3.51-4,1.09-4,8l.56.57,6.17-5.63,98.29-3.49v-.88l1.92,1.42v-4.63a10.17,10.17,0,0,0-2-1.39Zm18.76-207.6c-12.77.33-31.07,0-41.27.29a244,244,0,0,0-28.87,1.09,143.85,143.85,0,0,1-18.87,1.95l-.06-.12c-7.78,2.19-15.53,2.94-20,4.71s-10.53,4.45-3.61,4.45,20.26-4.45,35.24-6.1a274.82,274.82,0,0,1,40.24-2.5c15.3.26,24.71.26,35.79.55s11.8.27,12.21-1.38S325.19,218.56,312.42,218.9Zm-4.54,189-.2,5.34v.67a35.55,35.55,0,0,0,.67,4.69h1.86l.77-5.9v-3.4c2,.53,3.33,5.08,3.33,7.37v2.1L317,418v-2.68c0-5.9-2.94-13.95-4.16-19.9-.52-2.62-1.7-6.29-2.65-9.38-1.1-3.54-3.28-6.05-3.9-8.17h-1.88l-.74,1.92c2,8.58,4.25,14.09,4.25,23.38Zm-6.08-4c.06,4.27.42,7.65.3,11.17s1.74,4,2.57,3.42.35-14-.78-19.18-2.35-10.94-2.71-12.65a13.09,13.09,0,0,0-2.18-4.25v.15c-.56,0-3.6.41-1.8,6.13s4.55,10.87,4.6,15.15Zm-7.72,3.15A44.73,44.73,0,0,0,297,419.14c.72,1.39,1.48.76,2.19-.21s-.88-7.83-1.6-11.11-2.62-17.7-2.67-19.18a18.52,18.52,0,0,0-1.69-4.65h-.08c-1.6.56-1.74,2.77-1.6,5.4S293.73,402.5,294.08,407.05Zm-7.17,1.15c-.21,4,.92,11,.71,11.79s1.39.44,1.81-.42a19.86,19.86,0,0,0,2.18-11.23c-.67-5.89-1.23-14.73-1.39-17.3s-1.85-8.08-3.38-7.16v-.07c-1,.42-1.27,4.6-.83,7.73a136.32,136.32,0,0,1,.87,16.66Zm-5.65-1.33v9.22c0,2.36,0,2.94,1.44,2.94s2-5.89,2.09-10.84-1.35-17.69-1.61-19.69-1.57-3.42-2.45-3.07l-.09.06c-1.95.42-2.48.82-1.86,3.39a131.19,131.19,0,0,1,2.45,18ZM275.55,411c.24,1.77.35,4.83,1.1,5.3s2.29,0,2.38-3.51-1.91-15.77-2.12-18.58q-.27-2.89-.79-5.76a2.31,2.31,0,0,0-2.18,1.55,21.77,21.77,0,0,0,.38,7.42c.44,2.52,1,11.81,1.2,13.58Zm-5.87,3.78c-.08,4,.3,6.56,1.27,6.56s2-3,2-7.08-.41-17.36-.56-19.68-.42-7.16-1.68-6.9h0c-1.29,1.27-1,3.84-1.45,8.5s.48,14.61.39,18.6Zm-5.67-1,2-21.4v-2c0-1.53-.48-2-2-2h-2l.17,2.07c0,5.33-2,9.54-2,12v5.39l.89,7.49Zm-17.86.06h3.3l-.8-.2,5.92-25.39.8.18c0,4-3.54,27.41-1.32,27.41,1.53,0,.76-.22,2.68-.67V402.61l.88-1.53,1.57-7.46.76.18c-1.79-3.42-.76-5.12-4.71-5.9l.68-3.48-4.4.84c0,5.66-5.36,14.17-5.36,24.6Zm5.12-28.56.24-.05v-.07Zm-12.48,35.32a1.74,1.74,0,0,0,2.44-.24h0a1.65,1.65,0,0,0,.26-.44c.44-1.39,1.39-10.72,1.7-13.17s3-14.75,3-16.63-.42-2.62-2.09-2.95v.28c-1.44.7-1.62,1-2.18,4.38s-2.54,21.07-2.54,22.64-.88,5.63-.62,6.15Zm-8.41-.46c-.57,1.74,2.52,1.18,3-.21s2.95-14.73,3.84-17.69,3.48-14.73,3.8-16.39-.91-1.86-2.18-1.36h0c-2,2.71-1.53,5.47-2.54,8.85s-5.33,25.08-5.9,26.82Zm-4.68,5.26c.62.59,1.39,1.65,2.07-2.24s1.53-15.31,2.94-20.9,0-10.23,1.86-14.12,1.16-4.86.92-5.75-1.7-.71-2.32-.48h-.06c-1.76.74-1.55-.69-2.13,2.92s-3,28.22-3.28,31.71-.62,8.29,0,8.88Zm-2.62-25.27c1.36-2.95,2.4-10,3.34-11.79s2-5-.12-4.38v-.06c-1.62.15-1.1-2.35-3.28,3.13A214.39,214.39,0,0,0,217.55,409a23.39,23.39,0,0,0-1.09,6.39c0,1.59,0,2.59,1.68,2.71s1.92-2.95,2.8-7.65A48.16,48.16,0,0,1,223.08,400.14Zm-1.87-17.79-4-4.66c-.4,1.82-3.18,6.84-4.37,9.7-1.35,3.45-2.59,7.28-3.59,10.44a74.24,74.24,0,0,0-4.05,24h2v-2c0-3.51,2.74-13.27,4.67-14.74l-2,14.74v3.37h2.68c.68-8.22,2.18-14.49,3.39-22,1-6.43,4.63-13.78,5.9-19.46Zm-22.62,2.75h0c-2.77,4-5.13,15.4-6.56,18.87a34.6,34.6,0,0,0-1.95,13c.3,3.9,1.95,3.48,3.89-2.62s2.19-8.84,4.16-14.74,4-11.38,4-12.21-.35-4.09-3.53-2.3ZM183.2,427.76c.71-5.11,1.27-11.45,1.92-16.8.74-6,3.95-32.2-1.26-33.5l-5,51.06.35,2a31.28,31.28,0,0,0,3.66,15.06c.95,2,5,12.36,6.37,12.36s2-.42,2-1.33a79.87,79.87,0,0,0-6.76-14.11c1.3-2.68-2.07-8.85-1.27-14.74Zm-11.69-42.59a13.26,13.26,0,0,0-.67-4l.08-.06c-3.68,1-4.15,1.53-3.75,4.37a70.58,70.58,0,0,1,.36,12.42,21.15,21.15,0,0,0,1.59,9.84c1.09,2.94,2.19,5.33,2.95,2s-.88-12-.82-16.13.22-6.6.27-8.44Zm-.26,8.4c.07-4.1.21-6.56.26-8.4a13.26,13.26,0,0,0-.67-4l.08-.06c-3.68,1-4.15,1.53-3.75,4.37a70.58,70.58,0,0,1,.36,12.42,21.15,21.15,0,0,0,1.59,9.84c1.09,2.94,2.19,5.33,2.95,2s-.87-12.07-.81-16.17Zm13.23,48.93c1.3-2.67-2.07-8.84-1.27-14.73.71-5.11,1.27-11.45,1.92-16.8.74-6,4-32.2-1.26-33.5l-5,51.06.35,2a31.28,31.28,0,0,0,3.66,15.06c1,2,5,12.36,6.37,12.36s2-.43,2-1.33A80,80,0,0,0,184.48,442.5Zm14.12-57.39h0c-2.77,4-5.13,15.4-6.56,18.87a34.6,34.6,0,0,0-1.95,13c.3,3.9,1.95,3.48,3.89-2.62s2.19-8.84,4.16-14.74,4-11.38,4-12.21-.36-4.1-3.54-2.31Zm22.62-2.75-4-4.66c-.4,1.82-3.18,6.84-4.37,9.7-1.35,3.45-2.59,7.28-3.59,10.44a74.24,74.24,0,0,0-4,24h2v-2c0-3.51,2.74-13.27,4.67-14.74l-2,14.74v3.37h2.68c.68-8.22,2.18-14.49,3.39-22,1-6.43,4.63-13.78,5.9-19.46Zm5.09,1.62v-.06c-1.62.15-1.1-2.35-3.28,3.13A214.39,214.39,0,0,0,217.56,409a23.39,23.39,0,0,0-1.09,6.39c0,1.59,0,2.59,1.68,2.71s1.92-2.95,2.8-7.65a48.1,48.1,0,0,1,2.13-10.3c1.36-2.95,2.4-10,3.34-11.79s2-5-.11-4.38Zm7.15-1.55c-.21-.76-1.7-.71-2.32-.48h-.06c-1.76.73-1.55-.69-2.13,2.92s-3,28.22-3.28,31.71-.62,8.25,0,8.84,1.39,1.65,2.07-2.24,1.53-15.31,2.94-20.9,0-10.23,1.86-14.12,1.16-4.85.92-5.74Zm5.3,2.1h0c-2,2.71-1.53,5.47-2.54,8.85s-5.33,25.05-5.9,26.79,2.52,1.18,3-.21,2.95-14.73,3.84-17.69,3.48-14.73,3.8-16.39-.83-1.86-2.15-1.38Zm5.32,2.67v.28c-1.44.7-1.62,1-2.18,4.38s-2.54,21.07-2.54,22.64-.87,5.61-.61,6.13a1.74,1.74,0,0,0,2.44-.24h0a1.65,1.65,0,0,0,.26-.44c.44-1.39,1.39-10.72,1.7-13.17s3-14.75,3-16.63S245.71,387.5,244.08,387.2Zm7.2-1.89.24-.05v-.07Zm4,2.6.68-3.49-4.4.84c0,5.66-5.36,14.18-5.36,24.6v4h3.3l-.8-.2,5.92-25.39.8.18c0,4-3.54,27.41-1.32,27.41,1.53,0,.76-.22,2.68-.67V402.61l.88-1.53,1.57-7.46.76.18c-1.91-3.42-.84-5.12-4.79-5.89Zm8.78.49h-2l.17,2.07c0,5.33-2,9.54-2,12v5.39l.89,7.49,2.94-1.56,2-21.4v-2c-.07-1.52-.55-2-2.08-2Zm8.33,6.19c-.15-2.32-.42-7.16-1.68-6.9h0c-1.29,1.27-1,3.84-1.45,8.5s.56,14.59.47,18.58.3,6.56,1.27,6.56,2-3,2-7.08-.54-17.34-.69-19.66Zm4.57-.37q-.27-2.89-.79-5.76A2.31,2.31,0,0,0,274,390a21.77,21.77,0,0,0,.38,7.42c.47,2.52,1,11.8,1.23,13.58s.35,4.82,1.1,5.29,2.29,0,2.38-3.51-2-15.76-2.2-18.57Zm6.3-5.71c-.27-2-1.57-3.42-2.45-3.07l-.09.06c-2,.42-2.48.82-1.86,3.39a131.33,131.33,0,0,1,2.45,18v9.22c0,2.36,0,2.94,1.44,2.94s2-5.89,2.09-10.84-1.4-17.71-1.66-19.71Zm8.4,19.84c-.67-5.89-1.23-14.73-1.39-17.3s-1.85-8.08-3.38-7.16v-.07c-1,.42-1.27,4.6-.83,7.73a136.06,136.06,0,0,1,.88,16.65c-.21,4,.92,11,.71,11.8s1.39.44,1.81-.42a19.87,19.87,0,0,0,2.12-11.23Zm6-.53c-.71-3.28-2.62-17.69-2.67-19.17A18.24,18.24,0,0,0,293.3,384h-.08c-1.6.56-1.74,2.77-1.6,5.39s2.11,13.11,2.46,17.66A44.73,44.73,0,0,0,297,419.14c.72,1.39,1.48.76,2.19-.21s-.91-7.83-1.63-11.11Zm6.31-8.57c-1.12-5.22-2.35-10.94-2.71-12.65a13.09,13.09,0,0,0-2.18-4.25v.15c-.56,0-3.6.41-1.8,6.13s4.52,10.93,4.57,15.21.42,7.65.3,11.17,1.74,4,2.57,3.42.3-13.93-.83-19.18Zm8.91-3.83c-.52-2.62-1.7-6.29-2.65-9.38-1.1-3.54-3.28-6.05-3.9-8.17h-1.88l-.74,1.92c2,8.58,4.25,14.09,4.25,23.38v4.69l-.2,5.34v.67a35.55,35.55,0,0,0,.67,4.69h1.86l.77-5.9V409.3c2,.53,3.33,5.08,3.33,7.37v2.1L317,418v-2.68c-.08-5.9-3-13.95-4.24-19.9Zm11.47,28.42-30.69,2.66-4-.63-66.24,3.28v.68c-2.36,3.51-4,1.09-4,8l.56.57,6.17-5.63,98.29-3.49v-.88l1.92,1.42v-4.63c-.53-.32-1.71-1.35-2-1.35Zm-2-40.87v2.65h-1.27l-.85-3.27-.47-.54-2.59,2.7.26.71-2.95-4.86c-1.15.29-2.68.76-2.68,2h-.21c0,2.18,5.14,15.41,6.69,16h-.73l2.09,15.95c3,1.23,0,2.65,3.33,2.65s.68-7.43,1.1-12.14l2.24,8.22,2.64-.73v-2c0-6-4-11.78-4-18.07,2.47,1.81,5.34,10,5.34,14.75,3.35,5-.36,9.34,5.36,8v-2c0-7.12-8.08-29.58-13.36-30Zm20.4,14.47c-5.25-15.39-9.73-18.71-9.73-18.71h-.14c-2.5.26-2.36,1.94,0,5.39s8.84,38.71,9.31,47.17.56,20.26-.41,22.64,1.51,4.27,2.48-2.38,3.68-38.71-1.57-54.11Zm13.33,11.38c-.71-7.22-2-20.25-5.63-16.09l.09.14c-.3,2.19,1.65,2.95,1.8,7.08s-.15,12.35-.27,13.6S356.76,416.05,356.08,408.82Zm4.28-20.12.17.14c-1.83,2.35-1.67,1.09-1.09,6.1s2.95,4.6,2.95-.26c0-4.57-1.83-5.84-2.06-6ZM312.42,218.9c-12.77.33-31.07,0-41.27.29a244,244,0,0,0-28.87,1.09,143.85,143.85,0,0,1-18.87,1.95l-.06-.12c-7.78,2.19-15.53,2.94-20,4.71s-10.53,4.45-3.61,4.45,20.26-4.45,35.24-6.1a274.82,274.82,0,0,1,40.24-2.5c15.3.26,24.71.26,35.79.55s11.8.27,12.21-1.38S325.19,218.56,312.42,218.9Zm28.38-27.61-.12-.06.1.06c-3.62-.27-15.25-1.91-29.67-2.19s-20.77-2.94-32.2-.81a201.81,201.81,0,0,1-39.51,2.5,237.76,237.76,0,0,0-29.12.26c-8.85.83-18.33,3.34-17,5.54s7.52,2.51,20.77,1.1a234.28,234.28,0,0,1,34.41-1.95c18,0,23-2.78,36.65-2.51s18.87,1.38,32.8,2.18,19.13,2,22.19,1.39S344.84,193.5,340.8,191.29Zm4.92,16.9c-7.73,0-25.54-1.94-34.71-2.5S292.71,204,284.65,204s-24.71.85-24.71.85h.1c-12.2.83-35.37,2.48-44.22,3.87s-18,1.68-28.3,2.94-18.87.54-18.87,3,.83,3.89,8.32,3.59,28.29-6.1,43-6.36,34.17-2.31,45.78-2.83,20-2,30.82-.57,18,2.78,27.18,3.28,24.15,0,24.15,0,5.55-3.59-2.18-3.59ZM360.33,388.7l.17.14c-1.83,2.35-1.67,1.09-1.09,6.1s2.95,4.6,2.95-.26C362.36,390.11,360.56,388.84,360.33,388.7Zm-4.25,20.12c-.71-7.22-2-20.25-5.63-16.09l.09.14c-.3,2.19,1.65,2.95,1.8,7.08s-.15,12.35-.27,13.6S356.76,416.05,356.08,408.82ZM345.72,208.19c-7.73,0-25.54-1.94-34.71-2.5S292.71,204,284.65,204s-24.71.85-24.71.85h.1c-12.2.83-35.37,2.48-44.22,3.87s-18,1.68-28.3,2.94-18.87.54-18.87,3,.83,3.89,8.32,3.59,28.29-6.1,43-6.36,34.17-2.31,45.78-2.83,20-2,30.82-.57,18,2.78,27.18,3.28,24.15,0,24.15,0S353.45,208.19,345.72,208.19Zm-3,189.25c-5.25-15.39-9.73-18.71-9.73-18.71h-.14c-2.5.26-2.36,1.94,0,5.39s8.84,38.71,9.31,47.17.56,20.26-.41,22.64,1.51,4.27,2.48-2.38,3.71-38.71-1.54-54.11Zm-1.89-206.15-.12-.06.1.06c-3.62-.27-15.25-1.91-29.67-2.19s-20.77-2.94-32.2-.81a201.81,201.81,0,0,1-39.51,2.5,237.76,237.76,0,0,0-29.12.26c-8.85.83-18.33,3.34-17,5.54s7.52,2.51,20.77,1.1a234.28,234.28,0,0,1,34.41-1.95c18.05,0,23.05-2.78,36.65-2.51s18.87,1.38,32.8,2.18,19.13,2,22.19,1.39,4.71-3.3.67-5.51ZM322.29,383v2.65h-1.21l-.85-3.27-.47-.54-2.59,2.7.26.71-2.95-4.86c-1.15.29-2.68.76-2.68,2h-.21c0,2.18,5.14,15.41,6.69,16h-.73l2.09,15.95c3,1.23,0,2.65,3.33,2.65s.68-7.43,1.1-12.14l2.24,8.22,2.64-.73v-2c0-6-4-11.78-4-18.07,2.47,1.81,5.34,10,5.34,14.75,3.35,5-.36,9.34,5.36,8v-2C335.68,405.87,327.57,383.41,322.29,383Zm2,40.87-30.63,2.66-4-.63-66.24,3.28v.68c-2.36,3.51-4,1.09-4,8l.56.57,6.17-5.63,98.29-3.49v-.88l1.92,1.42v-4.63c-.53-.32-1.71-1.35-2-1.35ZM312.42,218.9c-12.77.33-31.07,0-41.27.29a244,244,0,0,0-28.87,1.09,143.85,143.85,0,0,1-18.87,1.95l-.06-.12c-7.78,2.19-15.53,2.94-20,4.71s-10.53,4.45-3.61,4.45,20.26-4.45,35.24-6.1a274.82,274.82,0,0,1,40.24-2.5c15.3.26,24.71.26,35.79.55s11.8.27,12.21-1.38S325.19,218.56,312.42,218.9Zm.38,176.52c-.52-2.62-1.7-6.3-2.65-9.38-1.1-3.55-3.28-6.05-3.9-8.18h-1.88l-.74,1.93c2,8.57,4.25,14.09,4.25,23.38v4.69l-.2,5.34v.67a35.55,35.55,0,0,0,.67,4.69h1.86l.77-5.9V409.3c2,.53,3.33,5.08,3.33,7.37v2.1L317,418v-2.68c0-5.9-2.94-13.95-4.16-19.9Zm-8.91,3.82c-1.12-5.22-2.35-10.94-2.71-12.64a13.09,13.09,0,0,0-2.18-4.25v.14c-.56,0-3.6.41-1.8,6.13s4.52,10.93,4.57,15.21.42,7.65.3,11.18,1.74,4,2.57,3.42.38-13.93-.75-19.18Zm-6.31,8.58c-.71-3.28-2.62-17.7-2.67-19.18a18.52,18.52,0,0,0-1.69-4.65h-.08c-1.6.56-1.74,2.77-1.6,5.4s2.19,13.11,2.54,17.66A44.73,44.73,0,0,0,297,419.14c.72,1.39,1.48.76,2.19-.21s-.91-7.83-1.63-11.11Zm-6,.53c-.67-5.9-1.23-14.74-1.39-17.3s-1.85-8.08-3.38-7.16v-.07c-1,.42-1.27,4.6-.83,7.73a136.06,136.06,0,0,1,.88,16.65c-.21,4,.92,11,.71,11.79s1.39.44,1.81-.42a19.86,19.86,0,0,0,2.2-11.22Zm-8.4-19.85c-.27-2-1.57-3.42-2.45-3.07l-.09.06c-1.95.42-2.48.82-1.86,3.39a131.33,131.33,0,0,1,2.45,18v9.22c0,2.36,0,2.94,1.44,2.94s2-5.89,2.09-10.84S283.44,390.5,283.18,388.5Zm-6.3,5.71q-.27-2.9-.79-5.76a2.31,2.31,0,0,0-2.18,1.54,21.82,21.82,0,0,0,.38,7.43c.47,2.51,1,11.8,1.23,13.57s.35,4.83,1.1,5.3,2.29,0,2.38-3.51-1.92-15.75-2.12-18.56Zm-4.57.37c-.15-2.32-.42-7.16-1.68-6.9h0c-1.29,1.27-1,3.84-1.45,8.5s.56,14.59.47,18.58.3,6.56,1.27,6.56,2-3,2-7.08-.46-17.33-.61-19.65ZM264,388.39h-2l.17,2.07c0,5.33-2,9.54-2,12v5.39l.89,7.49,2.94-1.56,2-21.4v-2c0-1.51-.47-2-2-2Zm-8.78-.49.68-3.49-4.4.84c0,5.66-5.36,14.18-5.36,24.6v4h3.3l-.8-.2,5.92-25.39.8.18c0,4-3.54,27.41-1.32,27.41,1.53,0,.76-.22,2.68-.67V402.61l.88-1.53,1.57-7.46.76.18c-1.83-3.42-.76-5.12-4.71-5.89Zm-4-2.6.24-.05v-.07Zm-7.12,1.9v.28c-1.44.7-1.62,1-2.18,4.38s-2.54,21.07-2.54,22.64-.87,5.61-.61,6.13a1.74,1.74,0,0,0,2.44-.24h0a1.65,1.65,0,0,0,.26-.44c.44-1.39,1.39-10.72,1.7-13.17s3-14.75,3-16.63S245.71,387.5,244.08,387.2Zm-5.32-2.7h0c-2,2.71-1.53,5.47-2.54,8.85s-5.33,25-5.9,26.79,2.52,1.18,3-.21,2.95-14.73,3.84-17.69,3.48-14.73,3.8-16.39S240.08,384,238.76,384.5Zm-5.3-2.1c-.21-.76-1.7-.71-2.32-.48h-.06c-1.76.73-1.55-.69-2.13,2.92s-3,28.22-3.28,31.71-.62,8.25,0,8.84,1.39,1.65,2.07-2.24,1.53-15.31,2.94-20.9,0-10.23,1.86-14.12,1.16-4.82.92-5.71ZM226.31,384v-.06c-1.62.15-1.1-2.35-3.28,3.13A214.39,214.39,0,0,0,217.56,409a23.39,23.39,0,0,0-1.09,6.39c0,1.59,0,2.59,1.68,2.71s1.92-2.95,2.8-7.65a47.84,47.84,0,0,1,2.13-10.27c1.36-2.95,2.4-10,3.34-11.79s2-5-.11-4.38Zm-5.09-1.62-4-4.66c-.4,1.82-3.18,6.84-4.37,9.7-1.35,3.45-2.59,7.28-3.59,10.44a74.24,74.24,0,0,0-4,24h2v-2c0-3.51,2.74-13.27,4.67-14.74l-2,14.74v3.37h2.68c.68-8.22,2.18-14.49,3.39-22,1-6.43,4.63-13.78,5.9-19.46Zm-22.62,2.75h0c-2.77,4-5.13,15.4-6.56,18.87a34.6,34.6,0,0,0-1.95,13c.3,3.9,1.95,3.48,3.89-2.62s2.19-8.84,4.16-14.74,4-11.38,4-12.21-.36-4.07-3.54-2.28ZM184.48,442.5c1.3-2.67-2.07-8.84-1.27-14.73.71-5.11,1.27-11.45,1.92-16.8.74-6,4-32.2-1.26-33.5l-5,51.06.35,2a31.28,31.28,0,0,0,3.66,15.06c1,2,5,12.36,6.37,12.36s2-.43,2-1.33A80,80,0,0,0,184.48,442.5Zm-13.22-48.92c.07-4.1.21-6.56.26-8.4a13.26,13.26,0,0,0-.67-4l.08-.06c-3.68,1-4.15,1.53-3.75,4.37a70.58,70.58,0,0,1,.36,12.42,21.15,21.15,0,0,0,1.59,9.84c1.09,2.94,2.19,5.33,3,2s-.88-12.08-.82-16.18ZM345.72,208.19c-7.73,0-25.54-1.94-34.71-2.5S292.71,204,284.65,204s-24.71.85-24.71.85h.1c-12.2.83-35.37,2.48-44.22,3.87s-18,1.68-28.3,2.94-18.87.54-18.87,3,.83,3.89,8.32,3.59,28.29-6.1,43-6.36,34.17-2.31,45.78-2.83,20-2,30.82-.57,18,2.78,27.18,3.28,24.15,0,24.15,0S353.45,208.19,345.72,208.19Zm-4.92-16.9-.12-.06.1.06c-3.62-.27-15.25-1.91-29.67-2.19s-20.77-2.94-32.2-.81a201.81,201.81,0,0,1-39.51,2.5,237.76,237.76,0,0,0-29.12.26c-8.85.83-18.33,3.34-17,5.54s7.52,2.51,20.77,1.1a234.28,234.28,0,0,1,34.41-1.95c18,0,23-2.78,36.65-2.51s18.87,1.38,32.8,2.18,19.13,2,22.19,1.39,4.74-3.3.7-5.51ZM312.42,218.9c-12.77.33-31.07,0-41.27.29a244,244,0,0,0-28.87,1.09,143.85,143.85,0,0,1-18.87,1.95l-.06-.12c-7.78,2.19-15.53,2.94-20,4.71s-10.53,4.45-3.61,4.45,20.26-4.45,35.24-6.1a274.82,274.82,0,0,1,40.24-2.5c15.3.26,24.71.26,35.79.55s11.8.27,12.21-1.38S325.19,218.56,312.42,218.9Zm47.91,169.8.17.14c-1.83,2.35-1.67,1.09-1.09,6.1s2.95,4.6,2.95-.26C362.36,390.11,360.56,388.84,360.33,388.7Zm-4.25,20.12c-.71-7.22-2-20.25-5.63-16.09l.09.14c-.3,2.19,1.65,2.95,1.8,7.08s-.15,12.35-.27,13.6S356.76,416.05,356.08,408.82Zm-13.36-11.38c-5.25-15.39-9.73-18.71-9.73-18.71h-.14c-2.5.26-2.36,1.94,0,5.39s8.84,38.71,9.31,47.17.56,20.26-.41,22.64,1.51,4.27,2.48-2.38,3.71-38.71-1.54-54.11ZM322.32,383v2.65h-1.24l-.85-3.27-.47-.54-2.59,2.7.26.71-2.95-4.86c-1.15.29-2.68.76-2.68,2h-.21c0,2.18,5.14,15.41,6.69,16h-.73l2.09,15.95c3,1.23,0,2.65,3.33,2.65s.68-7.43,1.1-12.14l2.24,8.22,2.64-.73v-2c0-6-4-11.78-4-18.07,2.47,1.81,5.34,10,5.34,14.75,3.35,5-.36,9.34,5.36,8v-2c0-7.12-8.08-29.58-13.36-30Zm2,40.87-30.66,2.66-4-.63-66.24,3.28v.68c-2.36,3.51-4,1.09-4,8l.56.57,6.17-5.63,98.29-3.49v-.88l1.92,1.42v-4.63c-.53-.32-1.71-1.35-2-1.35Zm-11.47-28.42c-.52-2.62-1.7-6.3-2.65-9.38-1.1-3.55-3.28-6.05-3.9-8.18h-1.88l-.74,1.93c2,8.57,4.25,14.09,4.25,23.38v4.69l-.2,5.34v.67a35.55,35.55,0,0,0,.67,4.69h1.86l.77-5.9V409.3c2,.53,3.33,5.08,3.33,7.37v2.1L317,418v-2.68c-.05-5.9-3-13.95-4.21-19.9Zm-8.91,3.82c-1.12-5.22-2.35-10.94-2.71-12.64a13.09,13.09,0,0,0-2.18-4.25v.14c-.56,0-3.6.41-1.8,6.13s4.52,10.93,4.57,15.21.42,7.65.3,11.18,1.74,4,2.57,3.42.33-13.93-.8-19.18Zm-6.31,8.58c-.71-3.28-2.62-17.7-2.67-19.18a18.52,18.52,0,0,0-1.69-4.65h-.08c-1.6.56-1.74,2.77-1.6,5.4s2.14,13.11,2.49,17.66A44.73,44.73,0,0,0,297,419.14c.72,1.39,1.48.76,2.19-.21s-.91-7.83-1.63-11.11Zm-6,.53c-.67-5.9-1.23-14.74-1.39-17.3s-1.85-8.08-3.38-7.16v-.07c-1,.42-1.27,4.6-.83,7.73a136.06,136.06,0,0,1,.88,16.65c-.21,4,.92,11,.71,11.79s1.39.44,1.81-.42a19.84,19.84,0,0,0,2.15-11.22Zm-8.45-19.85c-.27-2-1.57-3.42-2.45-3.07l-.09.06c-1.95.42-2.48.82-1.86,3.39a131.33,131.33,0,0,1,2.45,18v9.22c0,2.36,0,2.94,1.44,2.94s2-5.89,2.09-10.84S283.44,390.5,283.18,388.5Zm-6.3,5.71q-.27-2.9-.79-5.76a2.31,2.31,0,0,0-2.18,1.54,21.82,21.82,0,0,0,.38,7.43c.47,2.51,1,11.8,1.23,13.57s.35,4.83,1.1,5.3,2.29,0,2.38-3.51-1.92-15.75-2.12-18.56Zm-4.57.37c-.15-2.32-.42-7.16-1.68-6.9h0c-1.29,1.27-1,3.84-1.45,8.5s.56,14.59.47,18.58.3,6.56,1.27,6.56,2-3,2-7.08-.46-17.33-.61-19.65ZM264,388.39h-2l.17,2.07c0,5.33-2,9.54-2,12v5.39l.89,7.49,2.94-1.56,2-21.4v-2c0-1.51-.47-2-2-2Zm-8.78-.49.68-3.49-4.4.84c0,5.66-5.36,14.18-5.36,24.6v4h3.3l-.8-.2,5.92-25.39.8.18c0,4-3.54,27.41-1.32,27.41,1.53,0,.76-.22,2.68-.67V402.61l.88-1.53,1.57-7.46.76.18c-1.83-3.42-.76-5.12-4.71-5.89Zm-4-2.6.24-.05v-.07Zm-7.12,1.9v.28c-1.44.7-1.62,1-2.18,4.38s-2.54,21.07-2.54,22.64-.87,5.61-.61,6.13a1.74,1.74,0,0,0,2.44-.24h0a1.65,1.65,0,0,0,.26-.44c.44-1.39,1.39-10.72,1.7-13.17s3-14.75,3-16.63S245.71,387.5,244.08,387.2Zm-5.32-2.7h0c-2,2.71-1.53,5.47-2.54,8.85s-5.33,25-5.9,26.79,2.52,1.18,3-.21,2.95-14.73,3.84-17.69,3.48-14.73,3.8-16.39S240.08,384,238.76,384.5Zm-5.3-2.1c-.21-.76-1.7-.71-2.32-.48h-.06c-1.76.73-1.55-.69-2.13,2.92s-3,28.22-3.28,31.71-.62,8.25,0,8.84,1.39,1.65,2.07-2.24,1.53-15.31,2.94-20.9,0-10.23,1.86-14.12,1.16-4.82.92-5.71ZM226.31,384v-.06c-1.62.15-1.1-2.35-3.28,3.13A214.39,214.39,0,0,0,217.56,409a23.39,23.39,0,0,0-1.09,6.39c0,1.59,0,2.59,1.68,2.71s1.92-2.95,2.8-7.65a47.84,47.84,0,0,1,2.13-10.27c1.36-2.95,2.4-10,3.34-11.79s2-5-.11-4.38Zm-5.09-1.62-4-4.66c-.4,1.82-3.18,6.84-4.37,9.7-1.35,3.45-2.59,7.28-3.59,10.44a74.24,74.24,0,0,0-4,24h2v-2c0-3.51,2.74-13.27,4.67-14.74l-2,14.74v3.37h2.68c.68-8.22,2.18-14.49,3.39-22,1-6.43,4.63-13.78,5.9-19.46Zm-22.62,2.75h0c-2.77,4-5.13,15.4-6.56,18.87a34.6,34.6,0,0,0-1.95,13c.3,3.9,1.95,3.48,3.89-2.62s2.19-8.84,4.16-14.74,4-11.38,4-12.21-.36-4.07-3.54-2.28ZM184.48,442.5c1.3-2.67-2.07-8.84-1.27-14.73.71-5.11,1.27-11.45,1.92-16.8.74-6,4-32.2-1.26-33.5l-5,51.06.35,2a31.28,31.28,0,0,0,3.66,15.06c1,2,5,12.36,6.37,12.36s2-.43,2-1.33A80,80,0,0,0,184.48,442.5Zm-13.22-48.92c.07-4.1.21-6.56.26-8.4a13.26,13.26,0,0,0-.67-4l.08-.06c-3.68,1-4.15,1.53-3.75,4.37a70.58,70.58,0,0,1,.36,12.42,21.15,21.15,0,0,0,1.59,9.84c1.09,2.94,2.19,5.33,3,2s-.88-12.08-.82-16.18Z"
        stroke="#000" stroke-linejoin="round" stroke-width="0.25" /></svg>