<svg xmlns="http://www.w3.org/2000/svg" width="512" height="512" viewBox="0 0 512 512">
  <rect width="512" height="512" fill="#f6f6f6" />
  <path d="M360.31,388.7l.17.14c-1.83,2.35-1.67,1.09-1.09,6.1s2.95,4.6,2.95-.26C362.34,390.11,360.54,388.84,360.31,388.7ZM356,408.82c-.71-7.22-2-20.25-5.63-16.09l.09.14c-.3,2.19,1.65,2.95,1.8,7.08s-.15,12.35-.27,13.6S356.74,416.05,356,408.82Zm-13.36-11.38c-5.25-15.39-9.73-18.71-9.73-18.71h-.14c-2.5.26-2.36,1.94,0,5.39s8.84,38.71,9.31,47.17.56,20.26-.41,22.64,1.51,4.27,2.48-2.38S347.92,412.84,342.67,397.44Zm-38.8,1.81c-1.12-5.22-2.35-10.94-2.71-12.65a13.29,13.29,0,0,0-2.18-4.25l0,.15c-.56,0-3.6.41-1.8,6.13s4.52,10.93,4.57,15.21.42,7.65.3,11.17,1.74,4,2.57,3.42S305,404.46,303.87,399.25Zm-6.31,8.57c-.71-3.28-2.62-17.69-2.67-19.17A18.24,18.24,0,0,0,293.2,384l-.08,0c-1.6.56-1.74,2.77-1.6,5.39s2.19,13.12,2.51,17.69A44.55,44.55,0,0,0,297,419.14c.72,1.39,1.48.77,2.19-.2S298.28,411.1,297.56,407.82Zm-6,.53c-.67-5.89-1.23-14.73-1.39-17.3s-1.85-8.08-3.38-7.16l0-.07c-1,.42-1.27,4.6-.83,7.73a136.27,136.27,0,0,1,.88,16.65c-.21,4,.92,11,.71,11.8s1.39.44,1.81-.42A19.88,19.88,0,0,0,291.56,408.35Zm-8.4-19.84c-.27-2-1.57-3.42-2.45-3.07l-.09.06c-1.95.42-2.48.82-1.86,3.39a131.25,131.25,0,0,1,2.45,18v9.22c0,2.36,0,2.94,1.44,2.94s2-5.89,2.09-10.84S283.42,390.5,283.16,388.51Zm-6.3,5.71q-.27-2.89-.79-5.76a2.31,2.31,0,0,0-2.18,1.55,21.84,21.84,0,0,0,.38,7.43c.47,2.51,1,11.8,1.23,13.57s.35,4.83,1.1,5.3,2.29,0,2.38-3.51S277.07,397,276.86,394.22Zm-4.57.37c-.15-2.32-.42-7.16-1.68-6.9v0c-1.29,1.27-1,3.84-1.45,8.5s.56,14.59.47,18.58.3,6.56,1.27,6.56,2-3,2-7.08S272.44,396.91,272.29,394.59ZM244,387.2l0,.28c-1.44.7-1.62,1-2.18,4.38s-2.54,21.07-2.54,22.64-.87,5.61-.61,6.13a1.73,1.73,0,0,0,2.44-.24h0a1.5,1.5,0,0,0,.26-.44c.44-1.39,1.39-10.72,1.7-13.17s3-14.75,3-16.63S245.69,387.53,244,387.2Zm-5.28-2.68h0c-2,2.71-1.53,5.47-2.54,8.85s-5.33,25.05-5.9,26.79,2.52,1.18,2.95-.21,2.95-14.73,3.84-17.69,3.48-14.73,3.8-16.39S240,384,238.74,384.52Zm-5.3-2.1c-.21-.76-1.7-.71-2.32-.48l-.06,0c-1.76.74-1.55-.69-2.13,2.92s-3,28.22-3.28,31.71-.62,8.25,0,8.84,1.39,1.65,2.07-2.24,1.53-15.31,2.94-20.9,0-10.23,1.86-14.12S233.68,383.31,233.44,382.42ZM226.29,384l0-.06c-1.62.15-1.1-2.35-3.28,3.13A214.39,214.39,0,0,0,217.56,409a23.52,23.52,0,0,0-1.09,6.39c0,1.59,0,2.59,1.68,2.71s1.92-2.95,2.8-7.65a48.12,48.12,0,0,1,2.12-10.29c1.36-2.95,2.4-10,3.34-11.79S228.44,383.36,226.29,384Zm-27.71,1.13,0,0c-2.77,4-5.13,15.4-6.56,18.87a34.61,34.61,0,0,0-1.95,13c.3,3.9,1.95,3.48,3.89-2.62s2.19-8.84,4.16-14.74,4-11.38,4-12.21S201.76,383.31,198.58,385.1Zm-27.34,8.47c.07-4.1.21-6.56.26-8.4a13.16,13.16,0,0,0-.67-4l.08-.06c-3.68,1-4.15,1.53-3.75,4.37a70.61,70.61,0,0,1,.36,12.42,21.13,21.13,0,0,0,1.59,9.84c1.09,2.94,2.19,5.33,2.95,2S171.18,397.67,171.24,393.57ZM312.4,218.9c-12.77.33-31.07,0-41.27.29a246.19,246.19,0,0,0-28.87,1.09,142.33,142.33,0,0,1-18.87,1.95l-.06-.12c-7.78,2.19-15.53,2.94-20,4.71s-10.53,4.45-3.61,4.45,20.26-4.45,35.24-6.1a276.21,276.21,0,0,1,40.24-2.5c15.3.26,24.71.26,35.79.55s11.8.27,12.21-1.38S325.17,218.56,312.4,218.9Zm33.3-10.71c-7.73,0-25.54-1.94-34.71-2.5S292.69,204,284.63,204s-24.71.85-24.71.85l.1,0c-12.2.83-35.37,2.48-44.22,3.87s-18.05,1.68-28.3,2.94-18.87.54-18.87,3,.83,3.89,8.32,3.59,28.29-6.1,43-6.36,34.17-2.31,45.78-2.83,20-2,30.82-.57,18,2.78,27.18,3.28,24.15,0,24.15,0S353.43,208.19,345.7,208.19Zm-4.92-16.9-.12-.06.1.06c-3.62-.27-15.25-1.91-29.67-2.19s-20.77-2.94-32.2-.81a201,201,0,0,1-39.51,2.5,239.77,239.77,0,0,0-29.12.26c-8.85.83-18.33,3.34-17,5.54s7.52,2.51,20.77,1.1a235.66,235.66,0,0,1,34.41-1.95c18,0,23-2.78,36.65-2.51s18.87,1.38,32.8,2.18,19.13,2,22.19,1.39S344.82,193.53,340.78,191.29ZM184.46,442.49c1.3-2.67-2.07-8.84-1.27-14.73.71-5.11,1.27-11.45,1.92-16.8.74-6,3.95-32.2-1.26-33.5l-5,51.06.35,2a31.23,31.23,0,0,0,3.66,15.06c.95,2,5,12.36,6.37,12.36s2-.42,2-1.33A80.18,80.18,0,0,0,184.46,442.49Zm139.79-18.65-30.61,2.69-4-.63-66.24,3.28v.68c-2.36,3.51-4.05,1.09-4.05,8l.56.57,6.17-5.63,98.29-3.49v-.88l1.92,1.42v-4.63C325.76,424.87,324.58,423.84,324.25,423.84Zm-103-41.49-4-4.66c-.4,1.82-3.18,6.84-4.37,9.7-1.35,3.45-2.59,7.28-3.59,10.44a74.43,74.43,0,0,0-4.05,24v0h2v-2c0-3.51,2.74-13.27,4.67-14.74l-2,14.74v3.37h2.68c.68-8.22,2.18-14.49,3.39-22,1-6.43,4.63-13.78,5.9-19.46Zm91.58,13.07c-.52-2.62-1.7-6.29-2.65-9.38-1.1-3.54-3.28-6.05-3.9-8.17h-1.88l-.74,1.92c2,8.58,4.25,14.09,4.25,23.38v4.69l-.2,5.34v.67a35.08,35.08,0,0,0,.67,4.69h1.86l.77-5.9V409.3c2,.53,3.33,5.08,3.33,7.37v2.1l2.65-.77v-2.68C316.94,409.42,314,401.37,312.78,395.42Zm-57.6-7.51.68-3.49-4.4.84c0,5.66-5.36,14.18-5.36,24.6v4h3.3l-.8-.2,5.92-25.39.8.18c0,4-3.54,27.41-1.32,27.41,1.53,0,.76-.22,2.68-.67V402.61l.88-1.53,1.57-7.45.76.17C258.1,390.38,259.13,388.68,255.18,387.91Zm-4-2.6.24-.05v-.07ZM264,388.4h-2l.17,2.07c0,5.33-2,9.54-2,12v5.39l.89,7.49,2.94-1.56,2-21.4v-2C266,388.87,265.49,388.4,264,388.4ZM322.27,383v2.65h-1.18l-.85-3.27-.47-.54-2.59,2.7.26.71-2.95-4.86c-1.15.29-2.68.76-2.68,2h-.21c0,2.18,5.14,15.41,6.69,16h-.73l2.09,15.95c3,1.23,0,2.65,3.33,2.65s.68-7.43,1.1-12.14l2.24,8.22,2.64-.73v-2c0-6-4-11.78-4-18.07,2.47,1.81,5.34,10,5.34,14.75,3.35,5-.36,9.34,5.36,8v-2C335.66,405.87,327.55,383.41,322.27,383Zm-151,10.6c.07-4.1.21-6.56.26-8.4a13.16,13.16,0,0,0-.67-4l.08-.06c-3.68,1-4.15,1.53-3.75,4.37a70.61,70.61,0,0,1,.36,12.42,21.13,21.13,0,0,0,1.59,9.84c1.09,2.94,2.19,5.33,2.95,2S171.18,397.67,171.24,393.57Zm13.22,48.92c1.3-2.67-2.07-8.84-1.27-14.73.71-5.11,1.27-11.45,1.92-16.8.74-6,3.95-32.2-1.26-33.5l-5,51.06.35,2a31.23,31.23,0,0,0,3.66,15.06c.95,2,5,12.36,6.37,12.36s2-.42,2-1.33A80.18,80.18,0,0,0,184.46,442.49Zm14.12-57.39,0,0c-2.77,4-5.13,15.4-6.56,18.87a34.61,34.61,0,0,0-1.95,13c.3,3.9,1.95,3.48,3.89-2.62s2.19-8.84,4.16-14.74,4-11.38,4-12.21S201.76,383.31,198.58,385.1Zm22.62-2.75-4-4.66c-.4,1.82-3.18,6.84-4.37,9.7-1.35,3.45-2.59,7.28-3.59,10.44a74.43,74.43,0,0,0-4.05,24v0h2v-2c0-3.51,2.74-13.27,4.67-14.74l-2,14.74v3.37h2.68c.68-8.22,2.18-14.49,3.39-22,1-6.43,4.63-13.78,5.9-19.46Zm5.09,1.62,0-.06c-1.62.15-1.1-2.35-3.28,3.13A214.39,214.39,0,0,0,217.56,409a23.52,23.52,0,0,0-1.09,6.39c0,1.59,0,2.59,1.68,2.71s1.92-2.95,2.8-7.65a48.12,48.12,0,0,1,2.12-10.29c1.36-2.95,2.4-10,3.34-11.79S228.44,383.36,226.29,384Zm7.15-1.55c-.21-.76-1.7-.71-2.32-.48l-.06,0c-1.76.74-1.55-.69-2.13,2.92s-3,28.22-3.28,31.71-.62,8.25,0,8.84,1.39,1.65,2.07-2.24,1.53-15.31,2.94-20.9,0-10.23,1.86-14.12S233.68,383.31,233.44,382.42Zm5.3,2.1h0c-2,2.71-1.53,5.47-2.54,8.85s-5.33,25.05-5.9,26.79,2.52,1.18,2.95-.21,2.95-14.73,3.84-17.69,3.48-14.73,3.8-16.39S240,384,238.74,384.52ZM244,387.2l0,.28c-1.44.7-1.62,1-2.18,4.38s-2.54,21.07-2.54,22.64-.87,5.61-.61,6.13a1.73,1.73,0,0,0,2.44-.24h0a1.5,1.5,0,0,0,.26-.44c.44-1.39,1.39-10.72,1.7-13.17s3-14.75,3-16.63S245.69,387.53,244,387.2Zm7.2-1.89.24-.05v-.07Zm4,2.6.68-3.49-4.4.84c0,5.66-5.36,14.18-5.36,24.6v4h3.3l-.8-.2,5.92-25.39.8.18c0,4-3.54,27.41-1.32,27.41,1.53,0,.76-.22,2.68-.67V402.61l.88-1.53,1.57-7.45.76.17C258.1,390.38,259.13,388.68,255.18,387.91Zm8.78.49h-2l.17,2.07c0,5.33-2,9.54-2,12v5.39l.89,7.49,2.94-1.56,2-21.4v-2C266,388.87,265.49,388.4,264,388.4Zm8.33,6.19c-.15-2.32-.42-7.16-1.68-6.9v0c-1.29,1.27-1,3.84-1.45,8.5s.56,14.59.47,18.58.3,6.56,1.27,6.56,2-3,2-7.08S272.44,396.91,272.29,394.59Zm4.57-.37q-.27-2.89-.79-5.76a2.31,2.31,0,0,0-2.18,1.55,21.84,21.84,0,0,0,.38,7.43c.47,2.51,1,11.8,1.23,13.57s.35,4.83,1.1,5.3,2.29,0,2.38-3.51S277.07,397,276.86,394.22Zm6.3-5.71c-.27-2-1.57-3.42-2.45-3.07l-.09.06c-1.95.42-2.48.82-1.86,3.39a131.25,131.25,0,0,1,2.45,18v9.22c0,2.36,0,2.94,1.44,2.94s2-5.89,2.09-10.84S283.42,390.5,283.16,388.51Zm8.4,19.84c-.67-5.89-1.23-14.73-1.39-17.3s-1.85-8.08-3.38-7.16l0-.07c-1,.42-1.27,4.6-.83,7.73a136.27,136.27,0,0,1,.88,16.65c-.21,4,.92,11,.71,11.8s1.39.44,1.81-.42A19.88,19.88,0,0,0,291.56,408.35Zm6-.53c-.71-3.28-2.62-17.69-2.67-19.17A18.24,18.24,0,0,0,293.2,384l-.08,0c-1.6.56-1.74,2.77-1.6,5.39s2.19,13.12,2.51,17.69A44.55,44.55,0,0,0,297,419.14c.72,1.39,1.48.77,2.19-.2S298.28,411.1,297.56,407.82Zm6.31-8.57c-1.12-5.22-2.35-10.94-2.71-12.65a13.29,13.29,0,0,0-2.18-4.25l0,.15c-.56,0-3.6.41-1.8,6.13s4.52,10.93,4.57,15.21.42,7.65.3,11.17,1.74,4,2.57,3.42S305,404.46,303.87,399.25Zm8.91-3.83c-.52-2.62-1.7-6.29-2.65-9.38-1.1-3.54-3.28-6.05-3.9-8.17h-1.88l-.74,1.92c2,8.58,4.25,14.09,4.25,23.38v4.69l-.2,5.34v.67a35.08,35.08,0,0,0,.67,4.69h1.86l.77-5.9V409.3c2,.53,3.33,5.08,3.33,7.37v2.1l2.65-.77v-2.68C316.94,409.42,314,401.37,312.78,395.42ZM312.4,218.9c-12.77.33-31.07,0-41.27.29a246.19,246.19,0,0,0-28.87,1.09,142.33,142.33,0,0,1-18.87,1.95l-.06-.12c-7.78,2.19-15.53,2.94-20,4.71s-10.53,4.45-3.61,4.45,20.26-4.45,35.24-6.1a276.21,276.21,0,0,1,40.24-2.5c15.3.26,24.71.26,35.79.55s11.8.27,12.21-1.38S325.17,218.56,312.4,218.9Zm11.85,204.94-30.61,2.69-4-.63-66.24,3.28v.68c-2.36,3.51-4.05,1.09-4.05,8l.56.57,6.17-5.63,98.29-3.49v-.88l1.92,1.42v-4.63C325.76,424.87,324.58,423.84,324.25,423.84Zm-2-40.87v2.65h-1.18l-.85-3.27-.47-.54-2.59,2.7.26.71-2.95-4.86c-1.15.29-2.68.76-2.68,2h-.21c0,2.18,5.14,15.41,6.69,16h-.73l2.09,15.95c3,1.23,0,2.65,3.33,2.65s.68-7.43,1.1-12.14l2.24,8.22,2.64-.73v-2c0-6-4-11.78-4-18.07,2.47,1.81,5.34,10,5.34,14.75,3.35,5-.36,9.34,5.36,8v-2C335.66,405.87,327.55,383.41,322.27,383Zm18.51-191.68-.12-.06.1.06c-3.62-.27-15.25-1.91-29.67-2.19s-20.77-2.94-32.2-.81a201,201,0,0,1-39.51,2.5,239.77,239.77,0,0,0-29.12.26c-8.85.83-18.33,3.34-17,5.54s7.52,2.51,20.77,1.1a235.66,235.66,0,0,1,34.41-1.95c18,0,23-2.78,36.65-2.51s18.87,1.38,32.8,2.18,19.13,2,22.19,1.39S344.82,193.53,340.78,191.29Zm1.89,206.15c-5.25-15.39-9.73-18.71-9.73-18.71h-.14c-2.5.26-2.36,1.94,0,5.39s8.84,38.71,9.31,47.17.56,20.26-.41,22.64,1.51,4.27,2.48-2.38S347.92,412.84,342.67,397.44Zm3-189.25c-7.73,0-25.54-1.94-34.71-2.5S292.69,204,284.63,204s-24.71.85-24.71.85l.1,0c-12.2.83-35.37,2.48-44.22,3.87s-18.05,1.68-28.3,2.94-18.87.54-18.87,3,.83,3.89,8.32,3.59,28.29-6.1,43-6.36,34.17-2.31,45.78-2.83,20-2,30.82-.57,18,2.78,27.18,3.28,24.15,0,24.15,0S353.43,208.19,345.7,208.19ZM356,408.82c-.71-7.22-2-20.25-5.63-16.09l.09.14c-.3,2.19,1.65,2.95,1.8,7.08s-.15,12.35-.27,13.6S356.74,416.05,356,408.82Zm4.28-20.12.17.14c-1.83,2.35-1.67,1.09-1.09,6.1s2.95,4.6,2.95-.26C362.34,390.11,360.54,388.84,360.31,388.7ZM345.7,208.19c-7.73,0-25.54-1.94-34.71-2.5S292.69,204,284.63,204s-24.71.85-24.71.85l.1,0c-12.2.83-35.37,2.48-44.22,3.87s-18.05,1.68-28.3,2.94-18.87.54-18.87,3,.83,3.89,8.32,3.59,28.29-6.1,43-6.36,34.17-2.31,45.78-2.83,20-2,30.82-.57,18,2.78,27.18,3.28,24.15,0,24.15,0S353.43,208.19,345.7,208.19Zm-131.63-10.5a235.66,235.66,0,0,1,34.41-1.95c18,0,23-2.78,36.65-2.51s18.87,1.38,32.8,2.18,19.13,2,22.19,1.39,4.7-3.27.66-5.51l-.12-.06.1.06c-3.62-.27-15.25-1.91-29.67-2.19s-20.77-2.94-32.2-.81a201,201,0,0,1-39.51,2.5,239.77,239.77,0,0,0-29.12.26c-8.85.83-18.33,3.34-17,5.54S200.82,199.1,214.07,197.69ZM312.4,218.9c-12.77.33-31.07,0-41.27.29a246.19,246.19,0,0,0-28.87,1.09,142.33,142.33,0,0,1-18.87,1.95l-.06-.12c-7.78,2.19-15.53,2.94-20,4.71s-10.53,4.45-3.61,4.45,20.26-4.45,35.24-6.1a276.21,276.21,0,0,1,40.24-2.5c15.3.26,24.71.26,35.79.55s11.8.27,12.21-1.38S325.17,218.56,312.4,218.9Zm47.91,169.8.17.14c-1.83,2.35-1.67,1.09-1.09,6.1s2.95,4.6,2.95-.26C362.34,390.11,360.54,388.84,360.31,388.7Zm-9.91,4,.09.14c-.3,2.19,1.65,2.95,1.8,7.08s-.15,12.35-.27,13.6,4.72,2.5,4-4.73S354,388.57,350.4,392.73Zm-17.46-14h-.14c-2.5.26-2.36,1.94,0,5.39s8.84,38.71,9.31,47.17.56,20.26-.41,22.64,1.51,4.27,2.48-2.38,3.74-38.71-1.51-54.11S332.94,378.73,332.94,378.73ZM322.27,383v2.65h-1.18l-.85-3.27-.47-.54-2.59,2.7.26.71-2.95-4.86c-1.15.29-2.68.76-2.68,2h-.21c0,2.18,5.14,15.41,6.69,16h-.73l2.09,15.95c3,1.23,0,2.65,3.33,2.65s.68-7.43,1.1-12.14l2.24,8.22,2.64-.73v-2c0-6-4-11.78-4-18.07,2.47,1.81,5.34,10,5.34,14.75,3.35,5-.36,9.34,5.36,8v-2C335.66,405.87,327.55,383.41,322.27,383Zm-28.63,43.56-4-.63-66.24,3.28v.68c-2.36,3.51-4.05,1.09-4.05,8l.56.57,6.17-5.63,98.29-3.49v-.88l1.92,1.42v-4.63c-.5-.36-1.68-1.39-2-1.39Zm14.22-18.67-.2,5.34v.67a35.08,35.08,0,0,0,.67,4.69h1.86l.77-5.9V409.3c2,.53,3.33,5.08,3.33,7.37v2.1l2.65-.77v-2.68c0-5.9-2.94-13.95-4.16-19.9-.52-2.62-1.7-6.29-2.65-9.38-1.1-3.54-3.28-6.05-3.9-8.17h-1.88l-.74,1.92c2,8.58,4.25,14.09,4.25,23.38Zm-6.08-4c.06,4.27.42,7.65.3,11.17s1.74,4,2.57,3.42.35-14-.78-19.18-2.35-10.94-2.71-12.65a13.29,13.29,0,0,0-2.18-4.25l0,.15c-.56,0-3.6.41-1.8,6.13S301.73,399.56,301.78,403.84ZM294,407.05A44.55,44.55,0,0,0,297,419.14c.72,1.39,1.48.77,2.19-.2s-.88-7.84-1.6-11.12-2.62-17.69-2.67-19.17A18.24,18.24,0,0,0,293.2,384l-.08,0c-1.6.56-1.74,2.77-1.6,5.39S293.71,402.48,294,407.05Zm-7.17,1.15c-.21,4,.92,11,.71,11.8s1.39.44,1.81-.42a19.88,19.88,0,0,0,2.18-11.23c-.67-5.89-1.23-14.73-1.39-17.3s-1.85-8.08-3.38-7.16l0-.07c-1,.42-1.27,4.6-.83,7.73A136.27,136.27,0,0,1,286.86,408.2Zm-5.65-1.33v9.22c0,2.36,0,2.94,1.44,2.94s2-5.89,2.09-10.84-1.32-17.69-1.58-19.68-1.57-3.42-2.45-3.07l-.09.06c-1.95.42-2.48.82-1.86,3.39A131.25,131.25,0,0,1,281.21,406.87ZM275.5,411c.24,1.77.35,4.83,1.1,5.3s2.29,0,2.38-3.51-1.91-15.77-2.12-18.58q-.27-2.89-.79-5.76a2.31,2.31,0,0,0-2.18,1.55,21.84,21.84,0,0,0,.38,7.43C274.74,400,275.26,409.24,275.5,411Zm-5.87,3.78c-.08,4,.3,6.56,1.27,6.56s2-3,2-7.08-.41-17.36-.56-19.68-.42-7.16-1.68-6.9v0c-1.29,1.27-1,3.84-1.45,8.5S269.72,410.8,269.63,414.79Zm-5.67-1,2-21.4v-2c0-1.53-.48-2-2-2h-2l.17,2.07c0,5.33-2,9.54-2,12v5.39l.89,7.49Zm-17.86.06h3.3l-.8-.2,5.92-25.39.8.18c0,4-3.54,27.41-1.32,27.41,1.53,0,.76-.22,2.68-.67V402.61l.88-1.53,1.57-7.45.76.17c-1.79-3.42-.76-5.12-4.71-5.89l.68-3.49-4.4.84c0,5.66-5.36,14.18-5.36,24.6Zm5.36-28.68-.24.12.24-.05Zm-12.72,35.44a1.73,1.73,0,0,0,2.44-.24h0a1.5,1.5,0,0,0,.26-.44c.44-1.39,1.39-10.72,1.7-13.17s3-14.75,3-16.63-.42-2.62-2.09-2.95l0,.28c-1.44.7-1.62,1-2.18,4.38s-2.54,21.07-2.54,22.64S238.48,420.11,238.74,420.63Zm-8.41-.46c-.57,1.74,2.52,1.18,2.95-.21s2.95-14.73,3.84-17.69,3.48-14.73,3.8-16.39-.91-1.86-2.18-1.36h0c-2,2.71-1.53,5.47-2.54,8.85S230.9,418.43,230.33,420.17Zm-4.68,5.26c.62.59,1.39,1.65,2.07-2.24s1.53-15.31,2.94-20.9,0-10.23,1.86-14.12,1.16-4.86.92-5.75-1.7-.71-2.32-.48l-.06,0c-1.76.74-1.55-.69-2.13,2.92s-3,28.22-3.28,31.71S225,424.84,225.65,425.43Zm-2.58-25.29c1.36-2.95,2.4-10,3.34-11.79s2-5-.12-4.38l0-.06c-1.62.15-1.1-2.35-3.28,3.13A214.39,214.39,0,0,0,217.56,409a23.52,23.52,0,0,0-1.09,6.39c0,1.59,0,2.59,1.68,2.71s1.92-2.95,2.8-7.65A48.12,48.12,0,0,1,223.07,400.14Zm-1.87-17.79-4-4.66c-.4,1.82-3.18,6.84-4.37,9.7-1.35,3.45-2.59,7.28-3.59,10.44a74.43,74.43,0,0,0-4.05,24v0h2v-2c0-3.51,2.74-13.27,4.67-14.74l-2,14.74v3.37h2.68c.68-8.22,2.18-14.49,3.39-22,1-6.43,4.63-13.78,5.9-19.46Zm-22.62,2.75,0,0c-2.77,4-5.13,15.4-6.56,18.87a34.61,34.61,0,0,0-1.95,13c.3,3.9,1.95,3.48,3.89-2.62s2.19-8.84,4.16-14.74,4-11.38,4-12.21S201.76,383.31,198.58,385.1Zm-15.39,42.66c.71-5.11,1.27-11.45,1.92-16.8.74-6,3.95-32.2-1.26-33.5l-5,51.06.35,2a31.23,31.23,0,0,0,3.66,15.06c.95,2,5,12.36,6.37,12.36s2-.42,2-1.33a80.18,80.18,0,0,0-6.81-14.16C185.76,439.82,182.39,433.65,183.19,427.76ZM171.5,385.17a13.16,13.16,0,0,0-.67-4l.08-.06c-3.68,1-4.15,1.53-3.75,4.37a70.61,70.61,0,0,1,.36,12.42,21.13,21.13,0,0,0,1.59,9.84c1.09,2.94,2.19,5.33,2.95,2s-.88-12-.82-16.13S171.45,387,171.5,385.17Zm313.14-257.5c-11.26,0-15.5,11.35-26.18,11.35h-16c-8.17,0-14.36-4-21.05-3.89l-3.61-10.62-8.85-24.94a85.12,85.12,0,0,0-6.46-26.36c-1.59-3.45-8.29-21-8.29-24.48-3.68-5.46-6.33-17.32-8.84-24.64a113.09,113.09,0,0,0-4.12-12.56c-4.26-8.84-1.92-3.84-8.5-8.37L350.62.5l-29.52,1,.56-.05c-1.6-.17-1.42.26-2.69,1.1-2.5-1.57-11.4,0-15,.38-5.89.44-10-.38-14.44-.38l-4,.17L250.79,1.49l-12-.27h-3.39c-4.63,0-7.94,1.86-12.18,1.48a81.48,81.48,0,0,0-12.59.47c-9.73,1-17,2-26,2.1-12.89,0-43.93,3.92-50.13,9.34-.82-.47-.7-.67-2-.67h-2.1c-.82,2.94-3.92,6.83-5.59,12.44a63.89,63.89,0,0,0-3,15.06l-1.39,2c0,8.84-8.44,38.95-11.12,48.41-2.51,8.2-3.55,15.84-5.47,23.94-1.09,4.27-1.51,7.65-2.54,12.21-.85,3.8-3.38,7.16-4.3,11H82.88c-7.25,0-21.64-.24-26.54-2.06-6.56-2.36-11.12-8.64-20.13-8.64s-9.61,3.72-13.89,8.2c-2,2.09-4.19,3.8-5.89,5.6-3.28,3.71-2.19,3.56-4.37,6.93,5,9.66,11.15,11.41,23.53,13.79a209.49,209.49,0,0,0,33.84,4.28v2.12l11.44-.91H91.54a9.53,9.53,0,0,1,5,2l-2.35,15.43c-.27,2.06,0,.61.77,2.08l-.92,1.86.42,6.08-.27,6.69v4.22H92.9c0,7.13,3.33,13.68,3.33,18a10.7,10.7,0,0,1-.64,3.36c1.29,2.48,1.09,3.69,2.35,6.34,2,4.1,1.16,3.75-2.62,4.77-10.82,3-6.56,6.76-9.37,7.79l1.58,1.82a4.47,4.47,0,0,0-.64,2.69v.65A99.24,99.24,0,0,0,92,274.22c1.44,3.28,5.28,19.68,7.49,20.63v2c0,4.91,9.64,19.51,11.8,25,1.61,4.15,2.95,9.31,4.48,13.59,1.77,5,1.3,11.52,5.13,13.56,0,17.31,12.7,30.07,12.94,38l16.54,29.9.62-.33.59,3,3.86,9.16-5.9-6.19c.29,3.65,7.49,13.29,11.36,13.36a155.24,155.24,0,0,0,10.43,20.33c3.36,5,4.67,19,11.79,19.14.3,3.57,4.22,6.78,6.17,9.84a13.68,13.68,0,0,0,9.37,7.44c3.19,1.15,23.8,9.52,23.94,9.52a16.29,16.29,0,0,1,10.7,2.68,38.6,38.6,0,0,1,15,1.77,76.39,76.39,0,0,0,16.58,3.51l1.91,1.42c7.65,0,11.53-4.84,19.11-6.29a68.1,68.1,0,0,0,19-7.07c6.17,0,25.39-5.89,26.74-9.38,3,1.39,3.63-.23,5.91-1.41,3.73-1.89,4.88-.17,4.09-3.92,4.63-1.24,5.25-12.65,8.85-14.1l-.83-2.74,2-.56c7.16-14.94,16.4-28.6,23.58-43.21,2.95-5.75,5.89-18.73,8.32-25.15,3.6-9.67,4.92-15.3,9.58-24l-.33-2.47,6.29-18.91,1.49-.17,3.16-7.16c0-7.4,4.1-18.59,5.22-26.24a209.11,209.11,0,0,1,5.61-25.82c1.94-7.37,5.46-14.75,7.54-23.91,1-4.69,4.74-23.59,2.95-27a3.88,3.88,0,0,0,2-4v-3.36c0-1.71-2-3-3.33-3.36l.2-2-1.56-13.33V205.83l2.12-14.74v-.64c0-3.78-1.32-3.66-1.32-8h1.32v-2c0-3.94-1.23-5-1.32-8.67l5.89-.17,11.36.82v-1.1c10.88,0,20.19-.64,30.86-.94a36.6,36.6,0,0,0,13.48-1.53c2.19-.76,15-1.38,10.5-3,2.33-3.47,4.65-2.53,4.65-6.66V145.7C499.94,142.17,488.8,127.67,484.64,127.67ZM402,328.82l-6.81,19.81c0,4.9-13,35.39-15.54,39.07l2.19,1.1v2a58.64,58.64,0,0,1-3.37,8c0,9.58-5.89,10-5.89,18.72-4.92,0-2.95,5.22-5.25,10.14-1.09,2.47-4.06,7.14-5.89,10.23s-10.8,18.49-11,21.11c-4,.32-3.28,4.68-5.22,8.17-1.65,2.94-3.45,5.89-4.84,8.55l.35,2.94L339,481c-1.39-.57-11,5.46-14.21,6.56-5,1.59-10.41,4.22-15.88,6.16-5,1.8-30.11,10-34.79,10L264.1,504l-8.67-1.6v-2h-6.72c-1.48,0-1.44-.53-2.65-1.35-12,0-48.94-11.05-53.25-17-2.95-3.8-10-17.83-12.3-22.49-1.38-2.81-4.12-9.26-5.89-11.65-2.19-3.18-6.34-7.72-5.63-11.09-5.07-3.41-9.29-15.65-12.68-20.62a32.48,32.48,0,0,0-6.83-21.95c-3.81-5.89-8.55-11.79-12-17.36-5.18-8.25-15.24-31.13-15.24-43.61a26.47,26.47,0,0,0,12,4.66c16.78-.35,29.95-1.58,46.26-1.58,17.92,0,26.53-4.26,33.43-15.4a308.9,308.9,0,0,0,16.28-32.43c2.68-5.9,13.68-29.87,19.16-30.34,0,9.08-8,17.93-6.7,24-5.21,7.79-1.09,19.28-2.94,30.36a143.9,143.9,0,0,0-1.59,15.78c0,4.74-2,9.17-2,15.39-2.27.17-9.55,5.3-11.26,6.78-3.09,2.71-5,7-7.65,10.4-4.37,5.67-8.28,18-10.37,25.72-3,10.37-4.28,18.58-6.28,29.83-2.69,15.12-5.16,18,6.31,25.71l2.5-2.95c-12.79-6.78-6.46-16.63-4.6-31.37,1.09-8.37,8.61-26.3,8.61-34.17,3.39-5,4.21-11.79,9.37-15.36,6.43,13.42,2.19,11.35,19.41,11.35h3.21c5.72,0,8.31,8.85,12.83,11.26,6.69,3.54,12.82-.4,19.28-.56.18-2.18,5.56-9.19,7.19-10.84,4.07-4.31,4.16-5.9,12.85-5.9l1.77-.15,2.19-3.87c5.07.42,13.5,16.05,14,16.05,1.92,0,2.42-1.92,3.36-3.33a73.08,73.08,0,0,1-7.34-9.38,119.09,119.09,0,0,0-7.4-9.35c-3.42-4.86-1.09-5.89-6.67-10-3.59-2.65-5.65-5.57-9.33-8.05a149.65,149.65,0,0,0-2.75-20c-1.47-7.25-.95-13.62-2.09-21.31-1.62-10.86-9.23-27.42-9.23-37.6l.06.06a11.75,11.75,0,0,1,6.69,8.84c3.28,1.74,9.35,19.08,10.86,23.94,2.26,7.4,7,17.95,9.84,25.63,3.41,9.49,7.37,15.15,15.3,20.12,5.23,3.28,18.91,8.56,26.9,8.56,12.26,0,27.89-1.47,36.76-5.9A47.53,47.53,0,0,0,393,328.44c2.76-2.77,8.65-10.26,11.34-11.8ZM255.4,256.15v-2l4.71-.29h3.37l5.89.2c2.19,3.28,4.31,18.91,7.14,25,3.28,7.13,2.29,18.59,3.8,26.92,1.36,7.51.58,24.12,2.94,29,3.28,6.56,16,10.37,16,16.71l.23,0c0,15.48-7,5.47-14.75,13.36-2.29,2.36-12.77,12.7-16,12.7h-6.66c-4,0-5.91-4.37-8.41-7-1.62-1.62-8.64-5.55-8.84-6.37-4.22,0-5.9,2-10.71,2h-1.47c-3.57,0-7.32-9.84-5.13-13.11,1.44-2.25,9.28-7.23,11.8-8.85,0-13.68,2.38-34.82,3.94-48.18,1.22-10.31,1.1-13.12,4.49-21.63C248.72,272.1,255.4,256.5,255.4,256.15Zm156.48-40.22-.71,5.47h-.76V205.88h-1.32l.2,4.72L407.73,226c-.21,1.79.68,1.65,2,2v1.33c-8.84,2-36.59,1.15-45.43,2.19l-85.51,7.82h-7.36l-6.7-.66-8.07-.26-10,1.59c-2.5.41-26.86-.36-32-.74-9.37-.68-23.88-2-34.79-1.95-12.35,0-24.23-1.38-38.15-1.32-4.71,0-14.53-1.6-18.28-.94-1.91.3-13.26.94-16.47.94v-4l-4-26.1c-1.7-9.84,3.39-25.88,4-33.44H105.7l-2.38,4.73,1.56-7.87-1.42-.49,0-.08L246,177.17v-.8c2.32,0,4.51-1.56,6.13-1.89a68.71,68.71,0,0,1,8.61,0c4.87,0,10.61-.68,16.69-.68h7.33a70.76,70.76,0,0,0,17.49-1.2c5.67-.92,15.6.23,19-.39,6.93-1.26,31.47-1.09,38.33-1.09a30.46,30.46,0,0,1,8.85-3.33l9.38-.23,30.51,2.26,1.56,10.65c-.36.56-1.33,1.65-1.33,2,0,3.92,3.36,14,3.36,16.72ZM360.31,388.7l.17.14c-1.83,2.35-1.67,1.09-1.09,6.1s2.95,4.6,2.95-.26C362.34,390.11,360.54,388.84,360.31,388.7Zm-9.91,4,.09.14c-.3,2.19,1.65,2.95,1.8,7.08s-.15,12.35-.27,13.6,4.72,2.5,4-4.73S354,388.57,350.4,392.73Zm-4.7-184.54c-7.73,0-25.54-1.94-34.71-2.5S292.69,204,284.63,204s-24.71.85-24.71.85l.1,0c-12.2.83-35.37,2.48-44.22,3.87s-18.05,1.68-28.3,2.94-18.87.54-18.87,3,.83,3.89,8.32,3.59,28.29-6.1,43-6.36,34.17-2.31,45.78-2.83,20-2,30.82-.57,18,2.78,27.18,3.28,24.15,0,24.15,0S353.43,208.19,345.7,208.19ZM332.94,378.73h-.14c-2.5.26-2.36,1.94,0,5.39s8.84,38.71,9.31,47.17.56,20.26-.41,22.64,1.51,4.27,2.48-2.38,3.74-38.71-1.51-54.11S332.94,378.73,332.94,378.73Zm-118.87-181a235.66,235.66,0,0,1,34.41-1.95c18,0,23-2.78,36.65-2.51s18.87,1.38,32.8,2.18,19.13,2,22.19,1.39,4.7-3.27.66-5.51l-.12-.06.1.06c-3.62-.27-15.25-1.91-29.67-2.19s-20.77-2.94-32.2-.81a201,201,0,0,1-39.51,2.5,239.77,239.77,0,0,0-29.12.26c-8.85.83-18.33,3.34-17,5.54S200.82,199.1,214.07,197.69ZM322.27,383v2.65h-1.18l-.85-3.27-.47-.54-2.59,2.7.26.71-2.95-4.86c-1.15.29-2.68.76-2.68,2h-.21c0,2.18,5.14,15.41,6.69,16h-.73l2.09,15.95c3,1.23,0,2.65,3.33,2.65s.68-7.43,1.1-12.14l2.24,8.22,2.64-.73v-2c0-6-4-11.78-4-18.07,2.47,1.81,5.34,10,5.34,14.75,3.35,5-.36,9.34,5.36,8v-2C335.66,405.87,327.55,383.41,322.27,383Zm-28.63,43.56-4-.63-66.24,3.28v.68c-2.36,3.51-4.05,1.09-4.05,8l.56.57,6.17-5.63,98.29-3.49v-.88l1.92,1.42v-4.63c-.5-.36-1.68-1.39-2-1.39ZM312.4,218.9c-12.77.33-31.07,0-41.27.29a246.19,246.19,0,0,0-28.87,1.09,142.33,142.33,0,0,1-18.87,1.95l-.06-.12c-7.78,2.19-15.53,2.94-20,4.71s-10.53,4.45-3.61,4.45,20.26-4.45,35.24-6.1a276.21,276.21,0,0,1,40.24-2.5c15.3.26,24.71.26,35.79.55s11.8.27,12.21-1.38S325.17,218.56,312.4,218.9Zm-4.54,189-.2,5.34v.67a35.08,35.08,0,0,0,.67,4.69h1.86l.77-5.9V409.3c2,.53,3.33,5.08,3.33,7.37v2.1l2.65-.77v-2.68c0-5.9-2.94-13.95-4.16-19.9-.52-2.62-1.7-6.29-2.65-9.38-1.1-3.54-3.28-6.05-3.9-8.17h-1.88l-.74,1.92c2,8.58,4.25,14.09,4.25,23.38Zm-6.08-4c.06,4.27.42,7.65.3,11.17s1.74,4,2.57,3.42.35-14-.78-19.18-2.35-10.94-2.71-12.65a13.29,13.29,0,0,0-2.18-4.25l0,.15c-.56,0-3.6.41-1.8,6.13S301.73,399.56,301.78,403.84ZM294,407.05A44.55,44.55,0,0,0,297,419.14c.72,1.39,1.48.77,2.19-.2s-.88-7.84-1.6-11.12-2.62-17.69-2.67-19.17A18.24,18.24,0,0,0,293.2,384l-.08,0c-1.6.56-1.74,2.77-1.6,5.39S293.71,402.48,294,407.05Zm-7.17,1.15c-.21,4,.92,11,.71,11.8s1.39.44,1.81-.42a19.88,19.88,0,0,0,2.18-11.23c-.67-5.89-1.23-14.73-1.39-17.3s-1.85-8.08-3.38-7.16l0-.07c-1,.42-1.27,4.6-.83,7.73A136.27,136.27,0,0,1,286.86,408.2Zm-5.65-1.33v9.22c0,2.36,0,2.94,1.44,2.94s2-5.89,2.09-10.84-1.32-17.69-1.58-19.68-1.57-3.42-2.45-3.07l-.09.06c-1.95.42-2.48.82-1.86,3.39A131.25,131.25,0,0,1,281.21,406.87ZM275.5,411c.24,1.77.35,4.83,1.1,5.3s2.29,0,2.38-3.51-1.91-15.77-2.12-18.58q-.27-2.89-.79-5.76a2.31,2.31,0,0,0-2.18,1.55,21.84,21.84,0,0,0,.38,7.43C274.74,400,275.26,409.24,275.5,411Zm-5.87,3.78c-.08,4,.3,6.56,1.27,6.56s2-3,2-7.08-.41-17.36-.56-19.68-.42-7.16-1.68-6.9v0c-1.29,1.27-1,3.84-1.45,8.5S269.72,410.8,269.63,414.79Zm-5.67-1,2-21.4v-2c0-1.53-.48-2-2-2h-2l.17,2.07c0,5.33-2,9.54-2,12v5.39l.89,7.49Zm-17.86.06h3.3l-.8-.2,5.92-25.39.8.18c0,4-3.54,27.41-1.32,27.41,1.53,0,.76-.22,2.68-.67V402.61l.88-1.53,1.57-7.45.76.17c-1.79-3.42-.76-5.12-4.71-5.89l.68-3.49-4.4.84c0,5.66-5.36,14.18-5.36,24.6Zm5.12-28.56.24-.05v-.07Zm-12.48,35.32a1.73,1.73,0,0,0,2.44-.24h0a1.5,1.5,0,0,0,.26-.44c.44-1.39,1.39-10.72,1.7-13.17s3-14.75,3-16.63-.42-2.62-2.09-2.95l0,.28c-1.44.7-1.62,1-2.18,4.38s-2.54,21.07-2.54,22.64S238.48,420.11,238.74,420.63Zm-8.41-.46c-.57,1.74,2.52,1.18,2.95-.21s2.95-14.73,3.84-17.69,3.48-14.73,3.8-16.39-.91-1.86-2.18-1.36h0c-2,2.71-1.53,5.47-2.54,8.85S230.9,418.43,230.33,420.17Zm-4.68,5.26c.62.59,1.39,1.65,2.07-2.24s1.53-15.31,2.94-20.9,0-10.23,1.86-14.12,1.16-4.86.92-5.75-1.7-.71-2.32-.48l-.06,0c-1.76.74-1.55-.69-2.13,2.92s-3,28.22-3.28,31.71S225,424.84,225.65,425.43Zm-2.58-25.29c1.36-2.95,2.4-10,3.34-11.79s2-5-.12-4.38l0-.06c-1.62.15-1.1-2.35-3.28,3.13A214.39,214.39,0,0,0,217.56,409a23.52,23.52,0,0,0-1.09,6.39c0,1.59,0,2.59,1.68,2.71s1.92-2.95,2.8-7.65A48.12,48.12,0,0,1,223.07,400.14Zm-1.87-17.79-4-4.66c-.4,1.82-3.18,6.84-4.37,9.7-1.35,3.45-2.59,7.28-3.59,10.44a74.43,74.43,0,0,0-4.05,24v0h2v-2c0-3.51,2.74-13.27,4.67-14.74l-2,14.74v3.37h2.68c.68-8.22,2.18-14.49,3.39-22,1-6.43,4.63-13.78,5.9-19.46Zm-22.62,2.75,0,0c-2.77,4-5.13,15.4-6.56,18.87a34.61,34.61,0,0,0-1.95,13c.3,3.9,1.95,3.48,3.89-2.62s2.19-8.84,4.16-14.74,4-11.38,4-12.21S201.76,383.31,198.58,385.1Zm-15.39,42.66c.71-5.11,1.27-11.45,1.92-16.8.74-6,3.95-32.2-1.26-33.5l-5,51.06.35,2a31.23,31.23,0,0,0,3.66,15.06c.95,2,5,12.36,6.37,12.36s2-.42,2-1.33a80.18,80.18,0,0,0-6.81-14.16C185.76,439.82,182.39,433.65,183.19,427.76ZM171.5,385.17a13.16,13.16,0,0,0-.67-4l.08-.06c-3.68,1-4.15,1.53-3.75,4.37a70.61,70.61,0,0,1,.36,12.42,21.13,21.13,0,0,0,1.59,9.84c1.09,2.94,2.19,5.33,2.95,2s-.88-12-.82-16.13S171.45,387,171.5,385.17Zm-.26,8.4c.07-4.1.21-6.56.26-8.4a13.16,13.16,0,0,0-.67-4l.08-.06c-3.68,1-4.15,1.53-3.75,4.37a70.61,70.61,0,0,1,.36,12.42,21.13,21.13,0,0,0,1.59,9.84c1.09,2.94,2.19,5.33,2.95,2S171.18,397.67,171.24,393.57Zm13.22,48.92c1.3-2.67-2.07-8.84-1.27-14.73.71-5.11,1.27-11.45,1.92-16.8.74-6,3.95-32.2-1.26-33.5l-5,51.06.35,2a31.23,31.23,0,0,0,3.66,15.06c.95,2,5,12.36,6.37,12.36s2-.42,2-1.33A80.18,80.18,0,0,0,184.46,442.49Zm14.12-57.39,0,0c-2.77,4-5.13,15.4-6.56,18.87a34.61,34.61,0,0,0-1.95,13c.3,3.9,1.95,3.48,3.89-2.62s2.19-8.84,4.16-14.74,4-11.38,4-12.21S201.76,383.31,198.58,385.1Zm22.62-2.75-4-4.66c-.4,1.82-3.18,6.84-4.37,9.7-1.35,3.45-2.59,7.28-3.59,10.44a74.43,74.43,0,0,0-4.05,24v0h2v-2c0-3.51,2.74-13.27,4.67-14.74l-2,14.74v3.37h2.68c.68-8.22,2.18-14.49,3.39-22,1-6.43,4.63-13.78,5.9-19.46Zm5.09,1.62,0-.06c-1.62.15-1.1-2.35-3.28,3.13A214.39,214.39,0,0,0,217.56,409a23.52,23.52,0,0,0-1.09,6.39c0,1.59,0,2.59,1.68,2.71s1.92-2.95,2.8-7.65a48.12,48.12,0,0,1,2.12-10.29c1.36-2.95,2.4-10,3.34-11.79S228.44,383.36,226.29,384Zm7.15-1.55c-.21-.76-1.7-.71-2.32-.48l-.06,0c-1.76.74-1.55-.69-2.13,2.92s-3,28.22-3.28,31.71-.62,8.25,0,8.84,1.39,1.65,2.07-2.24,1.53-15.31,2.94-20.9,0-10.23,1.86-14.12S233.68,383.31,233.44,382.42Zm5.3,2.1h0c-2,2.71-1.53,5.47-2.54,8.85s-5.33,25.05-5.9,26.79,2.52,1.18,2.95-.21,2.95-14.73,3.84-17.69,3.48-14.73,3.8-16.39S240,384,238.74,384.52ZM244,387.2l0,.28c-1.44.7-1.62,1-2.18,4.38s-2.54,21.07-2.54,22.64-.87,5.61-.61,6.13a1.73,1.73,0,0,0,2.44-.24h0a1.5,1.5,0,0,0,.26-.44c.44-1.39,1.39-10.72,1.7-13.17s3-14.75,3-16.63S245.69,387.53,244,387.2Zm7.2-1.89.24-.05v-.07Zm4,2.6.68-3.49-4.4.84c0,5.66-5.36,14.18-5.36,24.6v4h3.3l-.8-.2,5.92-25.39.8.18c0,4-3.54,27.41-1.32,27.41,1.53,0,.76-.22,2.68-.67V402.61l.88-1.53,1.57-7.45.76.17C258.1,390.38,259.13,388.68,255.18,387.91Zm8.78.49h-2l.17,2.07c0,5.33-2,9.54-2,12v5.39l.89,7.49,2.94-1.56,2-21.4v-2C266,388.87,265.49,388.4,264,388.4Zm8.33,6.19c-.15-2.32-.42-7.16-1.68-6.9v0c-1.29,1.27-1,3.84-1.45,8.5s.56,14.59.47,18.58.3,6.56,1.27,6.56,2-3,2-7.08S272.44,396.91,272.29,394.59Zm4.57-.37q-.27-2.89-.79-5.76a2.31,2.31,0,0,0-2.18,1.55,21.84,21.84,0,0,0,.38,7.43c.47,2.51,1,11.8,1.23,13.57s.35,4.83,1.1,5.3,2.29,0,2.38-3.51S277.07,397,276.86,394.22Zm6.3-5.71c-.27-2-1.57-3.42-2.45-3.07l-.09.06c-1.95.42-2.48.82-1.86,3.39a131.25,131.25,0,0,1,2.45,18v9.22c0,2.36,0,2.94,1.44,2.94s2-5.89,2.09-10.84S283.42,390.5,283.16,388.51Zm8.4,19.84c-.67-5.89-1.23-14.73-1.39-17.3s-1.85-8.08-3.38-7.16l0-.07c-1,.42-1.27,4.6-.83,7.73a136.27,136.27,0,0,1,.88,16.65c-.21,4,.92,11,.71,11.8s1.39.44,1.81-.42A19.88,19.88,0,0,0,291.56,408.35Zm6-.53c-.71-3.28-2.62-17.69-2.67-19.17A18.24,18.24,0,0,0,293.2,384l-.08,0c-1.6.56-1.74,2.77-1.6,5.39s2.19,13.12,2.51,17.69A44.55,44.55,0,0,0,297,419.14c.72,1.39,1.48.77,2.19-.2S298.28,411.1,297.56,407.82Zm6.31-8.57c-1.12-5.22-2.35-10.94-2.71-12.65a13.29,13.29,0,0,0-2.18-4.25l0,.15c-.56,0-3.6.41-1.8,6.13s4.52,10.93,4.57,15.21.42,7.65.3,11.17,1.74,4,2.57,3.42S305,404.46,303.87,399.25Zm8.91-3.83c-.52-2.62-1.7-6.29-2.65-9.38-1.1-3.54-3.28-6.05-3.9-8.17h-1.88l-.74,1.92c2,8.58,4.25,14.09,4.25,23.38v4.69l-.2,5.34v.67a35.08,35.08,0,0,0,.67,4.69h1.86l.77-5.9V409.3c2,.53,3.33,5.08,3.33,7.37v2.1l2.65-.77v-2.68C316.94,409.42,314,401.37,312.78,395.42Zm11.47,28.42-30.61,2.69-4-.63-66.24,3.28v.68c-2.36,3.51-4.05,1.09-4.05,8l.56.57,6.17-5.63,98.29-3.49v-.88l1.92,1.42v-4.63C325.76,424.87,324.58,423.84,324.25,423.84Zm-2-40.87v2.65h-1.18l-.85-3.27-.47-.54-2.59,2.7.26.71-2.95-4.86c-1.15.29-2.68.76-2.68,2h-.21c0,2.18,5.14,15.41,6.69,16h-.73l2.09,15.95c3,1.23,0,2.65,3.33,2.65s.68-7.43,1.1-12.14l2.24,8.22,2.64-.73v-2c0-6-4-11.78-4-18.07,2.47,1.81,5.34,10,5.34,14.75,3.35,5-.36,9.34,5.36,8v-2C335.66,405.87,327.55,383.41,322.27,383Zm20.4,14.47c-5.25-15.39-9.73-18.71-9.73-18.71h-.14c-2.5.26-2.36,1.94,0,5.39s8.84,38.71,9.31,47.17.56,20.26-.41,22.64,1.51,4.27,2.48-2.38S347.92,412.84,342.67,397.44ZM356,408.82c-.71-7.22-2-20.25-5.63-16.09l.09.14c-.3,2.19,1.65,2.95,1.8,7.08s-.15,12.35-.27,13.6S356.74,416.05,356,408.82Zm4.28-20.12.17.14c-1.83,2.35-1.67,1.09-1.09,6.1s2.95,4.6,2.95-.26C362.34,390.11,360.54,388.84,360.31,388.7ZM312.4,218.9c-12.77.33-31.07,0-41.27.29a246.19,246.19,0,0,0-28.87,1.09,142.33,142.33,0,0,1-18.87,1.95l-.06-.12c-7.78,2.19-15.53,2.94-20,4.71s-10.53,4.45-3.61,4.45,20.26-4.45,35.24-6.1a276.21,276.21,0,0,1,40.24-2.5c15.3.26,24.71.26,35.79.55s11.8.27,12.21-1.38S325.17,218.56,312.4,218.9Zm28.38-27.61-.12-.06.1.06c-3.62-.27-15.25-1.91-29.67-2.19s-20.77-2.94-32.2-.81a201,201,0,0,1-39.51,2.5,239.77,239.77,0,0,0-29.12.26c-8.85.83-18.33,3.34-17,5.54s7.52,2.51,20.77,1.1a235.66,235.66,0,0,1,34.41-1.95c18,0,23-2.78,36.65-2.51s18.87,1.38,32.8,2.18,19.13,2,22.19,1.39S344.82,193.53,340.78,191.29Zm4.92,16.9c-7.73,0-25.54-1.94-34.71-2.5S292.69,204,284.63,204s-24.71.85-24.71.85l.1,0c-12.2.83-35.37,2.48-44.22,3.87s-18.05,1.68-28.3,2.94-18.87.54-18.87,3,.83,3.89,8.32,3.59,28.29-6.1,43-6.36,34.17-2.31,45.78-2.83,20-2,30.82-.57,18,2.78,27.18,3.28,24.15,0,24.15,0S353.43,208.19,345.7,208.19ZM360.31,388.7l.17.14c-1.83,2.35-1.67,1.09-1.09,6.1s2.95,4.6,2.95-.26C362.34,390.11,360.54,388.84,360.31,388.7ZM356,408.82c-.71-7.22-2-20.25-5.63-16.09l.09.14c-.3,2.19,1.65,2.95,1.8,7.08s-.15,12.35-.27,13.6S356.74,416.05,356,408.82ZM345.7,208.19c-7.73,0-25.54-1.94-34.71-2.5S292.69,204,284.63,204s-24.71.85-24.71.85l.1,0c-12.2.83-35.37,2.48-44.22,3.87s-18.05,1.68-28.3,2.94-18.87.54-18.87,3,.83,3.89,8.32,3.59,28.29-6.1,43-6.36,34.17-2.31,45.78-2.83,20-2,30.82-.57,18,2.78,27.18,3.28,24.15,0,24.15,0S353.43,208.19,345.7,208.19Zm-3,189.25c-5.25-15.39-9.73-18.71-9.73-18.71h-.14c-2.5.26-2.36,1.94,0,5.39s8.84,38.71,9.31,47.17.56,20.26-.41,22.64,1.51,4.27,2.48-2.38S347.92,412.84,342.67,397.44Zm-1.89-206.15-.12-.06.1.06c-3.62-.27-15.25-1.91-29.67-2.19s-20.77-2.94-32.2-.81a201,201,0,0,1-39.51,2.5,239.77,239.77,0,0,0-29.12.26c-8.85.83-18.33,3.34-17,5.54s7.52,2.51,20.77,1.1a235.66,235.66,0,0,1,34.41-1.95c18,0,23-2.78,36.65-2.51s18.87,1.38,32.8,2.18,19.13,2,22.19,1.39S344.82,193.53,340.78,191.29ZM322.27,383v2.65h-1.18l-.85-3.27-.47-.54-2.59,2.7.26.71-2.95-4.86c-1.15.29-2.68.76-2.68,2h-.21c0,2.18,5.14,15.41,6.69,16h-.73l2.09,15.95c3,1.23,0,2.65,3.33,2.65s.68-7.43,1.1-12.14l2.24,8.22,2.64-.73v-2c0-6-4-11.78-4-18.07,2.47,1.81,5.34,10,5.34,14.75,3.35,5-.36,9.34,5.36,8v-2C335.66,405.87,327.55,383.41,322.27,383Zm2,40.87-30.61,2.69-4-.63-66.24,3.28v.68c-2.36,3.51-4.05,1.09-4.05,8l.56.57,6.17-5.63,98.29-3.49v-.88l1.92,1.42v-4.63C325.76,424.87,324.58,423.84,324.25,423.84ZM312.4,218.9c-12.77.33-31.07,0-41.27.29a246.19,246.19,0,0,0-28.87,1.09,142.33,142.33,0,0,1-18.87,1.95l-.06-.12c-7.78,2.19-15.53,2.94-20,4.71s-10.53,4.45-3.61,4.45,20.26-4.45,35.24-6.1a276.21,276.21,0,0,1,40.24-2.5c15.3.26,24.71.26,35.79.55s11.8.27,12.21-1.38S325.17,218.56,312.4,218.9Zm.38,176.52c-.52-2.62-1.7-6.29-2.65-9.38-1.1-3.54-3.28-6.05-3.9-8.17h-1.88l-.74,1.92c2,8.58,4.25,14.09,4.25,23.38v4.69l-.2,5.34v.67a35.08,35.08,0,0,0,.67,4.69h1.86l.77-5.9V409.3c2,.53,3.33,5.08,3.33,7.37v2.1l2.65-.77v-2.68C316.94,409.42,314,401.37,312.78,395.42Zm-8.91,3.83c-1.12-5.22-2.35-10.94-2.71-12.65a13.29,13.29,0,0,0-2.18-4.25l0,.15c-.56,0-3.6.41-1.8,6.13s4.52,10.93,4.57,15.21.42,7.65.3,11.17,1.74,4,2.57,3.42S305,404.46,303.87,399.25Zm-6.31,8.57c-.71-3.28-2.62-17.69-2.67-19.17A18.24,18.24,0,0,0,293.2,384l-.08,0c-1.6.56-1.74,2.77-1.6,5.39s2.19,13.12,2.51,17.69A44.55,44.55,0,0,0,297,419.14c.72,1.39,1.48.77,2.19-.2S298.28,411.1,297.56,407.82Zm-6,.53c-.67-5.89-1.23-14.73-1.39-17.3s-1.85-8.08-3.38-7.16l0-.07c-1,.42-1.27,4.6-.83,7.73a136.27,136.27,0,0,1,.88,16.65c-.21,4,.92,11,.71,11.8s1.39.44,1.81-.42A19.88,19.88,0,0,0,291.56,408.35Zm-8.4-19.84c-.27-2-1.57-3.42-2.45-3.07l-.09.06c-1.95.42-2.48.82-1.86,3.39a131.25,131.25,0,0,1,2.45,18v9.22c0,2.36,0,2.94,1.44,2.94s2-5.89,2.09-10.84S283.42,390.5,283.16,388.51Zm-6.3,5.71q-.27-2.89-.79-5.76a2.31,2.31,0,0,0-2.18,1.55,21.84,21.84,0,0,0,.38,7.43c.47,2.51,1,11.8,1.23,13.57s.35,4.83,1.1,5.3,2.29,0,2.38-3.51S277.07,397,276.86,394.22Zm-4.57.37c-.15-2.32-.42-7.16-1.68-6.9v0c-1.29,1.27-1,3.84-1.45,8.5s.56,14.59.47,18.58.3,6.56,1.27,6.56,2-3,2-7.08S272.44,396.91,272.29,394.59ZM264,388.4h-2l.17,2.07c0,5.33-2,9.54-2,12v5.39l.89,7.49,2.94-1.56,2-21.4v-2C266,388.87,265.49,388.4,264,388.4Zm-8.78-.49.68-3.49-4.4.84c0,5.66-5.36,14.18-5.36,24.6v4h3.3l-.8-.2,5.92-25.39.8.18c0,4-3.54,27.41-1.32,27.41,1.53,0,.76-.22,2.68-.67V402.61l.88-1.53,1.57-7.45.76.17C258.1,390.38,259.13,388.68,255.18,387.91Zm-4-2.6.24-.05v-.07ZM244,387.2l0,.28c-1.44.7-1.62,1-2.18,4.38s-2.54,21.07-2.54,22.64-.87,5.61-.61,6.13a1.73,1.73,0,0,0,2.44-.24h0a1.5,1.5,0,0,0,.26-.44c.44-1.39,1.39-10.72,1.7-13.17s3-14.75,3-16.63S245.69,387.53,244,387.2Zm-5.28-2.68h0c-2,2.71-1.53,5.47-2.54,8.85s-5.33,25.05-5.9,26.79,2.52,1.18,2.95-.21,2.95-14.73,3.84-17.69,3.48-14.73,3.8-16.39S240,384,238.74,384.52Zm-5.3-2.1c-.21-.76-1.7-.71-2.32-.48l-.06,0c-1.76.74-1.55-.69-2.13,2.92s-3,28.22-3.28,31.71-.62,8.25,0,8.84,1.39,1.65,2.07-2.24,1.53-15.31,2.94-20.9,0-10.23,1.86-14.12S233.68,383.31,233.44,382.42ZM226.29,384l0-.06c-1.62.15-1.1-2.35-3.28,3.13A214.39,214.39,0,0,0,217.56,409a23.52,23.52,0,0,0-1.09,6.39c0,1.59,0,2.59,1.68,2.71s1.92-2.95,2.8-7.65a48.12,48.12,0,0,1,2.12-10.29c1.36-2.95,2.4-10,3.34-11.79S228.44,383.36,226.29,384Zm-5.09-1.62-4-4.66c-.4,1.82-3.18,6.84-4.37,9.7-1.35,3.45-2.59,7.28-3.59,10.44a74.43,74.43,0,0,0-4.05,24v0h2v-2c0-3.51,2.74-13.27,4.67-14.74l-2,14.74v3.37h2.68c.68-8.22,2.18-14.49,3.39-22,1-6.43,4.63-13.78,5.9-19.46Zm-22.62,2.75,0,0c-2.77,4-5.13,15.4-6.56,18.87a34.61,34.61,0,0,0-1.95,13c.3,3.9,1.95,3.48,3.89-2.62s2.19-8.84,4.16-14.74,4-11.38,4-12.21S201.76,383.31,198.58,385.1Zm-14.12,57.39c1.3-2.67-2.07-8.84-1.27-14.73.71-5.11,1.27-11.45,1.92-16.8.74-6,3.95-32.2-1.26-33.5l-5,51.06.35,2a31.23,31.23,0,0,0,3.66,15.06c.95,2,5,12.36,6.37,12.36s2-.42,2-1.33A80.18,80.18,0,0,0,184.46,442.49Zm-13.22-48.92c.07-4.1.21-6.56.26-8.4a13.16,13.16,0,0,0-.67-4l.08-.06c-3.68,1-4.15,1.53-3.75,4.37a70.61,70.61,0,0,1,.36,12.42,21.13,21.13,0,0,0,1.59,9.84c1.09,2.94,2.19,5.33,2.95,2S171.18,397.67,171.24,393.57ZM345.7,208.19c-7.73,0-25.54-1.94-34.71-2.5S292.69,204,284.63,204s-24.71.85-24.71.85l.1,0c-12.2.83-35.37,2.48-44.22,3.87s-18.05,1.68-28.3,2.94-18.87.54-18.87,3,.83,3.89,8.32,3.59,28.29-6.1,43-6.36,34.17-2.31,45.78-2.83,20-2,30.82-.57,18,2.78,27.18,3.28,24.15,0,24.15,0S353.43,208.19,345.7,208.19Zm-4.92-16.9-.12-.06.1.06c-3.62-.27-15.25-1.91-29.67-2.19s-20.77-2.94-32.2-.81a201,201,0,0,1-39.51,2.5,239.77,239.77,0,0,0-29.12.26c-8.85.83-18.33,3.34-17,5.54s7.52,2.51,20.77,1.1a235.66,235.66,0,0,1,34.41-1.95c18,0,23-2.78,36.65-2.51s18.87,1.38,32.8,2.18,19.13,2,22.19,1.39S344.82,193.53,340.78,191.29ZM312.4,218.9c-12.77.33-31.07,0-41.27.29a246.19,246.19,0,0,0-28.87,1.09,142.33,142.33,0,0,1-18.87,1.95l-.06-.12c-7.78,2.19-15.53,2.94-20,4.71s-10.53,4.45-3.61,4.45,20.26-4.45,35.24-6.1a276.21,276.21,0,0,1,40.24-2.5c15.3.26,24.71.26,35.79.55s11.8.27,12.21-1.38S325.17,218.56,312.4,218.9Zm47.91,169.8.17.14c-1.83,2.35-1.67,1.09-1.09,6.1s2.95,4.6,2.95-.26C362.34,390.11,360.54,388.84,360.31,388.7ZM356,408.82c-.71-7.22-2-20.25-5.63-16.09l.09.14c-.3,2.19,1.65,2.95,1.8,7.08s-.15,12.35-.27,13.6S356.74,416.05,356,408.82Zm-13.36-11.38c-5.25-15.39-9.73-18.71-9.73-18.71h-.14c-2.5.26-2.36,1.94,0,5.39s8.84,38.71,9.31,47.17.56,20.26-.41,22.64,1.51,4.27,2.48-2.38S347.92,412.84,342.67,397.44ZM322.27,383v2.65h-1.18l-.85-3.27-.47-.54-2.59,2.7.26.71-2.95-4.86c-1.15.29-2.68.76-2.68,2h-.21c0,2.18,5.14,15.41,6.69,16h-.73l2.09,15.95c3,1.23,0,2.65,3.33,2.65s.68-7.43,1.1-12.14l2.24,8.22,2.64-.73v-2c0-6-4-11.78-4-18.07,2.47,1.81,5.34,10,5.34,14.75,3.35,5-.36,9.34,5.36,8v-2C335.66,405.87,327.55,383.41,322.27,383Zm2,40.87-30.61,2.69-4-.63-66.24,3.28v.68c-2.36,3.51-4.05,1.09-4.05,8l.56.57,6.17-5.63,98.29-3.49v-.88l1.92,1.42v-4.63C325.76,424.87,324.58,423.84,324.25,423.84Zm-11.47-28.42c-.52-2.62-1.7-6.29-2.65-9.38-1.1-3.54-3.28-6.05-3.9-8.17h-1.88l-.74,1.92c2,8.58,4.25,14.09,4.25,23.38v4.69l-.2,5.34v.67a35.08,35.08,0,0,0,.67,4.69h1.86l.77-5.9V409.3c2,.53,3.33,5.08,3.33,7.37v2.1l2.65-.77v-2.68C316.94,409.42,314,401.37,312.78,395.42Zm-8.91,3.83c-1.12-5.22-2.35-10.94-2.71-12.65a13.29,13.29,0,0,0-2.18-4.25l0,.15c-.56,0-3.6.41-1.8,6.13s4.52,10.93,4.57,15.21.42,7.65.3,11.17,1.74,4,2.57,3.42S305,404.46,303.87,399.25Zm-6.31,8.57c-.71-3.28-2.62-17.69-2.67-19.17A18.24,18.24,0,0,0,293.2,384l-.08,0c-1.6.56-1.74,2.77-1.6,5.39s2.19,13.12,2.51,17.69A44.55,44.55,0,0,0,297,419.14c.72,1.39,1.48.77,2.19-.2S298.28,411.1,297.56,407.82Zm-6,.53c-.67-5.89-1.23-14.73-1.39-17.3s-1.85-8.08-3.38-7.16l0-.07c-1,.42-1.27,4.6-.83,7.73a136.27,136.27,0,0,1,.88,16.65c-.21,4,.92,11,.71,11.8s1.39.44,1.81-.42A19.88,19.88,0,0,0,291.56,408.35Zm-8.4-19.84c-.27-2-1.57-3.42-2.45-3.07l-.09.06c-1.95.42-2.48.82-1.86,3.39a131.25,131.25,0,0,1,2.45,18v9.22c0,2.36,0,2.94,1.44,2.94s2-5.89,2.09-10.84S283.42,390.5,283.16,388.51Zm-6.3,5.71q-.27-2.89-.79-5.76a2.31,2.31,0,0,0-2.18,1.55,21.84,21.84,0,0,0,.38,7.43c.47,2.51,1,11.8,1.23,13.57s.35,4.83,1.1,5.3,2.29,0,2.38-3.51S277.07,397,276.86,394.22Zm-4.57.37c-.15-2.32-.42-7.16-1.68-6.9v0c-1.29,1.27-1,3.84-1.45,8.5s.56,14.59.47,18.58.3,6.56,1.27,6.56,2-3,2-7.08S272.44,396.91,272.29,394.59ZM264,388.4h-2l.17,2.07c0,5.33-2,9.54-2,12v5.39l.89,7.49,2.94-1.56,2-21.4v-2C266,388.87,265.49,388.4,264,388.4Zm-8.78-.49.68-3.49-4.4.84c0,5.66-5.36,14.18-5.36,24.6v4h3.3l-.8-.2,5.92-25.39.8.18c0,4-3.54,27.41-1.32,27.41,1.53,0,.76-.22,2.68-.67V402.61l.88-1.53,1.57-7.45.76.17C258.1,390.38,259.13,388.68,255.18,387.91Zm-4-2.6.24-.05v-.07ZM244,387.2l0,.28c-1.44.7-1.62,1-2.18,4.38s-2.54,21.07-2.54,22.64-.87,5.61-.61,6.13a1.73,1.73,0,0,0,2.44-.24h0a1.5,1.5,0,0,0,.26-.44c.44-1.39,1.39-10.72,1.7-13.17s3-14.75,3-16.63S245.69,387.53,244,387.2Zm-5.28-2.68h0c-2,2.71-1.53,5.47-2.54,8.85s-5.33,25.05-5.9,26.79,2.52,1.18,2.95-.21,2.95-14.73,3.84-17.69,3.48-14.73,3.8-16.39S240,384,238.74,384.52Zm-5.3-2.1c-.21-.76-1.7-.71-2.32-.48l-.06,0c-1.76.74-1.55-.69-2.13,2.92s-3,28.22-3.28,31.71-.62,8.25,0,8.84,1.39,1.65,2.07-2.24,1.53-15.31,2.94-20.9,0-10.23,1.86-14.12S233.68,383.31,233.44,382.42ZM226.29,384l0-.06c-1.62.15-1.1-2.35-3.28,3.13A214.39,214.39,0,0,0,217.56,409a23.52,23.52,0,0,0-1.09,6.39c0,1.59,0,2.59,1.68,2.71s1.92-2.95,2.8-7.65a48.12,48.12,0,0,1,2.12-10.29c1.36-2.95,2.4-10,3.34-11.79S228.44,383.36,226.29,384Zm-5.09-1.62-4-4.66c-.4,1.82-3.18,6.84-4.37,9.7-1.35,3.45-2.59,7.28-3.59,10.44a74.43,74.43,0,0,0-4.05,24v0h2v-2c0-3.51,2.74-13.27,4.67-14.74l-2,14.74v3.37h2.68c.68-8.22,2.18-14.49,3.39-22,1-6.43,4.63-13.78,5.9-19.46Zm-22.62,2.75,0,0c-2.77,4-5.13,15.4-6.56,18.87a34.61,34.61,0,0,0-1.95,13c.3,3.9,1.95,3.48,3.89-2.62s2.19-8.84,4.16-14.74,4-11.38,4-12.21S201.76,383.31,198.58,385.1Zm-14.12,57.39c1.3-2.67-2.07-8.84-1.27-14.73.71-5.11,1.27-11.45,1.92-16.8.74-6,3.95-32.2-1.26-33.5l-5,51.06.35,2a31.23,31.23,0,0,0,3.66,15.06c.95,2,5,12.36,6.37,12.36s2-.42,2-1.33A80.18,80.18,0,0,0,184.46,442.49Zm-13.22-48.92c.07-4.1.21-6.56.26-8.4a13.16,13.16,0,0,0-.67-4l.08-.06c-3.68,1-4.15,1.53-3.75,4.37a70.61,70.61,0,0,1,.36,12.42,21.13,21.13,0,0,0,1.59,9.84c1.09,2.94,2.19,5.33,2.95,2S171.18,397.67,171.24,393.57Z"
        fill="#1f1a18" />
  <path d="M299.52,351.67c0,15.48-7,5.47-14.75,13.36-2.29,2.36-12.77,12.7-16,12.7h-6.66c-4,0-5.91-4.37-8.41-7-1.62-1.62-8.64-5.55-8.84-6.37-4.22,0-5.9,2-10.71,2h-1.47c-3.57,0-7.32-9.84-5.13-13.11,1.44-2.25,9.28-7.23,11.8-8.85,0-13.68,2.38-34.82,3.94-48.18,1.22-10.31,1.1-13.12,4.49-21.63,1-2.51,7.65-18.11,7.65-18.46v-2l4.71-.29h3.37l5.89.2c2.19,3.28,4.31,18.91,7.14,25,3.28,7.13,2.29,18.59,3.8,26.92,1.36,7.51.58,24.12,2.94,29,3.28,6.56,16,10.37,16,16.71Z"
        fill="#fff" />
  <path d="M408.52,182.5c0-.38,1-1.47,1.33-2l-1.56-10.65-30.51-2.26-9.38.23a30.46,30.46,0,0,0-8.85,3.33c-6.86,0-31.4-.17-38.33,1.09-3.39.62-13.32-.53-19,.39a70.76,70.76,0,0,1-17.49,1.2h-7.33c-6.08,0-11.82.68-16.69.68a68.71,68.71,0,0,0-8.61,0c-1.62.33-3.81,1.89-6.13,1.89v.8l-142.5-8.44,0,.08,1.42.49-1.56,7.87,2.38-4.73h1.22c-.63,7.56-5.72,23.6-4,33.44l4,26.1v4c3.21,0,14.56-.64,16.47-.94,3.75-.66,13.57.94,18.28.94,13.92-.06,25.8,1.32,38.15,1.32,10.91-.05,25.42,1.27,34.79,1.95,5.19.38,29.55,1.15,32,.74l10-1.59,8.07.26,6.7.66h7.36l85.51-7.82c8.84-1,36.59-.15,45.43-2.19V228c-1.32-.35-2.21-.21-2-2l1.56-15.36-.2-4.72h1.32V221.4h.76l.71-5.47V199.22C411.88,196.47,408.52,186.42,408.52,182.5Zm-198.26,8.55a239.77,239.77,0,0,1,29.12-.26,201,201,0,0,0,39.51-2.5c11.43-2.13,17.75.54,32.2.81s26.05,1.92,29.67,2.19l-.1-.06.12.06c4,2.24,2.38,5-.66,5.51s-8.26-.59-22.19-1.39-19.2-1.92-32.8-2.18-18.6,2.51-36.65,2.51a235.66,235.66,0,0,0-34.41,1.95c-13.25,1.41-19.39,1.11-20.77-1.1S201.41,191.88,210.26,191.05Zm113,30.79c-.41,1.65-1.12,1.68-12.21,1.38s-20.49-.29-35.79-.55a276.21,276.21,0,0,0-40.24,2.5c-15,1.65-28.32,6.1-35.24,6.1s-.84-2.68,3.61-4.45,12.2-2.52,20-4.71l.06.12a142.33,142.33,0,0,0,18.87-1.95,246.19,246.19,0,0,1,28.87-1.09c10.2-.29,28.5,0,41.27-.29S323.64,220.19,323.22,221.84Zm24.67-10.05s-15,.5-24.15,0-16.36-1.9-27.18-3.28-19.21,0-30.82.57-31.07,2.57-45.78,2.83-35.52,6.07-43,6.36-8.32-1.18-8.32-3.59,8.61-1.69,18.87-3,19.46-1.55,28.3-2.94,32-3,44.22-3.87l-.1,0s16.65-.85,24.71-.85,17.19,1.12,26.36,1.68,27,2.5,34.71,2.5S347.89,211.79,347.89,211.79Z"
        fill="#fff" />
  <path d="M393,328.44A47.53,47.53,0,0,1,380.45,338c-8.87,4.43-24.5,5.9-36.76,5.9-8,0-21.67-5.28-26.9-8.56-7.93-5-11.89-10.63-15.3-20.12-2.8-7.68-7.58-18.23-9.84-25.63-1.51-4.86-7.58-22.2-10.86-23.94a11.75,11.75,0,0,0-6.69-8.84l-.06-.06c0,10.18,7.61,26.74,9.23,37.6,1.14,7.69.62,14.06,2.09,21.31a149.65,149.65,0,0,1,2.75,20c3.68,2.48,5.74,5.4,9.33,8.05,5.58,4.13,3.25,5.16,6.67,10a119.09,119.09,0,0,1,7.4,9.35,73.08,73.08,0,0,0,7.34,9.38c-.94,1.41-1.44,3.33-3.36,3.33-.53,0-9-15.63-14-16.05l-2.19,3.87-1.77.15c-8.69,0-8.78,1.59-12.85,5.9-1.63,1.65-7,8.66-7.19,10.84-6.46.16-12.59,4.1-19.28.56-4.52-2.41-7.11-11.26-12.83-11.26h-3.21c-17.22,0-13,2.07-19.41-11.35-5.16,3.57-6,10.32-9.37,15.36,0,7.87-7.52,25.8-8.61,34.17-1.86,14.74-8.19,24.59,4.6,31.37l-2.5,2.95c-11.47-7.72-9-10.59-6.31-25.71,2-11.25,3.32-19.46,6.28-29.83,2.09-7.76,6-20,10.37-25.72,2.63-3.38,4.56-7.69,7.65-10.4,1.71-1.48,9-6.61,11.26-6.78,0-6.22,2-10.65,2-15.39a143.9,143.9,0,0,1,1.59-15.78c1.85-11.08-2.27-22.57,2.94-30.36-1.29-6.12,6.7-15,6.7-24-5.48.47-16.48,24.44-19.16,30.34A308.9,308.9,0,0,1,213.93,321c-6.9,11.14-15.51,15.4-33.43,15.4-16.31,0-29.48,1.23-46.26,1.58a26.47,26.47,0,0,1-12-4.66c0,12.48,10.06,35.36,15.24,43.61,3.48,5.57,8.22,11.47,12,17.36a32.48,32.48,0,0,1,6.83,21.95c3.39,5,7.61,17.21,12.68,20.62-.71,3.37,3.44,7.91,5.63,11.09,1.77,2.39,4.51,8.84,5.89,11.65,2.31,4.66,9.35,18.69,12.3,22.49,4.31,5.91,41.23,17,53.25,17,1.21.82,1.17,1.35,2.65,1.35h6.72v2l8.67,1.6,10.06-.26c4.68,0,29.77-8.23,34.79-10,5.47-1.94,10.91-4.57,15.88-6.16,3.21-1.1,12.82-7.13,14.21-6.56l1.66-2.31-.35-2.94c1.39-2.66,3.19-5.61,4.84-8.55,1.94-3.49,1.26-7.85,5.22-8.17.2-2.62,9.17-18,11-21.11s4.8-7.76,5.89-10.23c2.3-4.92.33-10.14,5.25-10.14,0-8.69,5.89-9.14,5.89-18.72a58.64,58.64,0,0,0,3.37-8v-2l-2.19-1.1c2.54-3.68,15.54-34.17,15.54-39.07L402,328.82l2.39-12.18C401.67,318.18,395.78,325.67,393,328.44Zm-221,81.26c-.76,3.33-1.86.94-2.95-2a21.13,21.13,0,0,1-1.59-9.84,70.61,70.61,0,0,0-.36-12.42c-.4-2.84.07-3.4,3.75-4.37l-.08.06a13.16,13.16,0,0,1,.67,4c-.05,1.84-.19,4.3-.26,8.4S172.83,406.36,172.06,409.7ZM189.27,458c-1.39,0-5.42-10.38-6.37-12.36a31.23,31.23,0,0,1-3.66-15.06l-.35-2,5-51.06c5.21,1.3,2,27.45,1.26,33.5-.65,5.35-1.21,11.69-1.92,16.8-.8,5.89,2.57,12.06,1.27,14.73a80.18,80.18,0,0,1,6.81,14.16C191.27,457.56,190.66,458,189.27,458ZM194,414.41c-1.94,6.1-3.59,6.52-3.89,2.62a34.61,34.61,0,0,1,1.95-13c1.43-3.47,3.79-14.85,6.56-18.87l0,0c3.18-1.79,3.63,1.53,3.63,2.36s-2.07,6.32-4,12.21S196,408.31,194,414.41Zm110.34-36.54h1.88c.62,2.12,2.8,4.63,3.9,8.17.95,3.09,2.13,6.76,2.65,9.38,1.22,5.95,4.16,14,4.16,19.9V418l-2.65.77v-2.1c0-2.29-1.33-6.84-3.33-7.37v3.36l-.77,5.9h-1.86a35.08,35.08,0,0,1-.67-4.69v-.67l.2-5.34v-4.69c0-9.29-2.27-14.8-4.25-23.38ZM299,382.5l0-.15a13.29,13.29,0,0,1,2.18,4.25c.36,1.71,1.59,7.43,2.71,12.65s1.61,18.65.78,19.18-2.69.1-2.57-3.42-.24-6.9-.3-11.17-2.76-9.49-4.57-15.21S298.45,382.5,299,382.5ZM293.12,384l.08,0a18.24,18.24,0,0,1,1.69,4.65c.05,1.48,2,15.89,2.67,19.17s2.31,10.14,1.6,11.12-1.47,1.59-2.19.2A44.55,44.55,0,0,1,294,407.05c-.32-4.57-2.37-15.06-2.51-17.69S291.52,384.53,293.12,384Zm-6.31-.15,0,.07c1.53-.92,3.23,4.59,3.38,7.16s.72,11.41,1.39,17.3a19.88,19.88,0,0,1-2.18,11.23c-.42.86-2,1.21-1.81.42s-.92-7.84-.71-11.8a136.27,136.27,0,0,0-.88-16.65C285.54,388.42,285.83,384.24,286.81,383.82Zm-6.19,1.68.09-.06c.88-.35,2.18,1.08,2.45,3.07s1.67,14.73,1.58,19.68S284.1,419,282.65,419s-1.44-.58-1.44-2.94v-9.22a131.25,131.25,0,0,0-2.45-18C278.14,386.32,278.67,385.92,280.62,385.5ZM273.89,390a2.31,2.31,0,0,1,2.18-1.55q.53,2.87.79,5.76c.21,2.81,2.21,15.07,2.12,18.58s-1.64,4-2.38,3.51-.86-3.53-1.1-5.3-.76-11.06-1.23-13.57A21.84,21.84,0,0,1,273.89,390Zm-4.73,6.2c.42-4.66.16-7.23,1.45-8.5v0c1.26-.26,1.53,4.58,1.68,6.9s.49,15.55.56,19.68-1,7.08-2,7.08-1.35-2.57-1.27-6.56S268.75,400.86,269.16,396.21Zm-9,6.28c0-2.48,2-6.69,2-12L262,388.4h2c1.53,0,2,.47,2,2v2l-2,21.4L261,415.37l-.89-7.49Zm-8.91-17.18.24-.12v.07l4.4-.84-.68,3.49c3.95.77,2.92,2.47,4.71,5.89l-.76-.17-1.57,7.45-.88,1.53V415.2c-1.92.45-1.15.67-2.68.67-2.22,0,1.32-23.43,1.32-27.41l-.8-.18-5.92,25.39.8.2h-3.3v-4c0-10.42,5.32-18.94,5.36-24.6Zm-7.15,2.17,0-.28c1.67.33,2.09,1.07,2.09,2.95s-2.64,14.18-3,16.63-1.26,11.78-1.7,13.17a1.5,1.5,0,0,1-.26.44h0a1.73,1.73,0,0,1-2.44.24c-.26-.52.61-4.57.61-6.13s2-19.3,2.54-22.64S242.63,388.18,244.07,387.48Zm-5.33-3c1.27-.5,2.51-.31,2.18,1.36s-2.91,13.44-3.8,16.39-3.4,16.31-3.84,17.69-3.52,2-2.95.21,4.9-23.42,5.9-26.79.53-6.14,2.54-8.85Zm-9.81.36c.58-3.61.37-2.18,2.13-2.92l.06,0c.62-.23,2.11-.28,2.32.48s.94,1.86-.92,5.75-.45,8.52-1.86,14.12-2.26,17-2.94,20.9-1.45,2.83-2.07,2.24-.33-5.36,0-8.84S228.34,388.53,228.93,384.88Zm-16.34,38.38h-2.68v-3.37l2-14.74c-1.93,1.47-4.67,11.23-4.67,14.74v2h-2v0a74.43,74.43,0,0,1,4.05-24c1-3.16,2.24-7,3.59-10.44,1.19-2.86,4-7.88,4.37-9.7l4,4.66.68-.56c-1.27,5.68-4.93,13-5.9,19.46C214.77,408.77,213.27,415,212.59,423.26Zm5.56-5.18c-1.68-.12-1.68-1.12-1.68-2.71a23.52,23.52,0,0,1,1.09-6.39A214.39,214.39,0,0,1,223,387c2.18-5.48,1.66-3,3.28-3.13l0,.06c2.15-.61,1.06,2.55.12,4.38s-2,8.84-3.34,11.79A48.12,48.12,0,0,0,221,410.43C220.07,415.13,219.84,418.2,218.15,418.08Zm108.11,11.78-1.92-1.42v.88l-98.29,3.49-6.17,5.63-.56-.57c0-6.92,1.69-4.5,4.05-8v-.68l66.24-3.28,4,.63,30.61-2.69c.33,0,1.51,1,2,1.39Zm9.4-14.82c-5.72,1.33-2-3-5.36-8,0-4.76-2.87-12.94-5.34-14.75,0,6.29,4,12,4,18.07v2l-2.64.73-2.24-8.22c-.42,4.71,2.24,12.14-1.1,12.14s-.38-1.42-3.33-2.65l-2.09-15.95h.73c-1.55-.63-6.69-13.86-6.69-16h.21c0-1.25,1.53-1.72,2.68-2l2.95,4.86-.26-.71,2.59-2.7.47.54.85,3.27h1.18V383c5.28.44,13.39,22.9,13.39,30.07Zm8.52,36.51c-1,6.65-3.45,4.76-2.48,2.38s.88-14.18.41-22.64-6.95-43.73-9.31-47.17-2.5-5.13,0-5.39h.14s4.48,3.32,9.73,18.71S345.15,444.89,344.18,451.55Zm7.84-38c.12-1.25.43-9.48.27-13.6s-2.1-4.89-1.8-7.08l-.09-.14c3.6-4.16,4.92,8.87,5.63,16.09S351.9,414.79,352,413.55Zm7.37-18.61c-.58-5-.74-3.75,1.09-6.1l-.17-.14c.23.14,2,1.41,2,6C362.34,399.54,360,400,359.39,394.94Z"
        fill="#fff" /></svg>