<svg xmlns="http://www.w3.org/2000/svg" xmlns:xlink="http://www.w3.org/1999/xlink" width="179.5" height="106"
  viewBox="0 0 179.5 106">
  <defs>
    <linearGradient id="a" x1="0.25" y1="0.25" x2="52.75" y2="52.75" gradientUnits="userSpaceOnUse">
      <stop offset="0" stop-color="#15453d" />
      <stop offset="1" stop-color="#006c24" />
    </linearGradient>
    <linearGradient id="b" x1="105.75" y1="764.11" x2="53.25" y2="711.61" gradientTransform="translate(0 -658.36)"
      xlink:href="#a" />
  </defs>
  <rect x="0.25" y="0.25" width="52.5" height="52.5" fill="url(#a)" />
  <path d="M52.5.5v52H.5V.5h52M53,0H0V53H53V0Z" fill="#072508" />
  <path
    d="M6.94,11.69H20.87c4.87,0,8.76,2.46,8.76,7.36a5.65,5.65,0,0,1-5,6v.1A7,7,0,0,1,31,32.45c0,7.41-5.27,8.86-11.42,8.86H6.94Zm5.57,11.9h6.61c2.46,0,4.7-1,4.7-3.79,0-2.24-1.45-3.7-4.7-3.7H12.51Zm0,12.8h7.24c3.37,0,5.4-1,5.4-4.12,0-3.33-2.08-4.53-5.45-4.53H12.51Z"
    fill="#fff" />
  <path d="M34.41,20.26h5.08v2.89h.08c1.21-2.41,3.54-3.41,6.49-3.41V24.9c-3.45,0-6.57,1.61-6.57,6.18V41.29H34.41Z"
    fill="#fff" />
  <rect x="53.25" y="53.25" width="52.5" height="52.5" fill="url(#b)" />
  <path d="M105.5,53.5v52h-52v-52h52m.5-.5H53v53h53V53Z" fill="#072508" />
  <path
    d="M56.55,66.28H70.48c4.86,0,8.77,2.46,8.77,7.36a5.67,5.67,0,0,1-5,6v.09A7.05,7.05,0,0,1,80.61,87c0,7.41-5.28,8.86-11.43,8.86H56.55Zm5.57,11.9h6.61c2.45,0,4.7-1,4.7-3.79,0-2.24-1.46-3.7-4.7-3.7H62.12Zm0,12.8h7.23c3.37,0,5.41-1,5.41-4.11,0-3.33-2.08-4.53-5.45-4.53H62.12Z"
    fill="#fff" />
  <path
    d="M101.67,92.36a6.14,6.14,0,0,0,.78,3.53H97.09a4,4,0,0,1-.5-1.91,10.64,10.64,0,0,1-6.86,2.41c-4,0-7.15-2.54-7.15-6.61s3.28-6,6.4-6.57l2.12-.42a54.43,54.43,0,0,0,5.49-1.24v-.63c0-2.08-1.79-2.66-4-2.66-3,0-3.91.87-3.91,3.16l-5.07-.21c0-4.95,4.36-6.86,9-6.86s9.07.92,9.07,6.9V92.36Zm-5.08-7a9.36,9.36,0,0,1-2.41.75l-2.79.58c-1.91.38-3.49.92-3.49,2.91,0,1.58,1.45,2.62,3.29,2.62,2.37,0,5.4-1.16,5.4-3.86Z"
    fill="#fff" />
  <path
    d="M41.62,7.21h.44c.44,0,.79-.21.79-.68a.73.73,0,0,0-.65-.82h-.15c-.61,0-.81.54-.85,1L40,6.5a2,2,0,0,1,2.13-1.79A1.68,1.68,0,0,1,44,6.17a.81.81,0,0,1,0,.16,1.19,1.19,0,0,1-1,1.28h0A1.41,1.41,0,0,1,44.19,9.1c0,1.26-1,1.86-2.19,1.86a1.88,1.88,0,0,1-2.09-1.64,2,2,0,0,1,0-.42H41A1,1,0,0,0,42,10H42A.89.89,0,0,0,43,9.16a.37.37,0,0,0,0-.11.8.8,0,0,0-.71-.9h-.62Z"
    fill="#fff" />
  <path
    d="M45.49,4.82h3.39l-.12,1H46.38l-.19,1.32a1.6,1.6,0,0,1,1.09-.43,1.85,1.85,0,0,1,1.91,1.8,1.22,1.22,0,0,1,0,.27,2.1,2.1,0,0,1-2,2.2h-.26a1.87,1.87,0,0,1-2.09-1.6c0-.06,0-.12,0-.18l1.25-.1a.88.88,0,0,0,.84.93h0c.73,0,1-.62,1-1.25,0-.8-.41-1.14-1-1.14a.86.86,0,0,0-.86.58l-1-.08Z"
    fill="#fff" />
  <path
    d="M93.6,57.7H97l-.11,1H94.49L94.31,60a1.71,1.71,0,0,1,1.08-.42,1.86,1.86,0,0,1,1.92,1.8,1.22,1.22,0,0,1,0,.27,2.1,2.1,0,0,1-2,2.21h-.26A1.85,1.85,0,0,1,93,62.22a1.11,1.11,0,0,1,0-.19l1.24-.1a.89.89,0,0,0,.84.94h0c.73,0,1-.62,1-1.25,0-.8-.41-1.14-1-1.14a.88.88,0,0,0-.87.58l-1-.08Z"
    fill="#fff" />
  <path
    d="M101,59.28a.69.69,0,0,0-.69-.69h0c-.86,0-1.06,1.13-1.06,1.84h0a1.39,1.39,0,0,1,1.18-.56,1.78,1.78,0,0,1,1.81,1.74,2.11,2.11,0,0,1,0,.26,1.94,1.94,0,0,1-1.88,2h-.12c-1.76,0-2.16-1.57-2.16-3,0-1.92.74-3.29,2.26-3.29a1.73,1.73,0,0,1,1.86,1.54Zm-1.69,2.59c0,.62.31,1,.88,1s.88-.37.88-1-.31-1-.88-1S99.29,61.24,99.29,61.87Z"
    fill="#fff" />
  <path
    d="M62.43,30.32c-1.44,0-1.6,0-1.6,1.15a6.4,6.4,0,0,0,6.4,6.36,7.26,7.26,0,0,0,4.26-1.39c.94-.66,1.56-1.44,2.38-1.44a1,1,0,0,1,1.07.93V36c0,.61-.66,1.64-1.93,2.66a10.61,10.61,0,0,1-7.18,2.8A10.26,10.26,0,0,1,55.49,31.29v-.35c0-6.52,4.52-11.19,10.88-11.19,5.37,0,8.74,3.28,8.74,8.48,0,1.93-.49,2.09-2.34,2.09Zm6.65-2.38c1,0,1.31-.12,1.31-.78a4.64,4.64,0,0,0-4.56-4.75.67.67,0,0,0-.2,0A4.56,4.56,0,0,0,61,27v.2c0,.66.29.78,1.28.78Z"
    fill="#fff" />
  <path
    d="M95.49,37.67c1.23.37,2,.37,2,1.23,0,1.23-2,2.63-4.68,2.63-1.56,0-2.63-2.18-3-2.18-.65,0-2.46,2.18-6.11,2.18-4.06,0-6.81-2.59-6.81-6.41,0-4.39,3.28-7.09,9.19-7.09a28.27,28.27,0,0,1,3.9.36v-2.2c0-2.46-1.11-3.82-3.08-3.82a4.62,4.62,0,0,0-3.61,1.85c-.86,1-1.4,2.12-3.12,2.12a1.75,1.75,0,0,1-1.82-1.71,1.31,1.31,0,0,1,0-.28c0-2.38,3.16-4.63,8.66-4.63,3.16,0,5.38.86,6.57,2.38,1.07,1.35,1.15,3.4,1.15,6.35v6.73C94.64,36.64,94.84,37.5,95.49,37.67Zm-8.62-7c-3,0-4.76,1.44-4.76,3.78,0,2.17,1.52,3.65,4,3.65,2.83,0,3.78-1.19,3.78-4v-3a14.89,14.89,0,0,0-3-.38Z"
    fill="#fff" />
  <path
    d="M105.74,26.92c0,.86,0,1.27.41,1.27a7.75,7.75,0,0,0,2.34-1.72c1.68-1.55,2.62-2.5,2.62-3s-1.56-.49-1.56-1.64c0-1.4,1.69-1.68,5.17-1.68,2.55,0,3.82.49,3.82,1.56,0,1.6-2,1.1-3.69,2.13A18,18,0,0,0,112,26.42c-.58.58-.91.95-.91,1.2,0,.41.74,1.35,2,3.07a43.49,43.49,0,0,0,5.87,6.69c1.4,1,3.2.66,3.2,2s-1.31,1.69-4.18,1.69a8.28,8.28,0,0,1-2.22-.21c-1.15-.41-2.09-1.89-3.77-4-3.61-4.6-5.5-7-5.91-7s-.41.33-.41,1.11v.9c0,3.45.08,5.42.57,6s2.14.45,2.14,1.76-1.52,1.48-4.81,1.48c-3.65,0-5.21-.21-5.21-1.6,0-1,.86-1,1.56-1.32.86-.49,1-2,1-4.76V25.08c0-6.11,0-8.46-.58-9.08-.33-.37-1-.45-1.89-.74-.65-.2-.94-.37-.94-1,0-.86.78-1.19,2.3-1.72a16.8,16.8,0,0,1,5-1.07c.91,0,1.15.53,1.15,1.76,0,2.18-.24,4.36-.24,8.47v5.24Z"
    fill="#fff" />
  <path
    d="M130.57,34.26c0,2.22.12,3.49.82,3.86.94.53,1.84.41,1.84,1.52s-1.48,1.48-4.76,1.48c-3.65,0-5.25-.21-5.25-1.61,0-.94.86-.94,1.56-1.31s1-1.48,1-3.28V29.67c0-3.37,0-5.12-.74-5.49-1-.54-2.25-.45-2.25-1.48,0-.66.57-1.11,1.68-1.56a19.15,19.15,0,0,1,5.37-1.39c.83,0,1.07.57,1.07,1.76v2.18L130.75,29C130.61,30.82,130.57,32.58,130.57,34.26Zm-2.71-22.18c1.88,0,3.16,1.19,3.16,2.67s-1.4,2.75-3.41,2.75c-1.85,0-3.12-1.11-3.12-2.55A3.15,3.15,0,0,1,127.86,12.08Z"
    fill="#fff" />
  <path
    d="M148.55,19.75a7,7,0,0,1,5.25,2.42c1.64,2,1.77,4.38,1.77,7.66v5.38c0,1.64.12,2.54.94,3s1.56.37,1.56,1.32c0,1.39-1.56,1.55-5.13,1.55-3.36,0-4.92-.2-4.92-1.43s.9-1,1.84-1.52c.74-.41.86-1.81.86-4.35,0-6.61-.08-10-3.89-10a4.22,4.22,0,0,0-3.7,2.45c-.78,1.56-.82,4.31-.82,8.29,0,2,0,3.2.78,3.61.95.53,1.85.41,1.85,1.52s-1.48,1.48-4.76,1.48c-3.65,0-5.26-.21-5.26-1.6,0-1,.87-1,1.56-1.32s1-1.47,1-3.28V29.67c0-3.37,0-5.12-.74-5.49-1-.54-2.26-.45-2.26-1.48,0-.66.58-1.11,1.68-1.56a18.18,18.18,0,0,1,5.18-1.31c.77,0,1.1.37,1.1,1.31v1.4c0,.16,0,.24.17.24a.5.5,0,0,0,.2-.08l.5-.45C144.49,21.14,145.55,19.75,148.55,19.75Z"
    fill="#fff" />
  <path
    d="M159.63,27.66c0-4.51,3.77-7.91,9.07-7.91a25.46,25.46,0,0,1,5.41.82c1.11,0,2.3-.58,3.9-1.69a1.72,1.72,0,0,1,.91,1.36c0,1.15-.87,2.3-2.55,3.16a7.06,7.06,0,0,1,.86,3.39c0,4.52-3.61,7.8-9.19,7.8a11.88,11.88,0,0,1-4.18-.66,2.56,2.56,0,0,0-.87,1.65c0,1.35,1.36,1.92,4.07,1.92,2.09,0,4.22-.45,6.44-.45,3.9,0,6,1.64,6,4.56,0,4.27-4.6,7.75-11.57,7.75-5.66,0-9.28-2.7-9.28-5.54,0-1.51,1-2.54,3-3.73A3.28,3.28,0,0,1,159.1,37c0-1.43,1-2.79,3-4A6.67,6.67,0,0,1,159.63,27.66Zm3.53,15.75c0,1.85,2,3.25,5.54,3.25,3.94,0,6.48-1.77,6.48-3.74,0-1.31-.94-2.09-2.75-2.09-1.27,0-3.16.41-5.58.41a19.25,19.25,0,0,1-2.63-.16A3,3,0,0,0,163.16,43.41Zm5.17-11.53c2.34,0,4.1-1.89,4.1-4.72s-1.72-4.79-4.06-4.79c-2.13,0-3.86,1.93-3.86,4.75S166.11,31.88,168.33,31.88Z"
    fill="#fff" />
  <path
    d="M124.34,93.78c0-.37-.09-.54-.17-.54a15.65,15.65,0,0,0-1.56,1.15,8.08,8.08,0,0,1-4.92,1.81c-5.09,0-8.82-4-8.82-10.14,0-6.81,4.18-11.49,10.09-11.49a12.57,12.57,0,0,1,5,1.23c.24,0,.28-.36.28-1V73.29c0-1.88-.24-2.5-1.31-2.87s-1.85-.33-1.85-1.27.87-1.32,2.59-1.93a12.79,12.79,0,0,1,4.27-.9c.94,0,1.31.49,1.31,1.72,0,.7-.25,4.36-.25,13,0,7,0,10.58.62,11,.9.66,2.54.25,2.54,1.48,0,1-1.11,1.31-3.24,2a13.08,13.08,0,0,1-3.45.66c-.78,0-1.1-.41-1.1-1.36Zm-.21-12.61a4.11,4.11,0,0,0-.41-2.46,5.81,5.81,0,0,0-4.43-2.09c-3,0-5.09,2.58-5.09,7.09,0,4.89,2.38,7.92,5.38,7.92s4.55-1.6,4.55-4.76Z"
    fill="#fff" />
</svg>