<?xml version="1.0" encoding="utf-8"?>
<!-- Generator: Adobe Illustrator 24.3.0, SVG Export Plug-In . SVG Version: 6.00 Build 0)  -->
<svg version="1.1" id="Layer_1" xmlns="http://www.w3.org/2000/svg" xmlns:xlink="http://www.w3.org/1999/xlink" x="0px"
  y="0px" viewBox="0 0 179.5 106" style="enable-background:new 0 0 179.5 106;" xml:space="preserve">
  <style type="text/css">
    .st0 {
      fill: url(#SVGID_1_);
    }

    .st1 {
      fill: #072508;
    }

    .st2 {
      fill: #FFFFFF;
    }

    .st3 {
      fill: url(#SVGID_2_);
    }
  </style>
  <g>
    <g>
      <linearGradient id="SVGID_1_" gradientUnits="userSpaceOnUse" x1="7.929888e-04" y1="9.896181e-02" x2="52.6443"
        y2="52.7523">
        <stop offset="0" style="stop-color:#15453D" />
        <stop offset="1" style="stop-color:#006C24" />
      </linearGradient>
      <rect x="0" y="0.1" class="st0" width="52.6" height="52.6" />
      <path class="st1" d="M52.4,0.4v52.1H0.2V0.4H52.4 M52.9-0.1H-0.3V53h53.1V-0.1L52.9-0.1z" />
    </g>
    <g>
      <path class="st2" d="M6.7,11.6h14c4.9,0,8.8,2.5,8.8,7.4c0.2,3-2,5.7-5,6v0.1c3.7,0.4,6.5,3.6,6.4,7.3c0,7.4-5.3,8.9-11.5,8.9H6.7
			V11.6z M12.3,23.5h6.6c2.5,0,4.7-1,4.7-3.8c0-2.2-1.5-3.7-4.7-3.7h-6.6V23.5z M12.3,36.3h7.3c3.4,0,5.4-1,5.4-4.1
			c0-3.3-2.1-4.5-5.5-4.5h-7.2V36.3z" />
      <path class="st2" d="M34.3,20.2h5.1v2.9h0.1c1.2-2.4,3.5-3.4,6.5-3.4v5.2c-3.5,0-6.6,1.6-6.6,6.2v10.2h-5.1V20.2z" />
    </g>
    <g>
      <g>

        <linearGradient id="SVGID_2_" gradientUnits="userSpaceOnUse" x1="105.7953" y1="764.2587" x2="53.1466"
          y2="711.61" gradientTransform="matrix(1 0 0 1 0 -658.36)">
          <stop offset="0" style="stop-color:#15453D" />
          <stop offset="1" style="stop-color:#006C24" />
        </linearGradient>
        <rect x="53.1" y="53.2" class="st3" width="52.6" height="52.6" />
        <path class="st1" d="M105.5,53.5v52.1H53.4V53.5H105.5 M106,53H52.9v53.1H106V53L106,53z" />
      </g>
      <g>
        <g>
          <path class="st2" d="M56.5,66.3h14c4.9,0,8.8,2.5,8.8,7.4c0.2,3-2,5.7-5,6v0.1c3.7,0.4,6.5,3.6,6.4,7.3c0,7.4-5.3,8.9-11.5,8.9
					H56.5V66.3z M62,78.2h6.6c2.5,0,4.7-1,4.7-3.8c0-2.2-1.5-3.7-4.7-3.7H62V78.2z M62,91.1h7.2c3.4,0,5.4-1,5.4-4.1
					c0-3.3-2.1-4.5-5.5-4.5H62V91.1z" />
          <path class="st2" d="M101.7,92.5c-0.1,1.2,0.2,2.5,0.8,3.5h-5.4c-0.3-0.6-0.5-1.2-0.5-1.9c-1.9,1.6-4.4,2.4-6.9,2.4
					c-4,0-7.2-2.5-7.2-6.6s3.3-6,6.4-6.6l2.1-0.4c1.9-0.3,3.7-0.7,5.5-1.2V81c0-2.1-1.8-2.7-4-2.7c-3,0-3.9,0.9-3.9,3.2l-5.1-0.2
					c0-5,4.4-6.9,9-6.9s9.1,0.9,9.1,6.9L101.7,92.5L101.7,92.5z M96.6,85.4c-0.8,0.4-1.6,0.6-2.4,0.8l-2.8,0.6
					c-1.9,0.4-3.5,0.9-3.5,2.9c0,1.6,1.5,2.6,3.3,2.6c2.4,0,5.4-1.2,5.4-3.9C96.6,88.5,96.6,85.4,96.6,85.4z" />
        </g>
      </g>
      <g>
        <g>
          <path class="st2" d="M41.5,7.1h0.4c0.4,0,0.8-0.2,0.8-0.7c0-0.4-0.2-0.8-0.7-0.8c0,0-0.1,0-0.1,0c-0.6,0-0.8,0.5-0.9,1l-1.2-0.2
					C40,5.3,40.9,4.5,42,4.6c0.9-0.1,1.8,0.5,1.9,1.5c0,0.1,0,0.1,0,0.2c0.1,0.6-0.4,1.2-1,1.3l0,0c0.7,0.1,1.2,0.8,1.2,1.5
					c0,1.3-1,1.9-2.2,1.9c-1,0.1-2-0.6-2.1-1.6c0-0.1,0-0.3,0-0.4h1.1c0,0.6,0.4,1,0.9,1.1c0,0,0.1,0,0.1,0c0.5,0,0.9-0.3,0.9-0.8
					c0,0,0-0.1,0-0.1c0.1-0.4-0.3-0.8-0.7-0.9c-0.1,0-0.1,0-0.2,0h-0.4V7.1z" />
          <path class="st2" d="M45.4,4.7h3.4l-0.1,1h-2.4L46.1,7c0.3-0.3,0.7-0.4,1.1-0.4c1,0,1.9,0.8,1.9,1.8c0,0.1,0,0.2,0,0.3
					c0.1,1.2-0.8,2.2-2,2.2c-0.1,0-0.2,0-0.3,0c-1,0.1-2-0.6-2.1-1.6c0-0.1,0-0.1,0-0.2L46,9c0,0.5,0.3,0.9,0.8,0.9c0,0,0,0,0,0
					c0.7,0,1-0.6,1-1.3c0-0.8-0.4-1.1-1-1.1c-0.4,0-0.7,0.2-0.9,0.6L45,8L45.4,4.7z" />
        </g>
        <g>
          <path class="st2" d="M93.6,57.7H97l-0.1,1h-2.4L94.3,60c0.3-0.3,0.7-0.4,1.1-0.4c1,0,1.9,0.8,1.9,1.8c0,0.1,0,0.2,0,0.3
					c0.1,1.2-0.8,2.2-2,2.2c-0.1,0-0.2,0-0.3,0c-1,0.1-2-0.6-2.1-1.6c0-0.1,0-0.1,0-0.2l1.2-0.1c0,0.5,0.3,0.9,0.8,0.9c0,0,0,0,0,0
					c0.7,0,1-0.6,1-1.3c0-0.8-0.4-1.1-1-1.1c-0.4,0-0.7,0.2-0.9,0.6l-1-0.1L93.6,57.7z" />
          <path class="st2" d="M101,59.3c0-0.4-0.3-0.7-0.7-0.7c0,0,0,0,0,0c-0.9,0-1.1,1.1-1.1,1.8l0,0c0.3-0.4,0.7-0.6,1.2-0.6
					c1,0,1.8,0.8,1.8,1.7c0,0.1,0,0.2,0,0.3c0,1.1-0.8,2-1.9,2c0,0-0.1,0-0.1,0c-1.8,0-2.2-1.6-2.2-3c0-1.9,0.7-3.3,2.3-3.3
					c0.9-0.1,1.8,0.6,1.9,1.5L101,59.3z M99.3,61.9c0,0.6,0.3,1,0.9,1c0.6,0,0.9-0.4,0.9-1s-0.3-1-0.9-1
					C99.6,60.9,99.3,61.3,99.3,61.9z" />
        </g>
      </g>
      <g>
        <path class="st2" d="M62.4,30.3c-1.4,0-1.6,0-1.6,1.2c0,3.5,2.9,6.4,6.4,6.4c1.5,0,3-0.5,4.3-1.4c0.9-0.7,1.6-1.4,2.4-1.4
				c0.6,0,1,0.4,1.1,0.9c0,0,0,0,0,0.1c0,0.6-0.7,1.6-1.9,2.7c-2,1.8-4.5,2.8-7.2,2.8c-5.7,0-10.3-4.5-10.4-10.2c0-0.1,0-0.2,0-0.3
				c0-6.5,4.5-11.2,10.9-11.2c5.4,0,8.8,3.3,8.8,8.5c0,1.9-0.5,2.1-2.3,2.1C72.7,30.3,62.4,30.3,62.4,30.3z M69,27.9
				c1,0,1.3-0.1,1.3-0.8c0.1-2.6-2-4.7-4.6-4.8c-0.1,0-0.1,0-0.2,0c-2.5,0-4.6,2-4.6,4.6c0,0.1,0,0.1,0,0.2c0,0.7,0.3,0.8,1.3,0.8
				H69z" />
        <path class="st2" d="M95.5,37.6c1.2,0.4,2,0.4,2,1.2c0,1.2-2,2.6-4.7,2.6c-1.6,0-2.6-2.2-3-2.2c-0.7,0-2.5,2.2-6.1,2.2
				c-4.1,0-6.8-2.6-6.8-6.4c0-4.4,3.3-7.1,9.2-7.1c1.3,0,2.6,0.1,3.9,0.4v-2.2c0-2.5-1.1-3.8-3.1-3.8c-1.4,0-2.8,0.7-3.6,1.9
				c-0.9,1-1.4,2.1-3.1,2.1c-1,0-1.8-0.7-1.8-1.7c0-0.1,0-0.2,0-0.3c0-2.4,3.2-4.6,8.7-4.6c3.2,0,5.4,0.9,6.6,2.4
				c1.1,1.4,1.2,3.4,1.2,6.4v6.7C94.7,36.6,94.9,37.5,95.5,37.6z M86.9,30.6c-3,0-4.8,1.4-4.8,3.8c0,2.2,1.5,3.7,4,3.7
				c2.8,0,3.8-1.2,3.8-4v-3C88.9,30.8,87.9,30.7,86.9,30.6L86.9,30.6z" />
        <path class="st2" d="M105.8,26.9c0,0.9,0,1.3,0.4,1.3c0.9-0.4,1.7-1,2.3-1.7c1.7-1.6,2.6-2.5,2.6-3c0-0.5-1.6-0.5-1.6-1.6
				c0-1.4,1.7-1.7,5.2-1.7c2.6,0,3.8,0.5,3.8,1.6c0,1.6-2,1.1-3.7,2.1c-1,0.8-2,1.6-2.9,2.6c-0.6,0.6-0.9,1-0.9,1.2
				c0,0.4,0.7,1.4,2,3.1c1.7,2.4,3.7,4.7,5.9,6.7c1.4,1,3.2,0.7,3.2,2c0,1.2-1.3,1.7-4.2,1.7c-0.7,0-1.5,0-2.2-0.2
				c-1.2-0.4-2.1-1.9-3.8-4c-3.6-4.6-5.5-7-5.9-7s-0.4,0.3-0.4,1.1v0.9c0,3.5,0.1,5.4,0.6,6c0.5,0.6,2.1,0.5,2.1,1.8
				s-1.5,1.5-4.8,1.5c-3.7,0-5.2-0.2-5.2-1.6c0-1,0.9-1,1.6-1.3c0.9-0.5,1-2,1-4.8c0-1.6,0-3.4,0-5.8V25c0-6.1,0-8.5-0.6-9.1
				c-0.3-0.4-1-0.5-1.9-0.7c-0.7-0.2-0.9-0.4-0.9-1c0-0.9,0.8-1.2,2.3-1.7c1.6-0.6,3.3-1,5-1.1c0.9,0,1.2,0.5,1.2,1.8
				c0,2.2-0.2,4.4-0.2,8.5L105.8,26.9L105.8,26.9z" />
        <path class="st2" d="M130.7,34.2c0,2.2,0.1,3.5,0.8,3.9c0.9,0.5,1.8,0.4,1.8,1.5s-1.5,1.5-4.8,1.5c-3.7,0-5.3-0.2-5.3-1.6
				c0-0.9,0.9-0.9,1.6-1.3c0.7-0.4,1-1.5,1-3.3c0-0.9,0-1.9,0-3.1v-2.2c0-3.4,0-5.1-0.7-5.5c-1-0.5-2.3-0.5-2.3-1.5
				c0-0.7,0.6-1.1,1.7-1.6c1.7-0.7,3.5-1.2,5.4-1.4c0.8,0,1.1,0.6,1.1,1.8c0,0.5,0,1.3,0,2.2l-0.2,5.3
				C130.7,30.8,130.7,32.5,130.7,34.2z M128,12c1.9,0,3.2,1.2,3.2,2.7s-1.4,2.8-3.4,2.8c-1.9,0-3.1-1.1-3.1-2.6
				C124.7,13.1,126.2,11.8,128,12z" />
        <path class="st2" d="M148.7,19.7c2,0,3.9,0.9,5.3,2.4c1.6,2,1.8,4.4,1.8,7.7v2.8c0,1,0,1.8,0,2.6c0,1.6,0.1,2.5,0.9,3
				c0.8,0.5,1.6,0.4,1.6,1.3c0,1.4-1.6,1.6-5.1,1.6c-3.4,0-4.9-0.2-4.9-1.4c0-1.2,0.9-1,1.8-1.5c0.7-0.4,0.9-1.8,0.9-4.4
				c0-6.6-0.1-10-3.9-10c-1.6,0.1-3,1-3.7,2.5c-0.8,1.6-0.8,4.3-0.8,8.3c0,2.1,0,3.2,0.8,3.6c1,0.5,1.9,0.4,1.9,1.5
				s-1.5,1.5-4.8,1.5c-3.7,0-5.3-0.2-5.3-1.6c0-1,0.9-1,1.6-1.3c0.7-0.3,1-1.5,1-3.3c0-0.9,0-1.9,0-3.1v-2.2c0-3.4,0-5.1-0.7-5.5
				c-1-0.5-2.3-0.5-2.3-1.5c0-0.7,0.6-1.1,1.7-1.6c1.7-0.7,3.4-1.1,5.2-1.3c0.8,0,1.1,0.4,1.1,1.3v1.4c0,0.2,0,0.2,0.2,0.2
				c0.1,0,0.1,0,0.2-0.1l0.5-0.5C144.6,21,145.7,19.7,148.7,19.7z" />
        <path class="st2" d="M159.8,27.6c0-4.5,3.8-7.9,9.1-7.9c1.8,0.1,3.7,0.4,5.4,0.8c1.1,0,2.3-0.6,3.9-1.7c0.5,0.3,0.9,0.8,0.9,1.4
				c0,1.2-0.9,2.3-2.6,3.2c0.6,1,0.9,2.2,0.9,3.4c0,4.5-3.6,7.8-9.2,7.8c-1.4,0-2.8-0.2-4.2-0.7c-0.5,0.4-0.8,1-0.9,1.7
				c0,1.4,1.4,1.9,4.1,1.9c2.1,0,4.2-0.5,6.5-0.5c3.9,0,6,1.6,6,4.6c0,4.3-4.6,7.8-11.6,7.8c-5.7,0-9.3-2.7-9.3-5.6
				c0-1.5,1-2.5,3-3.7c-1.5-0.3-2.5-1.6-2.6-3.1c0-1.4,1-2.8,3-4C160.7,31.6,159.8,29.7,159.8,27.6z M163.4,43.4
				c0,1.9,2,3.3,5.6,3.3c4,0,6.5-1.8,6.5-3.8c0-1.3-0.9-2.1-2.8-2.1c-1.3,0-3.2,0.4-5.6,0.4c-0.9,0-1.8-0.1-2.6-0.2
				C163.7,41.6,163.4,42.5,163.4,43.4z M168.5,31.8c2.3,0,4.1-1.9,4.1-4.7s-1.7-4.8-4.1-4.8c-2.1,0-3.9,1.9-3.9,4.8
				S166.3,31.8,168.5,31.8z" />
      </g>
      <path class="st2"
        d="M124.4,93.9c0-0.4-0.1-0.5-0.2-0.5c-0.5,0.4-1.1,0.7-1.6,1.2c-1.4,1.1-3.1,1.8-4.9,1.8c-5.1,0-8.8-4-8.8-10.2
			c0-6.8,4.2-11.5,10.1-11.5c1.7,0.1,3.4,0.5,5,1.2c0.2,0,0.3-0.4,0.3-1v-1.5c0-1.9-0.2-2.5-1.3-2.9c-1.1-0.4-1.9-0.3-1.9-1.3
			c0-0.9,0.9-1.3,2.6-1.9c1.4-0.5,2.8-0.8,4.3-0.9c0.9,0,1.3,0.5,1.3,1.7c0,0.7-0.3,4.4-0.3,13c0,7,0,10.6,0.6,11
			c0.9,0.7,2.5,0.3,2.5,1.5c0,1-1.1,1.3-3.2,2c-1.1,0.4-2.3,0.6-3.5,0.7c-0.8,0-1.1-0.4-1.1-1.4L124.4,93.9z M124.2,81.3
			c0.1-0.8,0-1.7-0.4-2.5c-1.1-1.3-2.7-2.1-4.4-2.1c-3,0-5.1,2.6-5.1,7.1c0,4.9,2.4,7.9,5.4,7.9s4.6-1.6,4.6-4.8L124.2,81.3z" />
    </g>
  </g>
</svg>