<svg
  xmlns="http://www.w3.org/2000/svg"
  xmlns:xlink="http://www.w3.org/1999/xlink"
  width="221.15"
  height="221.15"
  viewBox="0 0 221.15 221.15"
>
  <defs>
    <linearGradient
      id="a"
      y1="217.72"
      x2="110.57"
      y2="107.14"
      gradientTransform="matrix(1, 0, 0, -1, 0, 217.72)"
      gradientUnits="userSpaceOnUse"
    >
      <stop
        offset="0"
        stop-color="#15453d"
      />
      <stop
        offset="0"
        stop-color="#006c24"
      />
    </linearGradient>
    <linearGradient
      id="b"
      x1="221.15"
      y1="-3.43"
      x2="110.57"
      y2="107.14"
      xlink:href="#a"
    />
  </defs>
  <rect
    width="110.57"
    height="110.57"
    fill="url(#a)"
  />
  <rect
    x="110.57"
    y="110.57"
    width="110.58"
    height="110.58"
    fill="url(#b)"
  />
  <path
    d="M17.44,25.68H46c10,0,18,5,18,15.08,0,6.64-3.65,11-10.3,12.26v.17c8.35.85,13,7.75,13,15,0,15.15-10.82,18.14-23.42,18.14H17.44ZM28.85,50H42.39c5,0,9.63-2,9.63-7.75,0-4.6-3-7.58-9.63-7.58H28.85Zm0,26.23H43.67c6.9,0,11.07-2.13,11.07-8.43,0-6.82-4.26-9.29-11.16-9.29H28.85Z"
    fill="#fff"
  />
  <path
    d="M73.81,43.23H84.2v6h.17c2.47-4.93,7.24-7,13.28-7V52.77c-7.07,0-13.45,3.32-13.45,12.68V86.32H73.81Z"
    fill="#fff"
  />
  <path
    d="M86.27,15.78h.9c.91,0,1.62-.42,1.62-1.39a1.52,1.52,0,0,0-1.64-1.67c-1.26,0-1.66,1.09-1.75,2.13L83,14.34a4,4,0,0,1,4.36-3.67c2,0,3.9,1.08,3.9,3.32a2.43,2.43,0,0,1-2,2.61v0a2.9,2.9,0,0,1,2.35,3.06c0,2.57-2.11,3.81-4.48,3.81s-4.31-1.13-4.31-4.27h2.34a2,2,0,0,0,2,2.23A1.77,1.77,0,0,0,89,19.55a1.66,1.66,0,0,0-1.82-1.84h-.9V15.78Z"
    fill="#fff"
  />
  <path
    d="M94.12,10.89H101l-.23,2.16H96l-.38,2.58a3.34,3.34,0,0,1,2.23-.87c2.64,0,3.9,2,3.9,4.25a4.31,4.31,0,0,1-4.62,4.5c-2.31,0-4.21-1.15-4.32-3.65l2.56-.19a1.8,1.8,0,0,0,1.78,1.91c1.5,0,2-1.26,2-2.55,0-1.64-.84-2.34-2.08-2.34a1.73,1.73,0,0,0-1.77,1.19l-2.12-.17Z"
    fill="#fff"
  />
  <path
    d="M119.49,136.26H148c10,0,18,5,18,15.07,0,6.64-3.66,11-10.31,12.26v.17c8.35.85,13,7.75,13,15,0,15.16-10.81,18.15-23.42,18.15H119.49V136.26Zm11.41,24.35h13.54c5,0,9.62-2,9.62-7.74,0-4.6-3-7.59-9.62-7.59H130.9Zm0,26.23h14.81c6.9,0,11.08-2.13,11.08-8.43,0-6.81-4.26-9.28-11.16-9.28H130.9v17.71Z"
    fill="#fff"
  />
  <path
    d="M211.88,189.65c0,4.43,1,6.3,1.61,7.24h-11a8.16,8.16,0,0,1-1-3.92,21.74,21.74,0,0,1-14.06,4.94c-8.17,0-14.64-5.19-14.64-13.54s6.72-12.18,13.11-13.46l4.34-.85a107.46,107.46,0,0,0,11.25-2.55v-1.28c0-4.26-3.66-5.45-8.18-5.45-6,0-8,1.79-8,6.48l-10.38-.43c0-10.13,8.94-14.05,18.39-14.05,9.29,0,18.57,1.88,18.57,14.13v22.74Zm-10.39-14.31a18.41,18.41,0,0,1-4.94,1.53l-5.71,1.2c-3.92.77-7.15,1.87-7.15,6,0,3.24,3,5.37,6.73,5.37,4.85,0,11.07-2.39,11.07-7.92v-6.14Z"
    fill="#fff"
  />
  <path
    d="M194.19,120.75h6.93l-.24,2.15h-4.79l-.39,2.59a3.32,3.32,0,0,1,2.23-.88c2.64,0,3.9,2,3.9,4.25a4.31,4.31,0,0,1-4.61,4.51c-2.32,0-4.22-1.15-4.33-3.65l2.56-.2a1.8,1.8,0,0,0,1.78,1.91c1.5,0,2.05-1.25,2.05-2.55,0-1.64-.84-2.33-2.08-2.33a1.75,1.75,0,0,0-1.77,1.18l-2.12-.16Z"
    fill="#fff"
  />
  <path
    d="M209.31,124a1.43,1.43,0,0,0-1.48-1.42c-1.77,0-2.17,2.32-2.17,3.78h0a2.76,2.76,0,0,1,2.42-1.15c2.32,0,3.67,1.66,3.67,4.08a4,4,0,0,1-4.14,4.09c-3.61,0-4.43-3.23-4.43-6.11,0-3.92,1.53-6.73,4.63-6.73a3.53,3.53,0,0,1,3.81,3.15Zm-3.47,5.29c0,1.28.64,2,1.81,2s1.81-.76,1.81-2-.64-2-1.81-2S205.84,128,205.84,129.28Z"
    fill="#fff"
  />
</svg>