<svg xmlns="http://www.w3.org/2000/svg" xmlns:xlink="http://www.w3.org/1999/xlink" width="288"
     height="288" viewBox="0 0 288 288">
  <defs>
    <clipPath id="a" transform="translate(48 48)">
      <rect width="192" height="192" fill="none" />
    </clipPath>
    <clipPath id="b" transform="translate(48 48)">
      <rect width="96" height="96" fill="none" />
    </clipPath>
    <linearGradient id="c" x1="833.42" y1="-1364.15" x2="834.29" y2="-1364.15"
                    gradientTransform="translate(-213272.27 -130344.85) rotate(90) scale(156.38)"
                    gradientUnits="userSpaceOnUse">
      <stop offset="0" stop-color="#16453d" />
      <stop offset="1" stop-color="#096d38" />
    </linearGradient>
    <clipPath id="e" transform="translate(48 48)">
      <rect x="96" y="96" width="96" height="96" fill="none" />
    </clipPath>
    <linearGradient id="f" x1="826.75" y1="-1386.09" x2="827.62" y2="-1386.09"
                    gradientTransform="translate(216900.36 129497.28) rotate(-90) scale(156.38)"
                    xlink:href="#c" />
  </defs>
  <g clip-path="url(#a)">
    <g clip-path="url(#b)">
      <rect x="-19.88" y="-19.88" width="135.76" height="135.76"
            transform="translate(28.12 96) rotate(-45)" fill="url(#c)" />
    </g>
    <g clip-path="url(#a)">
      <path d="M15.14,22.3H39.91c8.65,0,15.6,4.36,15.6,13.08,0,5.77-3.18,9.54-8.95,10.65v.15c7.25.74,11.31,6.73,11.31,13,0,13.16-9.39,15.75-20.33,15.75H15.14Zm9.91,21.14H36.8c4.36,0,8.36-1.7,8.36-6.73,0-4-2.59-6.58-8.36-6.58H25.05Zm0,22.78H37.91c6,0,9.61-1.86,9.61-7.33,0-5.91-3.69-8.06-9.68-8.06H25.05Z"
            transform="translate(48 48)" fill="#fff" />
      <path d="M64.08,37.53h9V42.7h.15c2.14-4.29,6.28-6.06,11.53-6.06v9.17c-6.14,0-11.68,2.88-11.68,11V74.94h-9Z"
            transform="translate(48 48)" fill="#fff" />
      <path d="M74.9,13.7h.78c.79,0,1.4-.36,1.4-1.2A1.32,1.32,0,0,0,75.66,11c-1.09,0-1.44,1-1.52,1.85L72,12.45a3.5,3.5,0,0,1,3.79-3.18c1.75,0,3.39.93,3.39,2.88a2.11,2.11,0,0,1-1.78,2.26v0a2.54,2.54,0,0,1,2,2.66c0,2.24-1.84,3.31-3.9,3.31s-3.74-1-3.74-3.7h2a1.7,1.7,0,0,0,1.77,1.93A1.53,1.53,0,0,0,77.26,17a1.44,1.44,0,0,0-1.58-1.6H74.9V13.7Z"
            transform="translate(48 48)" fill="#fff" />
      <path d="M81.71,9.46h6l-.21,1.87H83.36L83,13.57A2.91,2.91,0,0,1,85,12.81c2.29,0,3.38,1.7,3.38,3.69a3.73,3.73,0,0,1-4,3.91c-2,0-3.66-1-3.75-3.16l2.21-.18a1.57,1.57,0,0,0,1.55,1.66c1.3,0,1.78-1.09,1.78-2.21,0-1.43-.73-2-1.81-2a1.51,1.51,0,0,0-1.53,1L81,15.38Z"
            transform="translate(48 48)" fill="#fff" />
    </g>
    <g clip-path="url(#e)">
      <rect x="76.12" y="76.12" width="135.77" height="135.77"
            transform="translate(-11.65 192) rotate(-45)" fill="url(#f)" />
    </g>
    <g clip-path="url(#a)">
      <path d="M103.74,118.3H128.5c8.65,0,15.6,4.36,15.6,13.08,0,5.77-3.18,9.54-8.95,10.65v.15c7.25.73,11.32,6.72,11.32,13,0,13.16-9.39,15.75-20.34,15.75h-22.4V118.3Zm9.9,21.14H125.4c4.35,0,8.35-1.7,8.35-6.72,0-4-2.59-6.59-8.35-6.59H113.64Zm0,22.77H126.5c6,0,9.62-1.85,9.62-7.32,0-5.91-3.7-8-9.69-8H113.64v15.37Z"
            transform="translate(48 48)" fill="#fff" />
      <path d="M184,164.65c0,3.85.88,5.47,1.4,6.29h-9.54a7.21,7.21,0,0,1-.88-3.4,19,19,0,0,1-12.2,4.28c-7.1,0-12.72-4.51-12.72-11.75s5.84-10.58,11.39-11.69l3.77-.73a95.2,95.2,0,0,0,9.76-2.22v-1.11c0-3.7-3.18-4.73-7.1-4.73-5.25,0-7,1.55-7,5.62l-9-.37c0-8.8,7.76-12.2,16-12.2,8.06,0,16.12,1.63,16.12,12.27v19.74Zm-9-12.42a16,16,0,0,1-4.29,1.33l-5,1c-3.4.66-6.2,1.62-6.2,5.17,0,2.81,2.58,4.66,5.84,4.66,4.21,0,9.61-2.07,9.61-6.87v-5.33Z"
            transform="translate(48 48)" fill="#fff" />
      <path d="M168.59,104.83h6l-.21,1.87h-4.16l-.33,2.25a2.86,2.86,0,0,1,1.93-.76c2.29,0,3.39,1.69,3.39,3.69a3.74,3.74,0,0,1-4,3.91c-2,0-3.66-1-3.75-3.17l2.21-.17a1.58,1.58,0,0,0,1.56,1.66c1.29,0,1.77-1.09,1.77-2.22,0-1.42-.73-2-1.81-2a1.51,1.51,0,0,0-1.53,1l-1.84-.14Z"
            transform="translate(48 48)" fill="#fff" />
      <path d="M181.72,107.65a1.24,1.24,0,0,0-1.29-1.23c-1.53,0-1.88,2-1.88,3.27h0a2.43,2.43,0,0,1,2.11-1c2,0,3.18,1.44,3.18,3.54a3.46,3.46,0,0,1-3.59,3.55c-3.14,0-3.85-2.8-3.85-5.31,0-3.4,1.33-5.84,4-5.84a3.06,3.06,0,0,1,3.31,2.74Zm-3,4.59c0,1.11.55,1.77,1.57,1.77s1.56-.66,1.56-1.77-.55-1.77-1.56-1.77-1.57.66-1.57,1.77"
            transform="translate(48 48)" fill="#fff" />
    </g>
  </g>
</svg>