<?xml version="1.0" encoding="utf-8"?>
<!-- Generator: Adobe Illustrator 24.3.0, SVG Export Plug-In . SVG Version: 6.00 Build 0)  -->
<svg version="1.1" id="Layer_1" xmlns="http://www.w3.org/2000/svg" xmlns:xlink="http://www.w3.org/1999/xlink" x="0px" y="0px"
	 viewBox="0 0 180 107.2" style="enable-background:new 0 0 180 107.2;" xml:space="preserve">
<style type="text/css">
	.st0{fill:#072508;}
	.st1{fill:url(#SVGID_1_);}
	.st2{fill:url(#SVGID_2_);}
	.st3{fill:#FFFFFF;}
</style>
<g>
	<path class="st0" d="M0,54V0h54v53.6V54H0L0,54z M53.6,53.6v-0.4V53.6L53.6,53.6z M0.7,53.2h52.5V0.7H0.7V53.2L0.7,53.2z"/>
	
		<linearGradient id="SVGID_1_" gradientUnits="userSpaceOnUse" x1="106.9" y1="652.9" x2="53.6" y2="599.6" gradientTransform="matrix(1 0 0 1 0 -546)">
		<stop  offset="0" style="stop-color:#15453D"/>
		<stop  offset="1" style="stop-color:#006C24"/>
	</linearGradient>
	<rect x="53.6" y="53.6" class="st1" width="53.3" height="53.3"/>
	<g>
		
			<linearGradient id="SVGID_2_" gradientUnits="userSpaceOnUse" x1="0.4" y1="546.3" x2="53.7" y2="599.6" gradientTransform="matrix(1 0 0 1 0 -546)">
			<stop  offset="0" style="stop-color:#15453D"/>
			<stop  offset="1" style="stop-color:#006C24"/>
		</linearGradient>
		<rect x="0.4" y="0.3" class="st2" width="53.3" height="53.3"/>
		<path class="st0" d="M53.3,107.2v-54h54v53.6v0.4H53.3L53.3,107.2z M106.9,106.9v-0.4V106.9L106.9,106.9z M54,106.5h52.5V54H54
			V106.5L54,106.5z"/>
	</g>
	<g>
		<path class="st3" d="M8.5,12.5h13.9c4.9,0,8.8,2.5,8.8,7.4c0,3.2-1.8,5.4-5,6V26c4.1,0.4,6.4,3.8,6.4,7.3c0,7.4-5.3,8.9-11.4,8.9
			H8.6V12.5H8.5z M14.1,24.4h6.6c2.5,0,4.7-1,4.7-3.8c0-2.2-1.5-3.7-4.7-3.7h-6.6V24.4z M14.1,37.2h7.2c3.4,0,5.4-1,5.4-4.1
			c0-3.3-2.1-4.5-5.4-4.5h-7.2V37.2z"/>
		<path class="st3" d="M36,21.1h5.1V24h0.1c1.2-2.4,3.5-3.4,6.5-3.4v5.2c-3.5,0-6.6,1.6-6.6,6.2v10.2H36V21.1z"/>
		<path class="st3" d="M57.6,65.8h13.9c4.9,0,8.8,2.5,8.8,7.4c0,3.2-1.8,5.4-5,6v0.1c4.1,0.4,6.4,3.8,6.4,7.3
			c0,7.4-5.3,8.9-11.4,8.9H57.7L57.6,65.8L57.6,65.8z M63.2,77.7h6.6c2.5,0,4.7-1,4.7-3.8c0-2.2-1.5-3.7-4.7-3.7h-6.6V77.7z
			 M63.2,90.5h7.2c3.4,0,5.4-1,5.4-4.1c0-3.3-2.1-4.5-5.4-4.5h-7.2V90.5L63.2,90.5z"/>
		<path class="st3" d="M102.7,91.8c0,2.2,0.5,3.1,0.8,3.5h-5.4c-0.3-0.5-0.5-1.4-0.5-1.9c-2,1.6-4.2,2.4-6.9,2.4
			c-4,0-7.2-2.5-7.2-6.6s3.3-6,6.4-6.6l2.1-0.4c1.8-0.4,4.2-0.8,5.5-1.2v-0.6c0-2.1-1.8-2.7-4-2.7c-3,0-3.9,0.9-3.9,3.2l-5.1-0.2
			c0-4.9,4.4-6.9,9-6.9c4.5,0,9.1,0.9,9.1,6.9L102.7,91.8L102.7,91.8z M97.7,84.8c-0.7,0.3-1.5,0.6-2.4,0.7l-2.8,0.6
			C90.6,86.5,89,87,89,89c0,1.6,1.5,2.6,3.3,2.6c2.4,0,5.4-1.2,5.4-3.9V84.8L97.7,84.8z"/>
	</g>
	<g>
		<path class="st3" d="M42.1,7.7h0.4c0.4,0,0.8-0.2,0.8-0.7S43,6.2,42.5,6.2c-0.6,0-0.8,0.5-0.9,1l-1.2-0.3c0.2-1.2,0.9-1.8,2.1-1.8
			c1,0,1.9,0.5,1.9,1.6c0,0.7-0.3,1.1-1,1.3l0,0c0.8,0.2,1.1,0.7,1.1,1.5c0,1.3-1,1.9-2.2,1.9s-2.1-0.6-2.1-2.1h1.1
			c0,0.6,0.3,1.1,1,1.1c0.6,0,0.9-0.4,0.9-0.9c0-0.7-0.4-0.9-0.9-0.9h-0.4L42.1,7.7L42.1,7.7z"/>
		<path class="st3" d="M46,5.3h3.4l-0.1,1.1H47l-0.2,1.3c0.3-0.3,0.7-0.4,1.1-0.4c1.3,0,1.9,1,1.9,2.1c0,1.4-1,2.2-2.3,2.2
			c-1.1,0-2.1-0.6-2.1-1.8l1.2-0.1c0,0.5,0.3,0.9,0.9,0.9c0.7,0,1-0.6,1-1.2c0-0.8-0.4-1.1-1-1.1c-0.4,0-0.7,0.2-0.9,0.6l-1-0.1
			L46,5.3z"/>
		<path class="st3" d="M94.1,58.2h3.4l-0.1,1.1h-2.3l-0.2,1.3c0.3-0.3,0.7-0.4,1.1-0.4c1.3,0,1.9,1,1.9,2.1c0,1.4-1,2.2-2.3,2.2
			c-1.1,0-2.1-0.6-2.1-1.8l1.2-0.1c0,0.5,0.3,0.9,0.9,0.9c0.7,0,1-0.6,1-1.2c0-0.8-0.4-1.1-1-1.1c-0.4,0-0.7,0.2-0.9,0.6l-1-0.1
			L94.1,58.2z"/>
		<path class="st3" d="M101.5,59.8c0-0.4-0.3-0.7-0.7-0.7c-0.9,0-1.1,1.1-1.1,1.8l0,0c0.2-0.2,0.5-0.6,1.2-0.6c1.1,0,1.8,0.8,1.8,2
			c0,1.1-0.8,2-2,2c-1.8,0-2.2-1.6-2.2-3c0-1.9,0.7-3.3,2.3-3.3c1,0,1.7,0.5,1.9,1.5L101.5,59.8z M99.8,62.4c0,0.6,0.3,1,0.9,1
			c0.6,0,0.9-0.4,0.9-1s-0.3-1-0.9-1C100.1,61.4,99.8,61.7,99.8,62.4z"/>
	</g>
	<g>
		<path class="st3" d="M62.9,31.2c-1.4,0-1.6,0-1.6,1.1c0,3.3,2.7,6.4,6.4,6.4c1.5,0,2.9-0.5,4.3-1.4c0.9-0.7,1.6-1.4,2.4-1.4
			c0.6,0,1.1,0.5,1.1,1c0,0.6-0.7,1.6-1.9,2.7c-2.3,1.8-4.4,2.8-7.2,2.8c-6,0-10.4-4.6-10.4-10.5c0-6.5,4.5-11.2,10.9-11.2
			c5.4,0,8.7,3.3,8.7,8.5c0,1.9-0.5,2.1-2.3,2.1h-10C63.1,31.2,63,31.2,62.9,31.2z M69.6,28.9c1,0,1.3-0.1,1.3-0.8
			c0-2.6-1.9-4.8-4.8-4.8c-2.7,0-4.6,2.2-4.6,4.8c0,0.7,0.3,0.8,1.3,0.8H69.6z"/>
		<path class="st3" d="M96,38.6c1.2,0.4,2,0.4,2,1.2c0,1.2-2,2.6-4.7,2.6c-1.6,0-2.6-2.2-3-2.2c-0.7,0-2.5,2.2-6.1,2.2
			c-4.1,0-6.8-2.6-6.8-6.4c0-4.4,3.3-7.1,9.2-7.1c1.1,0,2.4,0.1,3.9,0.4v-2.2c0-2.5-1.1-3.8-3.1-3.8c-1.4,0-2.5,0.6-3.6,1.8
			c-0.9,1-1.4,2.1-3.1,2.1c-1.1,0-1.8-0.8-1.8-2c0-2.4,3.2-4.6,8.7-4.6c3.2,0,5.4,0.9,6.6,2.4c1.1,1.4,1.1,3.4,1.1,6.4v6.7
			C95.1,37.6,95.3,38.4,96,38.6z M87.3,31.6c-3,0-4.8,1.4-4.8,3.8c0,2.2,1.5,3.7,4,3.7c2.8,0,3.8-1.2,3.8-4V32
			C89.3,31.7,88.2,31.6,87.3,31.6z"/>
		<path class="st3" d="M106.2,27.8c0,0.9,0,1.3,0.4,1.3c0.2,0,1.1-0.5,2.4-1.7c1.7-1.6,2.6-2.5,2.6-3s-1.6-0.5-1.6-1.6
			c0-1.4,1.7-1.7,5.2-1.7c2.5,0,3.8,0.5,3.8,1.6c0,1.6-2,1.1-3.7,2.1c-0.8,0.5-1.7,1.4-2.9,2.6c-0.6,0.6-0.9,0.9-0.9,1.2
			c0,0.4,0.7,1.4,2.1,3.1c2.9,3.8,4.9,6,5.9,6.7c1.4,1,3.2,0.7,3.2,2.1c0,1.2-1.3,1.7-4.2,1.7c-1.2,0-2-0.1-2.2-0.2
			c-1.1-0.4-2.1-1.9-3.8-4c-3.6-4.6-5.5-7-5.9-7s-0.4,0.3-0.4,1.1c0,0.2,0,0.5,0,0.9c0,3.4,0.1,5.4,0.6,6c0.6,0.7,2.1,0.5,2.1,1.8
			c0,1.2-1.5,1.5-4.8,1.5c-3.7,0-5.2-0.2-5.2-1.6c0-0.9,0.9-0.9,1.6-1.3c0.9-0.5,1-2,1-4.8c0-1.6,0-3.4,0-5.8c0-0.9,0-1.8,0-2.6
			c0-6.1,0-8.5-0.6-9.1c-0.3-0.4-1-0.5-1.9-0.7c-0.7-0.2-0.9-0.4-0.9-1c0-0.9,0.8-1.2,2.3-1.7c2.4-0.8,4.2-1.1,5-1.1
			c0.9,0,1.1,0.5,1.1,1.8c0,2.2-0.2,4.4-0.2,8.5v4.9H106.2z"/>
		<path class="st3" d="M131.1,35.2c0,2.2,0.1,3.5,0.8,3.9c0.9,0.5,1.8,0.4,1.8,1.5c0,1.2-1.5,1.5-4.8,1.5c-3.7,0-5.3-0.2-5.3-1.6
			c0-0.9,0.9-0.9,1.6-1.3c0.8-0.5,1-1.5,1-3.3c0-0.9,0-1.8,0-3.1c0-0.8,0-1.5,0-2.2c0-3.4,0-5.1-0.7-5.5c-1-0.5-2.3-0.5-2.3-1.5
			c0-0.7,0.6-1.1,1.7-1.6c2.8-1.1,5-1.4,5.4-1.4c0.8,0,1.1,0.6,1.1,1.8c0,0.5,0,1.3,0,2.2l-0.2,5.3
			C131.1,31.7,131.1,33.5,131.1,35.2z M128.4,13c1.9,0,3.2,1.2,3.2,2.7s-1.4,2.7-3.4,2.7c-1.8,0-3.1-1.1-3.1-2.5
			C125,14.4,126.4,13,128.4,13z"/>
		<path class="st3" d="M149.1,20.6c2.1,0,4.1,1,5.3,2.4c1.6,2,1.8,4.4,1.8,7.7c0,1.6,0,2.5,0,2.8c0,1,0,1.8,0,2.5
			c0,1.6,0.1,2.5,0.9,3c0.7,0.4,1.6,0.4,1.6,1.3c0,1.4-1.6,1.6-5.1,1.6c-3.4,0-4.9-0.2-4.9-1.4c0-1.1,0.9-1,1.8-1.5
			c0.7-0.4,0.9-1.8,0.9-4.3c0-6.6-0.1-10-3.9-10c-1.5,0-3,0.9-3.7,2.5c-0.8,1.6-0.8,4.3-0.8,8.3c0,2.1,0,3.2,0.8,3.6
			c0.9,0.5,1.8,0.4,1.8,1.5c0,1.2-1.5,1.5-4.8,1.5c-3.7,0-5.3-0.2-5.3-1.6c0-0.9,0.9-0.9,1.6-1.3c0.8-0.5,1-1.5,1-3.3
			c0-0.9,0-1.8,0-3.1c0-0.8,0-1.5,0-2.2c0-3.4,0-5.1-0.7-5.5c-1-0.5-2.3-0.5-2.3-1.5c0-0.7,0.6-1.1,1.7-1.6c2.7-1,4.6-1.3,5.2-1.3
			c0.8,0,1.1,0.4,1.1,1.3v1.1c0,0.1,0,0.2,0,0.2c0,0.2,0,0.2,0.2,0.2c0.1,0,0.2,0,0.2-0.1l0.5-0.5C144.9,22,146.1,20.6,149.1,20.6z"
			/>
		<path class="st3" d="M160.1,28.6c0-4.5,3.8-7.9,9.1-7.9c1.4,0,3.2,0.3,5.4,0.8c1.1,0,2.3-0.6,3.9-1.7c0.6,0.4,0.9,0.9,0.9,1.4
			c0,1.1-0.9,2.3-2.5,3.2c0.6,1.1,0.9,2.2,0.9,3.4c0,4.5-3.6,7.8-9.2,7.8c-1.5,0-2.9-0.2-4.2-0.7c-0.6,0.6-0.9,1.1-0.9,1.6
			c0,1.4,1.4,1.9,4.1,1.9c2.1,0,4.2-0.5,6.4-0.5c3.9,0,6,1.6,6,4.6c0,4.3-4.6,7.8-11.6,7.8c-5.7,0-9.3-2.7-9.3-5.5
			c0-1.5,1-2.5,3-3.7c-1.6-0.6-2.5-1.7-2.5-3.1s1-2.8,3-4C161,32.5,160.1,30.7,160.1,28.6z M163.7,44.3c0,1.8,2,3.2,5.5,3.2
			c3.9,0,6.5-1.8,6.5-3.7c0-1.3-0.9-2.1-2.7-2.1c-1.3,0-3.2,0.4-5.6,0.4c-0.8,0-1.7,0-2.6-0.2C164,42.7,163.7,43.4,163.7,44.3z
			 M168.8,32.8c2.3,0,4.1-1.9,4.1-4.7c0-2.9-1.7-4.8-4.1-4.8c-2.1,0-3.9,1.9-3.9,4.8C165,30.9,166.6,32.8,168.8,32.8z"/>
	</g>
	<g>
		<path class="st3" d="M124.8,93.2c0-0.4-0.1-0.5-0.2-0.5c-0.1,0-0.6,0.5-1.6,1.1c-1.6,1.2-3.2,1.8-4.9,1.8c-5.1,0-8.8-4-8.8-10.1
			c0-6.8,4.2-11.5,10.1-11.5c2.9,0,4.6,1.2,5,1.2c0.2,0,0.3-0.4,0.3-1v-1.5c0-1.9-0.2-2.5-1.3-2.9c-1-0.3-1.8-0.3-1.8-1.3
			c0-0.9,0.9-1.3,2.6-1.9c1.8-0.7,3.2-0.9,4.3-0.9c0.9,0,1.3,0.5,1.3,1.7c0,0.7-0.2,4.4-0.2,13c0,7,0,10.6,0.6,11
			c0.9,0.7,2.5,0.2,2.5,1.5c0,1-1.1,1.3-3.2,2c-1.4,0.5-2.9,0.7-3.4,0.7c-0.8,0-1.1-0.4-1.1-1.4v-1H124.8z M124.6,81.4
			c0-1.1,0-1.9-0.4-2.5c-0.9-1.1-2.6-2.1-4.4-2.1c-3,0-5.1,2.6-5.1,7.1c0,4.9,2.4,7.9,5.4,7.9c2.9,0,4.6-1.6,4.6-4.8v-5.6H124.6z"/>
	</g>
</g>
</svg>
