<svg xmlns="http://www.w3.org/2000/svg" width="353.03" height="162.86" viewBox="0 0 353.03 162.86">
  <polygon points="295.87 0 295.87 8.85 285.62 8.85 285.62 0 281.87 0 281.87 21.43 285.62 21.43 285.62 12.16 295.87 12.16 295.87 21.43 299.62 21.43 299.62 0 295.87 0"
           fill="#fff" />
  <polygon points="295.72 41.82 285.33 26.87 285.25 26.77 281.87 26.77 281.87 48.19 285.59 48.19 285.59 33.11 296 48.09 296.07 48.19 299.44 48.19 299.44 26.77 295.72 26.77 295.72 41.82"
           fill="#fff" />
  <path d="M352.91,56.51a3.46,3.46,0,0,0-1.64-2.14L314.56,33.13a3.53,3.53,0,0,0-4.81,1.27l-1.69,2.87a3.52,3.52,0,0,0,1.28,4.84L346.11,63.3A3.54,3.54,0,0,0,350.93,62l1.63-2.82A3.49,3.49,0,0,0,352.91,56.51Z"
        fill="#fff" />
  <path d="M234.28,96.79a6.57,6.57,0,1,0,0-13.12,2.18,2.18,0,0,1-2.32-2,2.21,2.21,0,0,1,2.32-2.06,6.57,6.57,0,1,0,0-13.12,2,2,0,1,1,0-4h1V57.94h-1a6.54,6.54,0,1,0,0,13.07,2.23,2.23,0,0,1,2.37,2.06,2.19,2.19,0,0,1-2.37,2,6.57,6.57,0,1,0,0,13.13,2.19,2.19,0,0,1,2.37,2,2.23,2.23,0,0,1-2.37,2.06,6.57,6.57,0,1,0,0,13.12,2,2,0,1,1,0,4,6.57,6.57,0,1,0,0,13.12,2.24,2.24,0,0,1,2.37,2.06v1h4.53v-1a6.76,6.76,0,0,0-6.9-6.59,2,2,0,1,1,0-4.06,6.54,6.54,0,1,0,0-13.07,2,2,0,1,1,0-4.06Z"
        fill="#fff" />
  <path d="M273.43,37.82,271.81,35A3.54,3.54,0,0,0,267,33.71l-33,19L179.05,21a4.56,4.56,0,0,0-4.55,0L118,53.61a4.51,4.51,0,0,0-2.25,3.9v.81a4.5,4.5,0,0,0,2.26,3.9l.65.37a4.47,4.47,0,0,0,4.5,0l53.62-31,54.66,31.59.26.15a4.57,4.57,0,0,0,4.56,0l35.9-20.73A3.53,3.53,0,0,0,273.43,37.82Z"
        fill="#fff" />
  <path d="M120.67,53.53,64.79,21.32a5.05,5.05,0,0,0-5,0l-57.25,33A5,5,0,0,0,0,58.68v66.1a5.06,5.06,0,0,0,2.51,4.36l57.26,33.05a5,5,0,0,0,5,0L122,129.14a5.06,5.06,0,0,0,2.52-4.36V60.31C124.56,58.49,122.23,54.43,120.67,53.53ZM62.28,152,10.11,121.88V61.63L62.28,31.49,114.5,61.63v60.25Z"
        fill="#fff" />
  <rect x="54.12" y="124.73" width="56.84" height="5" rx="2"
        transform="translate(-52.93 59.05) rotate(-30.31)" fill="#fff" />
  <rect x="-7.27" y="89.14" width="56.84" height="5" rx="2"
        transform="translate(-70.56 112.53) rotate(-89.84)" fill="#fff" />
  <rect x="79.85" y="27.98" width="5" height="56.84" rx="2"
        transform="translate(-7.67 99.52) rotate(-60)" fill="#fff" /></svg>