<svg xmlns="http://www.w3.org/2000/svg" xmlns:xlink="http://www.w3.org/1999/xlink" width="180" height="106.3"
  viewBox="0 0 180 106.3">
  <defs>
    <linearGradient id="a" x1="0.25" y1="0.25" x2="52.9" y2="52.9" gradientUnits="userSpaceOnUse">
      <stop offset="0" stop-color="#15453d" />
      <stop offset="1" stop-color="#006c24" />
    </linearGradient>
    <linearGradient id="b" x1="105.8" y1="764.26" x2="53.15" y2="711.61" gradientTransform="translate(0.25 -658.21)"
      xlink:href="#a" />
  </defs>
  <rect x="0.25" y="0.25" width="52.65" height="52.65" fill="url(#a)" />
  <path d="M52.4.35V52.5H.25V.35H52.4m.5-.5H-.25V53H52.9V-.15Z" transform="translate(0.25 0.15)" fill="#072508" />
  <path
    d="M6.7,11.57h14c4.89,0,8.8,2.47,8.8,7.38a5.69,5.69,0,0,1-5,6v.1a7.08,7.08,0,0,1,6.38,7.33c0,7.43-5.29,8.88-11.46,8.88H6.7ZM12.29,23.5h6.63c2.46,0,4.71-1,4.71-3.8,0-2.24-1.45-3.71-4.71-3.71H12.29Zm0,12.85h7.26c3.38,0,5.41-1,5.41-4.13,0-3.34-2.08-4.55-5.46-4.55H12.29Z"
    transform="translate(0.25 0.15)" fill="#fff" />
  <path d="M34.26,20.16h5.09v2.9h.08c1.22-2.42,3.55-3.42,6.51-3.42v5.18c-3.46,0-6.59,1.62-6.59,6.2V41.26H34.26Z"
    transform="translate(0.25 0.15)" fill="#fff" />
  <rect x="53.4" y="53.4" width="52.65" height="52.65" fill="url(#b)" />
  <path d="M105.55,53.5v52.15H53.4V53.5h52.15m.5-.5H52.9v53.15h53.15V53Z" transform="translate(0.25 0.15)"
    fill="#072508" />
  <path
    d="M56.46,66.31h14c4.87,0,8.79,2.47,8.79,7.38a5.68,5.68,0,0,1-5,6v.09a7.07,7.07,0,0,1,6.37,7.33c0,7.43-5.29,8.89-11.46,8.89H56.46ZM62,78.25h6.63c2.46,0,4.71-1,4.71-3.8,0-2.25-1.46-3.71-4.71-3.71H62Zm0,12.83h7.25c3.38,0,5.43-1,5.43-4.12,0-3.34-2.09-4.54-5.47-4.54H62Z"
    transform="translate(0.25 0.15)" fill="#fff" />
  <path
    d="M101.7,92.47a6.17,6.17,0,0,0,.78,3.54H97.11a4,4,0,0,1-.5-1.92,10.65,10.65,0,0,1-6.88,2.42c-4,0-7.17-2.55-7.17-6.63s3.29-6,6.42-6.59l2.12-.42a54.19,54.19,0,0,0,5.51-1.24V81c0-2.08-1.8-2.66-4-2.66-3,0-3.92.87-3.92,3.17l-5.09-.21c0-5,4.37-6.88,9-6.88s9.09.92,9.09,6.92V92.47Zm-5.09-7a9.31,9.31,0,0,1-2.42.75l-2.8.58c-1.91.38-3.5.92-3.5,2.92,0,1.58,1.46,2.63,3.3,2.63,2.38,0,5.42-1.17,5.42-3.87Z"
    transform="translate(0.25 0.15)" fill="#fff" />
  <path
    d="M41.49,7.08h.44c.44,0,.79-.21.79-.68a.73.73,0,0,0-.65-.82h-.15c-.61,0-.81.54-.85,1l-1.2-.21A2,2,0,0,1,42,4.57,1.68,1.68,0,0,1,43.9,6s0,.1,0,.16a1.18,1.18,0,0,1-1,1.28h0A1.42,1.42,0,0,1,44.07,9c0,1.27-1,1.87-2.2,1.87a1.89,1.89,0,0,1-2.1-1.64,2.06,2.06,0,0,1,0-.43h1.15a1,1,0,0,0,.91,1.09h.09A.87.87,0,0,0,42.82,9a.24.24,0,0,0,0-.12.8.8,0,0,0-.71-.9h-.62Z"
    transform="translate(0.25 0.15)" fill="#fff" />
  <path
    d="M45.37,4.68h3.4l-.12,1H46.26L46.07,7a1.6,1.6,0,0,1,1.09-.43,1.87,1.87,0,0,1,1.92,1.81,2.26,2.26,0,0,1,0,.26,2.11,2.11,0,0,1-2,2.21h-.26a1.87,1.87,0,0,1-2.1-1.6c0-.06,0-.12,0-.19L46,9a.89.89,0,0,0,.84.94h0c.74,0,1-.63,1-1.26,0-.8-.41-1.14-1-1.14A.87.87,0,0,0,46,8.1L45,8Z"
    transform="translate(0.25 0.15)" fill="#fff" />
  <path
    d="M93.61,57.72H97l-.11,1H94.5L94.32,60a1.63,1.63,0,0,1,1.09-.42,1.86,1.86,0,0,1,1.92,1.8,1.31,1.31,0,0,1,0,.28,2.1,2.1,0,0,1-2,2.21h-.25A1.86,1.86,0,0,1,93,62.25a1.37,1.37,0,0,1,0-.19l1.24-.1a.9.9,0,0,0,.84.94h0c.73,0,1-.62,1-1.25,0-.8-.41-1.15-1-1.15a.89.89,0,0,0-.88.59l-1-.08Z"
    transform="translate(0.25 0.15)" fill="#fff" />
  <path
    d="M101,59.3a.69.69,0,0,0-.69-.69h0c-.86,0-1.06,1.13-1.06,1.84h0a1.39,1.39,0,0,1,1.18-.56,1.78,1.78,0,0,1,1.81,1.74,2.44,2.44,0,0,1,0,.27,1.94,1.94,0,0,1-1.89,2h-.12c-1.76,0-2.17-1.57-2.17-3,0-1.93.75-3.3,2.27-3.3a1.74,1.74,0,0,1,1.87,1.54Zm-1.69,2.6c0,.62.31,1,.88,1s.88-.37.88-1-.31-1-.88-1S99.32,61.27,99.32,61.9Z"
    transform="translate(0.25 0.15)" fill="#fff" />
  <path
    d="M62.36,30.26c-1.45,0-1.61,0-1.61,1.15a6.42,6.42,0,0,0,6.42,6.38,7.29,7.29,0,0,0,4.27-1.39C72.38,35.74,73,35,73.83,35a1,1,0,0,1,1.07.93V36c0,.61-.66,1.64-1.93,2.66a10.64,10.64,0,0,1-7.2,2.81,10.29,10.29,0,0,1-10.38-10.2c0-.12,0-.23,0-.35,0-6.55,4.53-11.23,10.91-11.23,5.38,0,8.76,3.29,8.76,8.52,0,1.93-.49,2.09-2.35,2.09ZM69,27.87c1,0,1.32-.12,1.32-.78a4.68,4.68,0,0,0-4.57-4.77h-.2A4.59,4.59,0,0,0,61,26.89v.2c0,.66.29.78,1.29.78Z"
    transform="translate(0.25 0.15)" fill="#fff" />
  <path
    d="M95.51,37.63c1.23.37,2,.37,2,1.23,0,1.24-2,2.64-4.69,2.64-1.56,0-2.64-2.18-3-2.18-.65,0-2.47,2.18-6.13,2.18-4.07,0-6.82-2.6-6.82-6.43,0-4.4,3.29-7.11,9.21-7.11a27,27,0,0,1,3.91.37V26.11c0-2.47-1.11-3.83-3.09-3.83a4.66,4.66,0,0,0-3.62,1.85c-.86,1-1.4,2.14-3.12,2.14a1.78,1.78,0,0,1-1.83-1.72,1.43,1.43,0,0,1,0-.29c0-2.38,3.17-4.64,8.68-4.64,3.17,0,5.4.86,6.59,2.39,1.07,1.35,1.16,3.41,1.16,6.38v6.74C94.65,36.6,94.86,37.46,95.51,37.63Zm-8.65-7c-3,0-4.77,1.45-4.77,3.79,0,2.18,1.52,3.66,4,3.66,2.84,0,3.79-1.19,3.79-4V31a15,15,0,0,0-3.06-.38Z"
    transform="translate(0.25 0.15)" fill="#fff" />
  <path
    d="M105.79,26.85c0,.86,0,1.28.41,1.28a7.82,7.82,0,0,0,2.34-1.73c1.69-1.56,2.63-2.52,2.63-3s-1.56-.49-1.56-1.64c0-1.41,1.69-1.69,5.18-1.69,2.56,0,3.83.49,3.83,1.57,0,1.6-2,1.1-3.7,2.13A18.64,18.64,0,0,0,112,26.35c-.58.58-.91.95-.91,1.2,0,.41.74,1.36,2,3.08A44.18,44.18,0,0,0,119,37.34c1.41,1,3.21.66,3.21,2S120.92,41,118,41a9.27,9.27,0,0,1-2.23-.21c-1.15-.41-2.09-1.9-3.78-4-3.62-4.61-5.51-7-5.92-7s-.41.33-.41,1.11v.91c0,3.45.08,5.43.57,6s2.14.45,2.14,1.77-1.52,1.48-4.82,1.48c-3.66,0-5.22-.21-5.22-1.6,0-1,.86-1,1.56-1.33.86-.49,1-2,1-4.77V25c0-6.13,0-8.49-.58-9.11-.33-.37-1-.45-1.89-.74-.66-.2-.95-.37-.95-1,0-.87.78-1.2,2.31-1.73a16.93,16.93,0,0,1,5-1.07c.92,0,1.16.53,1.16,1.76,0,2.19-.24,4.38-.24,8.5v5.26Z"
    transform="translate(0.25 0.15)" fill="#fff" />
  <path
    d="M130.68,34.21c0,2.23.12,3.5.83,3.87.94.53,1.84.41,1.84,1.53s-1.48,1.48-4.77,1.48c-3.66,0-5.27-.21-5.27-1.61,0-.95.87-.95,1.57-1.32s1-1.48,1-3.29V29.61c0-3.38,0-5.14-.74-5.52-1-.54-2.26-.45-2.26-1.48,0-.66.57-1.11,1.69-1.56a19,19,0,0,1,5.38-1.4c.83,0,1.07.57,1.07,1.77V23.6L130.86,29C130.72,30.76,130.68,32.53,130.68,34.21ZM128,12c1.88,0,3.16,1.19,3.16,2.68s-1.4,2.76-3.41,2.76-3.13-1.12-3.13-2.56A3.16,3.16,0,0,1,128,12Z"
    transform="translate(0.25 0.15)" fill="#fff" />
  <path
    d="M148.71,19.65A7,7,0,0,1,154,22.08c1.64,2,1.77,4.4,1.77,7.69v5.39c0,1.65.12,2.55.95,3s1.56.37,1.56,1.33c0,1.39-1.56,1.55-5.14,1.55-3.37,0-4.94-.2-4.94-1.43s.9-1,1.85-1.53c.74-.41.86-1.81.86-4.36,0-6.63-.08-10-3.9-10a4.25,4.25,0,0,0-3.71,2.47c-.78,1.56-.82,4.32-.82,8.31,0,2.06,0,3.21.78,3.62.95.53,1.85.41,1.85,1.53s-1.48,1.48-4.77,1.48c-3.66,0-5.27-.21-5.27-1.6,0-1,.87-1,1.56-1.33s1-1.47,1-3.29V29.61c0-3.38,0-5.14-.74-5.52-1-.54-2.27-.45-2.27-1.48,0-.66.59-1.11,1.69-1.56a18.35,18.35,0,0,1,5.19-1.32c.78,0,1.11.37,1.11,1.32v1.4c0,.16,0,.24.17.24a.32.32,0,0,0,.2-.08l.5-.45C144.64,21.05,145.7,19.65,148.71,19.65Z"
    transform="translate(0.25 0.15)" fill="#fff" />
  <path
    d="M159.82,27.59c0-4.53,3.78-7.94,9.1-7.94a26.11,26.11,0,0,1,5.42.82c1.12,0,2.31-.58,3.91-1.69a1.72,1.72,0,0,1,.92,1.36c0,1.16-.88,2.31-2.56,3.17a7,7,0,0,1,.86,3.41c0,4.53-3.62,7.82-9.21,7.82a12.14,12.14,0,0,1-4.19-.66,2.59,2.59,0,0,0-.88,1.66c0,1.35,1.37,1.92,4.08,1.92,2.1,0,4.24-.45,6.46-.45,3.91,0,6,1.64,6,4.57,0,4.28-4.61,7.77-11.6,7.77-5.68,0-9.31-2.7-9.31-5.55,0-1.52,1-2.55,3-3.74A3.31,3.31,0,0,1,159.29,37c0-1.43,1-2.8,3-4A6.75,6.75,0,0,1,159.82,27.59Zm3.54,15.8c0,1.85,2,3.26,5.56,3.26,4,0,6.5-1.78,6.5-3.75,0-1.32-.95-2.1-2.76-2.1-1.27,0-3.17.41-5.6.41a21,21,0,0,1-2.63-.16A3,3,0,0,0,163.36,43.39Zm5.19-11.56c2.34,0,4.11-1.9,4.11-4.74s-1.73-4.81-4.07-4.81c-2.14,0-3.87,1.93-3.87,4.77S166.32,31.83,168.55,31.83Z"
    transform="translate(0.25 0.15)" fill="#fff" />
  <path
    d="M124.44,93.89c0-.37-.09-.54-.17-.54a16.21,16.21,0,0,0-1.57,1.15,8.06,8.06,0,0,1-4.93,1.82c-5.11,0-8.85-4-8.85-10.17,0-6.83,4.2-11.52,10.12-11.52a12.66,12.66,0,0,1,5,1.23c.24,0,.28-.36.28-1V73.34c0-1.88-.24-2.5-1.32-2.87s-1.85-.33-1.85-1.28.87-1.32,2.59-1.93a12.91,12.91,0,0,1,4.29-.91c.94,0,1.31.5,1.31,1.73,0,.7-.25,4.37-.25,13,0,7,0,10.6.62,11,.9.66,2.55.25,2.55,1.48,0,1-1.11,1.31-3.25,2a12.76,12.76,0,0,1-3.46.66c-.78,0-1.1-.41-1.1-1.37Zm-.21-12.64a4.08,4.08,0,0,0-.42-2.47,5.79,5.79,0,0,0-4.44-2.09c-3,0-5.1,2.59-5.1,7.11,0,4.9,2.39,7.94,5.39,7.94s4.57-1.6,4.57-4.77Z"
    transform="translate(0.25 0.15)" fill="#fff" />
</svg>