<svg xmlns="http://www.w3.org/2000/svg" width="183.42" height="192" viewBox="0 0 183.42 192">
  <path d="M108,132c0,5.81-2.64,2.06-5.52,5-.87.89-4.8,4.78-6,4.78H94c-1.5,0-2.19-1.66-3.15-2.63-.62-.62-3.25-2.08-3.38-2.4-1.59,0-2.16.76-4,.76h-.5c-1.35,0-2.75-3.68-1.93-4.94.55-.85,3.48-2.72,4.44-3.36,0-5.14.9-13.08,1.49-18.1.45-3.87.42-4.94,1.67-8.13C89,102,91.46,96.14,91.46,96v-.76l1.76-.06,1.26,0,2.26.08c.83,1.24,1.62,7.1,2.68,9.38,1.25,2.68.87,7,1.44,10.12.5,2.82.22,9.06,1.15,10.91,1.25,2.48,6,3.9,6,6.28ZM98.5,96.27A4.45,4.45,0,0,1,101,99.53c1.23.66,3.51,7.17,4.07,9,.85,2.78,2.65,6.75,3.69,9.62,1.29,3.58,2.77,5.71,5.75,7.57,2,1.23,7.1,3.21,10.11,3.21,4.6,0,10.48-.54,13.81-2.26a18.06,18.06,0,0,0,4.72-3.58c1-1,3.26-3.86,4.26-4.42l-.89,4.58L144,130.69c0,1.84-4.89,13.25-5.84,14.68l.82.4v.75a23.34,23.34,0,0,1-1.26,3c0,3.59-2.26,3.76-2.26,7-1.85,0-1.16,2-2,3.81-.41.93-1.53,2.68-2.19,3.84s-4.05,6.94-4.13,7.93c-1.49.12-1.22,1.77-2,3.07-.62,1.1-1.3,2.24-1.82,3.21l.14,1.13-.63.88c-.53-.21-4.14,2.07-5.33,2.46-1.87.6-3.92,1.58-6,2.32-1.88.67-11.31,3.76-13.06,3.76l-3.79.1-3.25-.6v-.75H89c-.57,0-.55-.2-1-.5-4.51,0-18.39-4.17-20-6.38-1-1.43-3.75-6.7-4.61-8.45-.52-1.05-1.55-3.48-2.16-4.37-.82-1.21-2.38-2.91-2.11-4.17-1.92-1.28-3.5-5.88-4.78-7.79a12.17,12.17,0,0,0-2.56-8.24c-1.43-2.16-3.22-4.44-4.53-6.53-1.94-3.1-5.72-11.7-5.72-16.39A9.85,9.85,0,0,0,46,126.67c6.24,0,11.2-.5,17.34-.5,6.73,0,10-1.59,12.56-5.78A116.22,116.22,0,0,0,82,108.16c1-2.18,5.14-11.22,7.2-11.39,0,3.41-3,6.73-2.51,9-2,2.93-.41,7.24-1.16,11.4a55.08,55.08,0,0,0-.6,5.94c0,1.78-.76,3.44-.76,5.77-.85.07-3.6,2-4.23,2.55-1.16,1-1.88,2.64-2.87,3.92-1.65,2.12-3.12,6.75-3.91,9.66-1,3.89-1.6,7-2.35,11.21-1,5.68-2,6.75,2.36,9.65l1-1.06c-4.8-2.54-2.43-6.25-1.73-11.78.4-3.14,3.24-9.88,3.24-12.84,1.27-1.9,1.58-4.48,3.52-5.78,2.42,5,.83,4.27,7.28,4.27h1.26c2.15,0,3.12,3.33,4.82,4.23,2.52,1.33,4.82-.15,7.24-.21.07-.83,2.1-3.45,2.7-4.08,1.54-1.61,1.57-2.2,4.84-2.2l.66-.06.85-1.45c1.9.16,5.07,6,5.27,6,.71,0,.9-.72,1.26-1.25a27.28,27.28,0,0,1-2.76-3.52,43.69,43.69,0,0,0-2.77-3.51c-1.3-1.83-.43-2.26-2.51-3.78-1.35-1-2.13-2.08-3.52-3a56.59,56.59,0,0,0-1-7.52c-.56-2.72-.36-5.12-.79-8-.61-4.08-3.46-10.3-3.46-14.12ZM34.39,63.21l53.53,3.21,0-.3c.89,0,1.7-.59,2.31-.71a24.62,24.62,0,0,1,3.23,0c1.83,0,4-.26,6.27-.26h2.77a26.59,26.59,0,0,0,6.58-.45c2.12-.34,5.85.09,7.13-.15,2.6-.47,11.82-.4,14.43-.4a11.4,11.4,0,0,1,3.26-1.26l3.53-.08,11.46.85.59,4c-.14.21-.5.62-.5.76,0,1.47,1.26,5.25,1.26,6.28l0,6.29L150,83l-.26,0V77.17h-.5l.08,1.77-.58,5.77c-.08.68.25.62.75.75V86c-3.27.76-13.75.42-17.08.83l-32.17,2.94H97.49L95,89.48l-3-.09-3.76.6c-.94.15-10.1-.14-12-.28-3.51-.26-9-.75-13.07-.73-4.63,0-9.1-.52-14.33-.5-1.77,0-5.46-.6-6.87-.36-.71.12-5,.36-6.19.36l0-1.5-1.47-9.81c-.64-3.68,1.27-9.73,1.51-12.56l-.46,0-.89,1.72.58-3-.52-.18Zm82-62.83c-.59-.07-.54.09-1,.41-.94-.6-4.29,0-5.63.13a53.84,53.84,0,0,1-5.43-.13l-1.51.06L89.7.38,85.18.29H83.92c-1.74,0-3,.69-4.57.55A32.21,32.21,0,0,0,74.62,1c-3.65.37-6.39.76-9.78.79C60,1.85,48.32,3.27,46,5.31c-.31-.17-.27-.25-.75-.25h-.76c-.3,1.15-1.47,2.57-2.1,4.68a24.41,24.41,0,0,0-1.13,5.65l-.54.73c0,3.33-3.17,14.63-4.17,18.18-.87,3.09-1.31,6-2.05,9-.39,1.6-.56,2.86-.95,4.58-.32,1.42-1.28,2.69-1.62,4.16H26.63c-2.72,0-8.12-.1-10-.78C14.14,50.38,12.43,48,9.05,48S5.43,49.42,3.83,51.1c-.76.79-1.58,1.43-2.17,2.1C.42,54.61.85,54.55,0,55.81,1.91,59.42,4.2,60.09,8.89,61a79.26,79.26,0,0,0,12.72,1.6v.8l4.27-.3h4a3.55,3.55,0,0,1,1.88.74l-.87,5.79c-.1.78,0,.23.28.79l-.34.71L31,73.4l-.09,2.52v1.5H30.4c0,2.68,1.26,5.15,1.26,6.79a3.6,3.6,0,0,1-.25,1.25c.49.93.4,1.39.89,2.39.74,1.53.44,1.41-1,1.8-4.07,1.11-2.46,2.53-3.53,2.92l.6.68a1.65,1.65,0,0,0-.25,1v.25a36.92,36.92,0,0,0,2,8.33c.54,1.26,2,7.42,2.81,7.75v.75c0,1.86,3.62,7.34,4.42,9.4.61,1.56,1.12,3.5,1.68,5.1.67,1.89.5,4.34,1.94,5.1,0,6.51,4.77,11.3,4.86,14.28L52,156.45l.23-.13.22,1.15,1.46,3.44-2.18-2.33c.12,1.38,2.82,5,4.27,5A60.08,60.08,0,0,0,60,171.25c1.27,1.87,1.75,7.12,4.37,7.18.12,1.34,1.59,2.55,2.32,3.72a5.15,5.15,0,0,0,3.52,2.76c1.19.42,8.94,3.57,9,3.57a6.16,6.16,0,0,1,4,1,14.6,14.6,0,0,1,5.62.66A28.12,28.12,0,0,0,95,191.46l.72.54c2.89-.06,4.34-1.82,7.18-2.37a25.4,25.4,0,0,0,7.14-2.66c2.33,0,9.54-2.24,10-3.51,1.08.52,1.37-.1,2.24-.54,1.4-.7,1.83-.06,1.53-1.47,1.75-.47,2-4.76,3.32-5.29l-.31-1,.76-.21c2.7-5.61,6.18-10.74,8.89-16.24,1.07-2.16,2.23-7,3.12-9.43,1.35-3.64,1.85-5.75,3.6-9l-.12-.94,2.35-7.09.57-.07,1.19-2.69c0-2.79,1.54-7,2-9.85a77.9,77.9,0,0,1,2.11-9.71c.73-2.77,2-5.49,2.82-9,.4-1.76,1.79-8.83,1.15-10.16a1.46,1.46,0,0,0,.76-1.51V88c0-.64-.77-1.08-1.26-1.26l.08-.76-.58-5-.05-3.78.8-5.52v-.25c0-1.42-.5-1.37-.5-3h.5v-.76c0-1.49-.47-1.89-.5-3.26l2.26-.06,4.27.31v-.5c4.09,0,7.59-.25,11.61-.35a14,14,0,0,0,5.05-.58c.82-.29,5.64-.52,3.94-1.08.88-1.31,1.76-1,1.76-2.52v-5c0-1.33-4.18-6.79-5.78-6.79-4.2,0-5.8,4.28-9.8,4.28h-6c-3.06,0-5.39-1.51-7.9-1.47l-1.37-4-3.29-9.38a32.17,32.17,0,0,0-2.41-9.9c-.6-1.3-3.12-7.89-3.12-9.19-1.38-2.07-2.37-6.52-3.3-9.27a40,40,0,0,0-1.55-4.72c-1.59-3.33-.72-1.45-3.18-3.14l-8.3-1-11,.38Zm-3.77,143.13c0,.81,1.92,5.79,2.51,6l-.28,0,.78,6c1.17.47,0,1,1.26,1s.25-2.8.42-4.57l.84,3.09,1-.28v-.75c0-2.27-1.51-4.44-1.51-6.79.93.68,2,3.76,2,5.53,1.26,1.88-.13,3.52,2,3v-.76c0-2.7-3-11.14-5-11.3v1h-.45l-.32-1.24-.18-.2-1,1,.11.26-1.17-1.83c-.43.12-1,.29-1,.76Zm-18.6,3c0,2-.75,3.58-.75,4.52l-.06,2,.34,2.82,1-.58.93-8v-.75c0-.58-.17-.75-.75-.75H94Zm-4-2c0,2.14-2,5.33-2,9.28v1.51H89.2l-.31-.08,2.27-9.54.3.07c0,1.5-1.33,10.3-.5,10.3.57,0,.29-.09,1-.25v-2.77l0-2,.33-.58.59-2.79.29.06c-.68-1.28-.28-1.92-1.77-2.27l.25-1.3-1.74.32Zm19.6-2c.74,3.22,1.6,5.29,1.6,8.79l0,1.75-.07,2v.26a12.93,12.93,0,0,0,.25,1.75H112l.28-2.26v-1.25c.76.2,1.26,1.9,1.26,2.76v.78l1-.28v-1c0-2.18-1.13-5.24-1.57-7.48-.2-1-.64-2.36-1-3.53-.4-1.33-1.25-2.26-1.46-3.06h-.71l-.29.75ZM72.62,158.33h.75v-.75c0-1.33,1-5,1.74-5.53l-.74,5.53v1.25h1c.26-3.08.84-5.44,1.27-8.27.37-2.41,1.75-5.18,2.25-7.31l-.27.21-1.49-1.71c-.16.68-1.21,2.56-1.64,3.64-.51,1.29-1,2.74-1.35,3.92a28.2,28.2,0,0,0-1.53,9Zm33.18,1.76-1.53-.24-24.88,1.24v.26c-.88,1.31-1.51.41-1.51,3l.21.21,2.31-2.13,36.94-1.3,0-.33.72.54v-1.76a3.8,3.8,0,0,0-.75-.52l-11.54,1Zm-43.11.74.13.77a11.59,11.59,0,0,0,1.38,5.65c.35.75,1.86,4.65,2.38,4.65s.76-.15.76-.5a30.63,30.63,0,0,0-2.51-5.28c.48-1-.78-3.34-.48-5.5.27-1.92.48-4.29.72-6.32.27-2.26,1.49-12.09-.48-12.58Zm60.83-89.14c-1.35-.1-5.73-.73-11.16-.83s-7.82-1.15-12.09-.32a73.93,73.93,0,0,1-14.81.94,90.45,90.45,0,0,0-10.95.11c-3.33.31-6.88,1.25-6.36,2.08s2.82.94,7.82.42a89.62,89.62,0,0,1,12.93-.73c6.78,0,8.66-1,13.77-.94s7.09.52,12.3.83,7.2.73,8.34.53,1.78-1.26.21-2.09ZM93.18,76.8c-4.59.31-13.35.94-16.58,1.46s-6.78.62-10.64,1-7.09.21-7.09,1.15.32,1.46,3.13,1.35,10.64-2.29,16.16-2.39,12.83-.84,17.21-1,7.51-.73,11.57-.21,6.78,1,10.22,1.26,9.07,0,9.07,0,2.09-1.36-.83-1.36-9.59-.73-13-.94-6.88-.62-9.9-.62-9.28.31-9.28.31ZM79.41,83.26c-2.91.84-5.83,1.15-7.5,1.78s-4,1.67-1.36,1.67,7.61-1.67,13.24-2.3a105.68,105.68,0,0,1,15.12-.94c5.74.11,9.28.11,13.45.21s4.49.11,4.59-.52.73-1.25-4.06-1.15-11.68,0-15.54.11-7.2-.11-10.84.41a51.73,51.73,0,0,1-7.1.73ZM59.72,143c-1.39.37-1.57.58-1.41,1.62a27.63,27.63,0,0,1,.13,4.67A7.92,7.92,0,0,0,59,153c.42,1.07.81,2,1.15.76s-.34-4.52-.32-6.06.08-2.48.11-3.16a5.29,5.29,0,0,0-.26-1.51Zm10.41,1.52c-1,1.52-1.92,5.79-2.45,7.1a13,13,0,0,0-.73,4.9c.11,1.46.73,1.3,1.46-1s.84-3.29,1.57-5.53,1.51-4.28,1.51-4.59-.16-1.56-1.36-.89Zm10.41-.44c-.61.06-.4-.88-1.24,1.18s-1.71,7.05-2,8.24a8.51,8.51,0,0,0-.42,2.4c0,.6,0,1,.63,1s.71-1.17,1-2.89a17.7,17.7,0,0,1,.8-3.86c.51-1.11.9-3.75,1.25-4.49S81.35,143.86,80.54,144.08Zm1.8-.74c-.69.3-.6-.26-.84,1.12s-1,10.6-1.21,11.91-.23,3.1,0,3.26.52.63.79-.83.57-5.75,1.12-7.86,0-3.84.7-5.3.43-1.83.34-2.17-.82-.25-1-.13Zm2.89,1c-.75,1-.57,2-1,3.29s-2,9.41-2.19,10.06.94.45,1.1-.07,1.12-5.54,1.43-6.61,1.3-5.56,1.43-6.16-.35-.71-.82-.51Zm2,1.07c-.55.26-.61.39-.81,1.66s-.94,8-1,8.55-.34,2.1-.24,2.3a.66.66,0,0,0,1-.25c.17-.52.52-4,.64-5S88,147.13,88,146.45s-.16-1-.78-1.06Zm10,.09c-.5.47-.39,1.44-.55,3.19s.21,5.48.18,7,.11,2.46.47,2.48.76-1.15.73-2.66-.15-6.53-.21-7.41-.15-2.69-.62-2.59Zm2,.28a.87.87,0,0,0-.82.58,8.18,8.18,0,0,0,.14,2.8c.18.94.38,4.47.47,5.09s.13,1.81.4,2,.86-.05.9-1.31-.72-5.93-.79-7S99.24,145.76,99.24,145.76Zm1.7-1.14c-.73.16-.93.31-.7,1.28a49.73,49.73,0,0,1,.91,6.73c0,1.57,0,2.59,0,3.48s0,1.09.54,1.12.76-2.19.79-4.07-.5-6.66-.6-7.42S101.31,144.49,100.94,144.62Zm2.32-.63c-.36.16-.46,1.73-.31,2.9a51.24,51.24,0,0,1,.34,6.27c-.08,1.48.34,4.12.26,4.41s.52.16.68-.16a7.39,7.39,0,0,0,.83-4.23c-.26-2.16-.47-5.51-.52-6.5s-.7-3-1.28-2.69Zm2.38,0c-.6.21-.65,1.05-.6,2s.83,4.91.94,6.63a16.45,16.45,0,0,0,1.07,4.55c.26.52.54.28.83-.08s-.34-3-.6-4.18-1-6.63-1-7.21a6.41,6.41,0,0,0-.62-1.75Zm2.21-.54c-.2,0-1.35.15-.67,2.29s1.69,4.1,1.72,5.72.15,2.9.1,4.21.65,1.48,1,1.27.13-5.24-.29-7.2-.89-4.1-1-4.75A4.89,4.89,0,0,0,107.85,143.5Zm12.7-1.43c-.94.11-.89.73,0,2s3.33,14.54,3.49,17.72.21,7.62-.16,8.5.58,1.62.94-.88,1.41-14.55-.57-20.34-3.65-7-3.65-7Zm6.62,5.32c-.1.84.63,1.15.68,2.66s0,4.64-.11,5.11,1.78.94,1.52-1.77S128.53,145.83,127.17,147.39Zm3.76-1.51c-.68.89-.63.42-.42,2.29s1.09,1.72,1.15-.1S130.93,145.88,130.93,145.88Z"
        fill="#1f1a18" /></svg>