<svg xmlns="http://www.w3.org/2000/svg" xmlns:xlink="http://www.w3.org/1999/xlink" width="343.78"
     height="268.18" viewBox="0 0 343.78 268.18">
  <defs>
    <clipPath id="a" transform="translate(43.78 44.09)">
      <rect width="300" height="180" fill="none" />
    </clipPath>
    <clipPath id="b" transform="translate(43.78 44.09)">
      <rect x="0.61" y="0.62" width="88.78" height="89.41" fill="none" />
    </clipPath>
    <linearGradient id="c" x1="940.75" y1="-1612.76" x2="941.57" y2="-1612.76"
                    gradientTransform="translate(-278477.9 73343.91) rotate(45) scale(154.25)"
                    gradientUnits="userSpaceOnUse">
      <stop offset="0" stop-color="#16453d" />
      <stop offset="1" stop-color="#096d38" />
    </linearGradient>
    <clipPath id="e" transform="translate(43.78 44.09)">
      <rect x="89.4" y="89.98" width="88.78" height="89.41" fill="none" />
    </clipPath>
    <linearGradient id="f" x1="932.79" y1="-1638.27" x2="933.61" y2="-1638.27"
                    gradientTransform="translate(280664.65 -76728.22) rotate(-135) scale(154.26)"
                    xlink:href="#c" />
  </defs>
  <g clip-path="url(#a)">
    <g clip-path="url(#b)">
      <polygon points="0 89.41 88.78 178.81 177.56 89.41 88.78 0 0 89.41" fill="url(#c)" />
    </g>
    <path d="M89.39,89.41v0ZM1.22,1.23H88.78V89.41H1.22ZM0,0V90.64H90V0Z"
          transform="translate(43.78 44.09)" fill="#142715" />
    <g clip-path="url(#a)">
      <path d="M14.19,21.05H37.42C45.53,21.05,52,25.17,52,33.41c0,5.44-3,9-8.39,10.05v.14c6.8.7,10.61,6.35,10.61,12.28,0,12.43-8.8,14.87-19.06,14.87h-21Zm9.29,20h11c4.09,0,7.84-1.61,7.84-6.36,0-3.77-2.43-6.21-7.84-6.21h-11Zm0,21.5H35.54c5.62,0,9-1.75,9-6.91C44.55,50,41.09,48,35.47,48h-12Z"
            transform="translate(43.78 44.09)" fill="#fff" />
      <path d="M60.07,35.43h8.46v4.89h.14c2-4,5.89-5.72,10.81-5.72v8.65c-5.75,0-11,2.72-11,10.4V70.76H60.07Z"
            transform="translate(43.78 44.09)" fill="#fff" />
      <path d="M70.22,12.94H71c.74,0,1.32-.35,1.32-1.14a1.24,1.24,0,0,0-1.34-1.37c-1,0-1.35.89-1.42,1.74l-2-.42a3.29,3.29,0,0,1,3.55-3c1.65,0,3.18.88,3.18,2.72a2,2,0,0,1-1.67,2.14v0a2.38,2.38,0,0,1,1.92,2.51c0,2.11-1.72,3.12-3.65,3.12s-3.5-.92-3.5-3.49h1.9c0,1.09.54,1.82,1.66,1.82A1.44,1.44,0,0,0,72.43,16,1.35,1.35,0,0,0,71,14.52h-.73V12.94Z"
            transform="translate(43.78 44.09)" fill="#fff" />
      <path d="M76.61,8.93h5.63l-.19,1.76h-3.9l-.31,2.13a2.66,2.66,0,0,1,1.81-.72c2.15,0,3.17,1.6,3.17,3.48a3.51,3.51,0,0,1-3.75,3.69c-1.88,0-3.43-.94-3.52-3l2.08-.16a1.47,1.47,0,0,0,1.45,1.57c1.22,0,1.67-1,1.67-2.09,0-1.35-.69-1.92-1.7-1.92a1.41,1.41,0,0,0-1.43,1l-1.73-.14Z"
            transform="translate(43.78 44.09)" fill="#fff" />
      <path d="M104.9,52.46c-2.39,0-2.67.07-2.67,1.93A10.7,10.7,0,0,0,112.9,65.06,12,12,0,0,0,120,62.72c1.58-1.1,2.6-2.41,4-2.41A1.72,1.72,0,0,1,125.76,62c0,1-1.1,2.76-3.22,4.48-3.76,3.1-7.25,4.68-12,4.68-9.92,0-17.31-7.71-17.31-17.7,0-11,7.52-18.8,18.13-18.8,9,0,14.56,5.51,14.56,14.26,0,3.23-.82,3.51-3.9,3.51H104.9m11.08-4c1.64,0,2.19-.2,2.19-1.31a7.8,7.8,0,0,0-7.94-8c-4.58,0-7.66,3.65-7.66,8,0,1.11.48,1.31,2.12,1.31Z"
            transform="translate(43.78 44.09)" fill="#164f3c" />
      <path d="M160,64.79c2.05.62,3.28.62,3.28,2.06,0,2.07-3.35,4.41-7.8,4.41-2.6,0-4.37-3.65-5.06-3.65-1.09,0-4.1,3.65-10.19,3.65-6.77,0-11.35-4.34-11.35-10.74,0-7.37,5.47-11.92,15.32-11.92a41.9,41.9,0,0,1,6.5.62V45.5c0-4.13-1.85-6.4-5.13-6.4a7.68,7.68,0,0,0-6,3.1c-1.44,1.65-2.33,3.58-5.2,3.58-1.85,0-3-1.31-3-3.31,0-4,5.27-7.78,14.43-7.78,5.27,0,9,1.44,10.94,4,1.78,2.28,1.92,5.72,1.92,10.68V60.65c0,2.42.34,3.86,1.37,4.14M145.58,53.08c-5.06,0-7.93,2.41-7.93,6.33,0,3.65,2.53,6.13,6.7,6.13,4.72,0,6.29-2,6.29-6.68V53.7a23,23,0,0,0-5.06-.62"
            transform="translate(43.78 44.09)" fill="#164f3c" />
      <path d="M177.08,46.74c0,1.45.07,2.14.68,2.14.34,0,1.78-.9,4-2.9,2.8-2.61,4.38-4.2,4.38-5s-2.6-.83-2.6-2.76c0-2.34,2.8-2.82,8.61-2.82,4.25,0,6.36.82,6.36,2.61,0,2.69-3.28,1.86-6.15,3.59a30.61,30.61,0,0,0-4.79,4.33c-1,1-1.5,1.59-1.5,2,0,.69,1.23,2.28,3.42,5.17,4.85,6.34,8.13,10,9.78,11.23,2.32,1.65,5.33,1.1,5.33,3.44,0,2.07-2.19,2.82-7,2.82a14.66,14.66,0,0,1-3.7-.34c-1.91-.69-3.48-3.17-6.29-6.75-6-7.71-9.16-11.78-9.85-11.78s-.68.55-.68,1.86v1.52c0,5.78.13,9.09,1,10,1,1.11,3.55.76,3.55,3,0,2-2.53,2.48-8,2.48-6.09,0-8.69-.34-8.69-2.68,0-1.59,1.44-1.59,2.6-2.21,1.44-.82,1.71-3.3,1.71-8,0-2.61-.07-5.78-.07-9.78V43.57c0-10.26-.07-14.2-.95-15.23-.55-.62-1.71-.76-3.15-1.24-1.1-.35-1.57-.62-1.57-1.66,0-1.44,1.3-2,3.83-2.89a28.53,28.53,0,0,1,8.27-1.79c1.51,0,1.92.9,1.92,3,0,3.65-.41,7.32-.41,14.21Z"
            transform="translate(43.78 44.09)" fill="#164f3c" />
      <path d="M218.46,59.07c0,3.72.2,5.86,1.37,6.47,1.57.9,3.07.69,3.07,2.55s-2.46,2.48-7.93,2.48c-6.09,0-8.75-.34-8.75-2.68,0-1.59,1.43-1.59,2.59-2.21,1.37-.76,1.65-2.48,1.65-5.51,0-1.44-.07-3.1-.07-5.17V51.35c0-5.64-.07-8.61-1.23-9.23-1.71-.89-3.76-.75-3.76-2.47,0-1.11.95-1.86,2.8-2.62a32.19,32.19,0,0,1,9-2.34c1.37,0,1.78,1,1.78,3,0,.89,0,2.13-.07,3.65l-.27,9c-.07,3-.14,6-.14,8.82m-4.52-37.21c3.15,0,5.27,2,5.27,4.47S216.89,31,213.53,31c-3.07,0-5.2-1.86-5.2-4.27s2.4-4.82,5.61-4.82"
            transform="translate(43.78 44.09)" fill="#164f3c" />
      <path d="M248.43,34.69a11.67,11.67,0,0,1,8.76,4.06c2.73,3.31,2.94,7.37,2.94,12.88v4.75c0,1.66-.07,3-.07,4.27,0,2.76.21,4.28,1.57,5,1.17.62,2.6.62,2.6,2.21,0,2.34-2.6,2.61-8.55,2.61-5.6,0-8.2-.34-8.2-2.41,0-1.86,1.5-1.65,3.07-2.55,1.23-.68,1.44-3,1.44-7.3,0-11.08-.14-16.8-6.5-16.8a7,7,0,0,0-6.15,4.13C238,48.19,238,52.8,238,59.48c0,3.45.07,5.38,1.3,6.07,1.57.89,3.08.68,3.08,2.54s-2.47,2.48-7.94,2.48c-6.08,0-8.75-.34-8.75-2.68,0-1.59,1.44-1.59,2.6-2.21,1.37-.75,1.64-2.48,1.64-5.51,0-1.44-.07-3.1-.07-5.16V51.36c0-5.65-.07-8.61-1.23-9.23-1.71-.9-3.76-.76-3.76-2.48,0-1.1.95-1.86,2.8-2.62a30.16,30.16,0,0,1,8.62-2.2c1.3,0,1.85.62,1.85,2.2v2.34c0,.28,0,.42.27.42a.51.51,0,0,0,.34-.14l.82-.76c2.06-1.86,3.9-4.2,8.89-4.2"
            transform="translate(43.78 44.09)" fill="#164f3c" />
      <path d="M266.9,48c0-7.58,6.29-13.29,15.11-13.29a43.89,43.89,0,0,1,9,1.37c1.85,0,3.83-1,6.5-2.82a2.88,2.88,0,0,1,1.5,2.27c0,1.93-1.43,3.86-4.24,5.31a12,12,0,0,1,1.44,5.72c0,7.57-6,13.08-15.32,13.08a20.57,20.57,0,0,1-7-1.1,4.29,4.29,0,0,0-1.43,2.76c0,2.27,2.25,3.23,6.77,3.23,3.49,0,7-.76,10.74-.76,6.49,0,10,2.76,10,7.65,0,7.16-7.66,13-19.29,13-9.44,0-15.45-4.55-15.45-9.3,0-2.55,1.64-4.27,4.92-6.27-2.73-1-4.24-2.82-4.24-5.17S267.65,59,271,56.93a11.31,11.31,0,0,1-4.1-9m5.88,26.45c0,3.1,3.35,5.44,9.23,5.44,6.57,0,10.81-3,10.81-6.27,0-2.2-1.57-3.51-4.58-3.51-2.12,0-5.27.69-9.3.69a34.26,34.26,0,0,1-4.38-.27,5.12,5.12,0,0,0-1.78,3.92m8.62-19.36c3.89,0,6.84-3.16,6.84-7.92s-2.88-8-6.77-8c-3.56,0-6.43,3.23-6.43,8s2.66,8,6.36,8"
            transform="translate(43.78 44.09)" fill="#164f3c" />
      <path d="M208.08,156.43c0-.62-.14-.89-.28-.89a23.08,23.08,0,0,0-2.59,1.92,13.31,13.31,0,0,1-8.21,3c-8.48,0-14.71-6.68-14.71-17,0-11.43,7-19.28,16.83-19.28,4.79,0,7.73,2.06,8.27,2.06s.48-.62.48-1.72v-2.49c0-3.17-.41-4.21-2.19-4.82s-3.07-.56-3.07-2.14,1.43-2.2,4.3-3.24a21.53,21.53,0,0,1,7.12-1.51c1.57,0,2.18.82,2.18,2.89,0,1.17-.41,7.32-.41,21.78,0,11.78.07,17.77,1,18.46,1.51,1.1,4.24.41,4.24,2.48,0,1.65-1.85,2.2-5.4,3.37a20.66,20.66,0,0,1-5.75,1.1c-1.3,0-1.84-.68-1.84-2.27Zm-.35-19.84c0-1.92,0-3.23-.68-4.13a9.62,9.62,0,0,0-7.38-3.51c-5,0-8.49,4.34-8.49,11.91,0,8.2,4,13.3,9,13.3s7.59-2.69,7.59-8Z"
            transform="translate(43.78 44.09)" fill="#164f3c" />
    </g>
    <g clip-path="url(#e)">
      <polygon points="266.35 178.77 177.57 89.36 88.79 178.77 177.57 268.18 266.35 178.77"
               fill="url(#f)" />
    </g>
    <g clip-path="url(#a)">
      <path d="M88.79,180V89.36h90V180Zm89.39-.61v0ZM90,178.77h87.56V90.59H90Z"
            transform="translate(43.78 44.09)" fill="#142715" />
      <path d="M96,110.42h23.22c8.11,0,14.63,4.12,14.63,12.35,0,5.45-3,9-8.39,10V133c6.79.7,10.6,6.35,10.6,12.28,0,12.43-8.8,14.88-19.06,14.88H96v-49.7Zm9.29,20h11c4.09,0,7.83-1.61,7.83-6.35,0-3.77-2.42-6.21-7.83-6.21h-11Zm0,21.5h12.06c5.61,0,9-1.75,9-6.92,0-5.58-3.46-7.6-9.08-7.6h-12v14.52Z"
            transform="translate(43.78 44.09)" fill="#fff" />
      <path d="M171.24,154.18c0,3.63.83,5.17,1.32,5.94h-8.94a6.8,6.8,0,0,1-.83-3.22,17.6,17.6,0,0,1-11.44,4c-6.66,0-11.92-4.26-11.92-11.09s5.47-10,10.67-11l3.54-.69a86.64,86.64,0,0,0,9.15-2.1v-1c0-3.49-3-4.47-6.66-4.47-4.92,0-6.52,1.46-6.52,5.31l-8.45-.36c0-8.3,7.28-11.51,15-11.51s15.11,1.54,15.11,11.58v18.64Zm-8.45-11.73a15.2,15.2,0,0,1-4,1.26l-4.65,1c-3.19.63-5.82,1.53-5.82,4.88,0,2.66,2.42,4.4,5.48,4.4,3.95,0,9-1.95,9-6.49v-5Z"
            transform="translate(43.78 44.09)" fill="#fff" />
      <path d="M156.85,97.7h5.64l-.2,1.77h-3.9l-.31,2.12a2.71,2.71,0,0,1,1.81-.72c2.15,0,3.18,1.6,3.18,3.49a3.52,3.52,0,0,1-3.76,3.69c-1.88,0-3.43-1-3.52-3l2.08-.17a1.48,1.48,0,0,0,1.46,1.57c1.21,0,1.66-1,1.66-2.09,0-1.35-.68-1.91-1.69-1.91a1.41,1.41,0,0,0-1.44,1l-1.72-.14Z"
            transform="translate(43.78 44.09)" fill="#fff" />
      <path d="M169.15,100.36A1.16,1.16,0,0,0,168,99.2c-1.44,0-1.77,1.89-1.77,3.09h0a2.29,2.29,0,0,1,2-.94c1.88,0,3,1.36,3,3.35a3.25,3.25,0,0,1-3.37,3.35c-2.94,0-3.6-2.65-3.6-5,0-3.21,1.24-5.52,3.76-5.52a2.89,2.89,0,0,1,3.11,2.59Zm-2.82,4.34c0,1,.52,1.67,1.47,1.67s1.47-.63,1.47-1.67-.52-1.68-1.47-1.68-1.47.63-1.47,1.68"
            transform="translate(43.78 44.09)" fill="#fff" />
    </g>
  </g>
</svg>