<svg xmlns="http://www.w3.org/2000/svg" width="489.13" height="512" viewBox="0 0 489.13 512">
  <path d="M288.12,351.86c0,15.51-7,5.51-14.75,13.4-2.29,2.36-12.78,12.73-16.08,12.73h-6.7c-4,0-5.83-4.43-8.4-7-1.65-1.64-8.68-5.56-9-6.4-4.24.1-5.77,2-10.72,2h-1.34c-3.58,0-7.32-9.81-5.14-13.17,1.46-2.25,9.29-7.23,11.84-8.94,0-13.72,2.41-34.89,4-48.29,1.2-10.32,1.12-13.17,4.46-21.67,1-2.5,7.64-18.15,7.64-18.48v-2l4.69-.17,3.36-.05,6,.22c2.22,3.3,4.33,18.91,7.16,25,3.34,7.15,2.33,18.58,3.83,27,1.35,7.51.58,24.14,3.08,29.09,3.33,6.61,16.09,10.41,16.09,16.74Zm-25.47-95.14c2.6.69,6.63,5.4,6.71,8.71,3.29,1.74,9.35,19.11,10.85,24,2.28,7.41,7.08,18,9.85,25.67,3.43,9.52,7.39,15.21,15.33,20.18,5.24,3.27,18.94,8.56,26.95,8.56,12.28,0,28-1.46,36.84-6a47.91,47.91,0,0,0,12.57-9.54c2.79-2.78,8.71-10.29,11.37-11.79l-2.37,12.21-6.82,19.85c0,4.9-13,35.33-15.59,39.15l2.19,1v2a60.72,60.72,0,0,1-3.35,8c0,9.59-6,10-6,18.76-4.94.11-3.1,5.21-5.26,10.16-1.08,2.47-4.09,7.15-5.84,10.24s-10.79,18.52-11,21.15c-4,.33-3.25,4.71-5.22,8.18-1.66,2.94-3.46,6-4.86,8.57l.36,3-1.67,2.35c-1.4-.58-11,5.52-14.22,6.55-5,1.61-10.44,4.23-15.92,6.19-5,1.79-30.17,10-34.86,10l-10.09.26-8.67-1.6v-2h-6.7c-1.5,0-1.47-.53-2.68-1.34-12,0-49-11.1-53.35-17-2.8-3.81-10-17.88-12.31-22.53-1.39-2.81-4.14-9.29-5.76-11.67-2.18-3.21-6.35-7.74-5.63-11.11-5.11-3.42-9.33-15.69-12.73-20.78,0-11.1-2.36-15.23-6.83-22-3.82-5.75-8.59-11.83-12.08-17.4-5.18-8.28-15.26-31.21-15.26-43.7,2.54,1.7,8,4.69,12.06,4.69,16.62,0,29.87-1.34,46.23-1.34,18,0,26.58-4.24,33.49-15.42,6.28-10.15,11-21.17,16.32-32.6,2.7-5.83,13.71-29.92,19.2-30.37,0,9.09-8,17.95-6.7,24.12-5.23,7.81-1.07,19.31-3.08,30.42a149.81,149.81,0,0,0-1.6,15.82c0,4.74-2,9.19-2,15.4-2.27.19-9.59,5.33-11.28,6.8-3.11,2.72-5,7-7.67,10.43-4.39,5.67-8.31,18-10.4,25.78-2.8,10.38-4.28,18.56-6.29,29.89-2.69,15.16-5.18,18,6.31,25.75l2.53-2.83c-12.81-6.78-6.49-16.67-4.62-31.43,1.06-8.38,8.64-26.35,8.64-34.24,3.39-5.06,4.23-12,9.38-15.41C217.51,372,213.29,370,230.49,370h3.35c5.73,0,8.32,8.88,12.85,11.28,6.71,3.55,12.86-.41,19.31-.56.19-2.21,5.61-9.2,7.21-10.88,4.09-4.31,4.19-5.87,12.9-5.87l1.77-.16,2.25-3.86c5.07.42,13.52,16.08,14.07,16.08,1.89,0,2.4-1.93,3.35-3.35a71.73,71.73,0,0,1-7.36-9.39c-2.94-4.75-4.79-5.67-7.4-9.35-3.45-4.87-1.14-6-6.68-10.07-3.61-2.64-5.68-5.56-9.38-8,0-4.51-1.83-15.59-2.73-20-1.48-7.26-.95-13.65-2.1-21.35-1.64-10.88-9.25-27.48-9.25-37.66Zm-171-88.15,142.77,8.54,0-.8c2.36.14,4.53-1.57,6.15-1.89,2-.4,6.38-.06,8.62-.09,4.89-.07,10.64-.7,16.72-.7h7.38c10.25,0,8.76.16,17.54-1.21,5.68-.89,15.62.24,19-.38,6.93-1.26,31.54-1.09,38.48-1.09,1.19-.8,6.94-3.35,8.71-3.35l9.39-.22,30.58,2.26,1.57,10.69c-.37.54-1.34,1.66-1.34,2,0,3.94,3.35,14,3.35,16.75l.09,16.76L400,221.3l-.68-.1V205.79H398l.22,4.72-1.56,15.38c-.21,1.83.67,1.66,2,2v1.34c-8.73,2-36.67,1.14-45.54,2.22l-85.79,7.83H260l-6.71-.66-8.08-.25-10,1.59c-2.51.43-26.93-.37-32.13-.74-9.38-.68-23.91-2-34.86-1.94-12.36.07-24.26-1.39-38.21-1.33-4.72,0-14.57-1.59-18.33-1-1.9.32-13.3.95-16.5.95l-.12-4-3.91-26.15c-1.71-9.8,3.4-26,4-33.5l-1.22.05-2.39,4.59L93.1,169l-1.41-.47ZM310.24,1c-1.59-.19-1.43.26-2.69,1.1-2.51-1.59-11.43.09-15,.37-5.82.44-10-.37-14.47-.37l-4,.18L239.2,1,227.14.76h-3.35c-4.63,0-7.93,1.86-12.2,1.49A82.12,82.12,0,0,0,199,2.7c-9.73,1-17,2-26.09,2.11-12.9.13-44,3.92-50.27,9.35-.82-.46-.72-.67-2-.67h-2c-.82,3.06-3.93,6.85-5.61,12.48-1.09,3.63-3.1,11.11-3,15.07L108.55,43c0,8.9-8.46,39-11.14,48.5-2.32,8.23-3.49,15.87-5.47,24-1,4.29-1.48,7.65-2.52,12.22-.87,3.8-3.41,7.17-4.33,11.09H71c-7.27,0-21.66-.25-26.73-2.08-6.59-2.37-11.14-8.64-20.17-8.64-8.75,0-9.64,3.72-13.91,8.19-2,2.12-4.21,3.83-5.78,5.62-3.31,3.74-2.17,3.59-4.43,7,5.09,9.61,11.2,11.41,23.7,13.83,9.06,1.75,24.09,4.26,33.92,4.26v2.13L69,168.27H79.73a9.52,9.52,0,0,1,5,2l-2.35,15.45c-.26,2.06,0,.61.77,2.09l-.92,1.89.41,6.08-.26,6.69v4H81.07c0,7.14,3.35,13.71,3.35,18.09,0,1.81-.32,1.85-.67,3.35,1.31,2.48,1.09,3.71,2.38,6.36,2,4.09,1.17,3.76-2.61,4.8-10.85,3-6.55,6.74-9.42,7.79l1.61,1.82a4.27,4.27,0,0,0-.67,2.69V252c0,4.69,3.72,18.66,5.25,22.22,1.43,3.34,5.29,19.77,7.48,20.66v2c0,4.93,9.67,19.57,11.81,25.05,1.62,4.17,3,9.34,4.48,13.61,1.78,5,1.32,11.57,5.16,13.6,0,17.35,12.73,30.13,13,38.06l16.57,30,.62-.35.57,3.07,3.9,9.17L138,422.88c.3,3.68,7.52,13.32,11.39,13.41.82,3.08,8.41,17.36,10.45,20.37,3.38,5,4.65,19,11.66,19.16.3,3.58,4.23,6.8,6.18,9.9,2.9,4.64,4.17,5.52,9.38,7.37,3.17,1.13,23.84,9.53,24,9.53,4.19,0,6.94.15,10.72,2.68,7.63,0,9.14,0,15,1.76,3.77,1.15,12.57,3.6,16.58,3.5l1.93,1.44c7.7-.17,11.57-4.86,19.16-6.31,5.71-1.09,15.26-4.56,19-7.09,6.19,0,25.43-6,26.8-9.38,2.88,1.38,3.64-.26,6-1.42,3.74-1.89,4.9-.18,4.1-3.94,4.65-1.24,5.25-12.68,8.86-14.11l-.84-2.76,2-.55c7.18-15,16.47-28.66,23.7-43.31,2.85-5.77,6-18.76,8.33-25.17,3.58-9.7,4.93-15.33,9.59-24l-.33-2.51L388,352.53l1.51-.19,3.18-7.18c0-7.42,4.1-18.64,5.23-26.27A206.71,206.71,0,0,1,403.48,293c1.95-7.38,5.45-14.64,7.55-23.95,1.06-4.71,4.75-23.56,3.05-27.1,1.36-1,2-1.53,2-4V234.6c0-1.7-2-2.87-3.35-3.35l.22-2-1.56-13.38-.12-10.07,2.13-14.72v-.67c0-3.78-1.34-3.66-1.34-8h1.34v-2c0-4-1.26-5-1.34-8.71l6.05-.16,11.37.83V171c10.9,0,20.24-.66,30.95-.93,5.18-.13,8.2.28,13.48-1.55,2.19-.76,15-1.38,10.52-2.88,2.33-3.49,4.69-2.54,4.69-6.7v-13.4c0-3.54-11.17-18.09-15.41-18.09-11.2,0-15.47,11.39-26.13,11.39H431.5c-8.17,0-14.38-4-21.08-3.92l-3.66-10.61-8.76-25c0-7.29-3.87-20.82-6.43-26.4-1.59-3.48-8.31-21-8.31-24.53-3.69-5.5-6.33-17.37-8.79-24.7-1.36-4.05-2.27-8.68-4.15-12.6-4.25-8.86-1.91-3.85-8.49-8.38L339.71,0,310.24,1ZM300.18,382.68c0,2.16,5.12,15.45,6.7,16.08l-.74.12,2.08,16c3.12,1.26.07,2.68,3.35,2.68s.67-7.46,1.11-12.19l2.26,8.26,2.66-.76v-2c0-6-4-11.83-4-18.09,2.47,1.81,5.36,10,5.36,14.74,3.35,5-.37,9.38,5.36,8v-2c0-7.2-8.12-29.71-13.4-30.15V386l-1.21,0-.83-3.31-.49-.53-2.68,2.68.28.7-3.11-4.87c-1.15.31-2.68.78-2.68,2Zm-49.59,8c0,5.35-2,9.56-2,12.06l-.15,5.38.9,7.53,2.8-1.57,2.48-21.39v-2c0-1.54-.46-2-2-2h-2Zm-10.71-5.3c0,5.69-5.37,14.22-5.37,24.73v4h3.35l-.81-.19,6-25.46.79.19c0,4-3.55,27.47-1.34,27.47,1.54,0,.78-.22,2.68-.67l0-7.36.11-5.23.87-1.55,1.58-7.46.76.16c-1.8-3.4-.75-5.11-4.71-6l.67-3.49-4.66.87Zm52.29-5.4c2,8.6,4.25,14.12,4.25,23.44l-.08,4.68-.18,5.36v.67c0,2.31.49,2.6.67,4.69h1.93l.75-6v-3.35c2,.54,3.35,5.07,3.35,7.37l0,2.1,2.66-.76v-2.68c0-5.79-3-14-4.18-19.94-.52-2.65-1.71-6.3-2.65-9.41-1.06-3.54-3.32-6-3.89-8.17l-1.89.05-.76,2Zm-98.53,42.19h2v-2c0-3.52,2.73-13.3,4.65-14.74l-2,14.74v3.35H201c.69-8.22,2.25-14.52,3.4-22.06,1-6.43,4.66-13.8,6-19.48l-.7.55-4-4.57c-.42,1.83-3.21,6.84-4.35,9.72-1.37,3.44-2.59,7.29-3.62,10.45a75.16,75.16,0,0,0-4.09,24Zm88.5,4.69-4.07-.64-66.37,3.32,0,.67c-2.34,3.51-4,1.11-4,8.05l.56.55,6.15-5.66,98.52-3.49.05-.88,1.93,1.43v-4.69a10.81,10.81,0,0,0-2-1.36l-30.76,2.7Zm-115,2,.34,2.05c0,6.62,1.45,10.35,3.68,15.08.94,2,5,12.39,6.37,12.39,1.1,0,2-.4,2-1.34s-5.69-13.34-6.7-14.07c1.29-2.7-2.07-8.92-1.28-14.67.72-5.12,1.28-11.45,1.93-16.85.72-6,4-32.25-1.28-33.54ZM329.39,191.17c-3.61-.27-15.29-1.94-29.75-2.22s-20.86-3.06-32.26-.84-26.13,2.79-39.48,2.51-20.3-.56-29.2.28-18.35,3.33-17,5.56,7.51,2.5,20.86,1.11,16.4-1.95,34.48-1.95,23.07-2.78,36.7-2.5,18.91,1.39,32.81,2.22,19.19,1.95,22.25,1.39,4.72-3.33.55-5.56ZM248.48,204.8c-12.24.83-35.6,2.5-44.22,3.89s-18.07,1.67-28.36,2.78S157,212,157,214.53s.84,3.89,8.35,3.62,28.36-6.12,43.1-6.4,34.2-2.22,45.88-2.78,20-1.95,30.86-.56,18.07,2.78,27.25,3.34,24.19,0,24.19,0,5.56-3.61-2.22-3.61-25.58-1.95-34.76-2.51S281.29,204,273.22,204s-24.74.84-24.74.84ZM211.77,222c-7.78,2.22-15.57,3.06-20,4.73s-10.56,4.44-3.61,4.44,20.3-4.44,35.31-6.11,25-2.78,40.32-2.51,24.75.28,35.87.56,12,.28,12.23-1.39,1.95-3.34-10.84-3.06-31.14,0-41.43.28-19.19-.28-28.92,1.11-20.53,2.39-18.91,1.95Zm-52.53,159.3c-3.68,1-4.17,1.53-3.75,4.31a71.47,71.47,0,0,1,.35,12.46,21.33,21.33,0,0,0,1.6,9.82c1.11,2.85,2.15,5.36,3.06,2s-.91-12-.84-16.15.21-6.62.28-8.43a13.26,13.26,0,0,0-.7-4ZM187,385.4c-2.78,4-5.14,15.43-6.53,18.91a34.45,34.45,0,0,0-2,13.07c.28,3.89,2,3.47,3.9-2.65s2.22-8.75,4.17-14.73,4-11.4,4-12.24-.42-4.17-3.62-2.36Zm27.75-1.18c-1.63.14-1.08-2.36-3.3,3.14s-4.56,18.8-5.42,22a23.25,23.25,0,0,0-1.12,6.41c0,1.6,0,2.61,1.67,2.71s1.91-3.09,2.82-7.69.76-7.35,2.12-10.3,2.4-10,3.34-12S216.93,383.63,214.77,384.22Zm4.8-2c-1.84.8-1.6-.7-2.22,3s-2.82,28.27-3.24,31.75-.63,8.29.14,8.7,1.39,1.67,2.08-2.22,1.53-15.32,3-21-.06-10.23,1.88-14.13,1.15-4.88.91-5.78-2.19-.66-2.54-.35Zm7.72,2.61c-2,2.72-1.53,5.43-2.54,8.77s-5.36,25.1-5.84,26.84,2.5,1.19,2.92-.21,3-14.76,3.82-17.61,3.48-14.83,3.83-16.43-.94-1.88-2.19-1.36Zm5.32,2.86c-1.46.69-1.64,1-2.16,4.42s-2.5,21.3-2.54,22.8-.9,5.6-.62,6.12a1.74,1.74,0,0,0,2.71-.66c.45-1.39,1.39-10.75,1.7-13.23s3-14.82,3-16.64-.41-2.64-2.08-2.81Zm26.56.24c-1.32,1.25-1,3.83-1.46,8.49s.56,14.62.49,18.66.28,6.55,1.25,6.62,2-3.07,1.95-7.11-.42-17.4-.56-19.77-.42-7.17-1.67-6.89Zm5.46.73a2.39,2.39,0,0,0-2.19,1.57c-.42,1.35-.1,4.94.38,7.45s1,11.94,1.26,13.57.34,4.84,1.07,5.33,2.3-.14,2.4-3.52-1.91-15.8-2.12-18.59A58.54,58.54,0,0,0,264.63,388.68Zm4.55-3c-1.94.42-2.5.84-1.87,3.41s2.43,13.79,2.43,18,.07,6.89-.07,9.25.07,2.93,1.46,3,2-5.85,2.09-10.86-1.32-17.76-1.6-19.77S270.16,385.3,269.18,385.65Zm6.19-1.67c-1,.42-1.25,4.6-.83,7.73a138.39,138.39,0,0,1,.9,16.71c-.21,4,.91,11,.7,11.76s1.39.42,1.81-.41a20.05,20.05,0,0,0,2.22-11.28c-.69-5.78-1.25-14.69-1.39-17.34s-1.88-8.07-3.41-7.17Zm6.33.14c-1.6.56-1.74,2.78-1.6,5.43s2.23,13.09,2.51,17.68a43.54,43.54,0,0,0,2.85,12.12c.69,1.39,1.46.76,2.22-.21s-.9-7.87-1.6-11.14-2.64-17.68-2.71-19.22-1.67-4.66-1.67-4.66Zm5.91-1.46c-.55.07-3.61.42-1.81,6.12s4.52,10.94,4.59,15.25.42,7.73.28,11.21,1.74,4,2.57,3.41.35-14-.76-19.21-2.36-10.93-2.71-12.67A13.27,13.27,0,0,0,287.61,382.66Zm33.86-3.8c-2.51.28-2.37,1.95-.14,5.43s8.9,38.79,9.31,47.27.56,20.3-.41,22.66,1.53,4.31,2.5-2.36,3.75-38.79-1.53-54.23-9.73-18.77-9.73-18.77Zm17.65,14.19c-.27,2.22,1.67,3.05,1.81,7.09s-.14,12.37-.28,13.62,4.73,2.5,4-4.73S342.74,388.87,339.12,393.05Zm10-4c-1.8,2.37-1.66,1.12-1.11,6.12s2.92,4.59,3.06-.28S349.13,389,349.13,389Z"
        fill="#1f1a18" /></svg>