<?xml version="1.0" encoding="UTF-8" standalone="no"?>
<!-- Created with Inkscape (http://www.inkscape.org/) -->

<svg
     xmlns:svg="http://www.w3.org/2000/svg"
     xmlns="http://www.w3.org/2000/svg"
     version="1.1"
     width="1341.9857"
     height="726.67108"
     id="svg1901">
  <defs
        id="defs1903" />
  <g
     transform="translate(519.01873,327.00547)"
     id="layer1">
    <g
       transform="matrix(4.0951654,0,0,4.0951654,-1813.091,-754.96625)"
       id="1">
      <path
            d="m 317.35,247.9 0,-60.25"
            id="2"
            style="fill:none;stroke:#000000;stroke-width:0.80000001px;stroke-linecap:butt;stroke-linejoin:miter;stroke-miterlimit:4;stroke-opacity:1;stroke-dasharray:none" />
      <path
            d="m 318.65,248.35 -2.65,1.5 0,-64.2 2.65,1.55 0,61.15 z"
            id="3"
            style="fill:#000000;fill-opacity:1;fill-rule:evenodd;stroke:none" />
      <path
            d="m 328.6,241.4 0,-47.25"
            id="4"
            style="fill:none;stroke:#000000;stroke-width:0.80000001px;stroke-linecap:butt;stroke-linejoin:miter;stroke-miterlimit:4;stroke-opacity:1;stroke-dasharray:none" />
      <path
            d="m 327.3,192.95 0,49.65 2.6,0 0,-49.65 -2.6,0 z"
            id="5"
            style="fill:#000000;fill-opacity:1;fill-rule:evenodd;stroke:none" />
      <path
            d="M 370.4,279.25 318.55,250.3"
            id="6"
            style="fill:none;stroke:#000000;stroke-width:0.80000001px;stroke-linecap:butt;stroke-linejoin:miter;stroke-miterlimit:4;stroke-opacity:1;stroke-dasharray:none" />
      <path
            d="m 371.6,278.95 0,3 -55.6,-32.1 2.65,-1.5 52.95,30.6 z"
            id="7"
            style="fill:#000000;fill-opacity:1;fill-rule:evenodd;stroke:none" />
      <path
            d="m 424.7,250.3 -51.9,28.95"
            id="8"
            style="fill:none;stroke:#000000;stroke-width:0.80000001px;stroke-linecap:butt;stroke-linejoin:miter;stroke-miterlimit:4;stroke-opacity:1;stroke-dasharray:none" />
      <path
            d="m 424.6,248.35 2.6,1.5 -55.6,32.1 0,-3 53,-30.6 z"
            id="9"
            style="fill:#000000;fill-opacity:1;fill-rule:evenodd;stroke:none" />
      <path
            d="m 413.4,243.8 -40.6,22.45"
            id="10"
            style="fill:none;stroke:#000000;stroke-width:0.80000001px;stroke-linecap:butt;stroke-linejoin:miter;stroke-miterlimit:4;stroke-opacity:1;stroke-dasharray:none" />
      <path
            d="m 413.95,241.45 1.3,2.3 -43,24.8 -1.3,-2.25 43,-24.85 z"
            id="11"
            style="fill:#000000;fill-opacity:1;fill-rule:evenodd;stroke:none" />
      <path
            d="m 425.9,187.65 0,60.25"
            id="12"
            style="fill:none;stroke:#000000;stroke-width:0.80000001px;stroke-linecap:butt;stroke-linejoin:miter;stroke-miterlimit:4;stroke-opacity:1;stroke-dasharray:none" />
      <path
            d="m 424.6,187.2 1.3,-0.75 1.3,0.75 0,62.65 -2.6,-1.5 0,-61.15 z"
            id="13"
            style="fill:#000000;fill-opacity:1;fill-rule:evenodd;stroke:none" />
      <path
            d="m 372.8,156.3 51.9,28.95"
            id="14"
            style="fill:none;stroke:#000000;stroke-width:0.80000001px;stroke-linecap:butt;stroke-linejoin:miter;stroke-miterlimit:4;stroke-opacity:1;stroke-dasharray:none" />
      <path
            d="m 371.6,156.6 0,-3 54.3,31.3 0,1.55 -1.3,0.75 -53,-30.6 z"
            id="15"
            style="fill:#000000;fill-opacity:1;fill-rule:evenodd;stroke:none" />
      <path
            d="m 372.8,169.3 40.6,22.45"
            id="16"
            style="fill:none;stroke:#000000;stroke-width:0.80000001px;stroke-linecap:butt;stroke-linejoin:miter;stroke-miterlimit:4;stroke-opacity:1;stroke-dasharray:none" />
      <path
            d="m 370.95,169.25 1.3,-2.25 43,24.8 -1.3,2.25 -43,-24.8 z"
            id="17"
            style="fill:#000000;fill-opacity:1;fill-rule:evenodd;stroke:none" />
      <path
            d="M 318.55,185.25 370.4,156.3"
            id="18"
            style="fill:none;stroke:#000000;stroke-width:0.80000001px;stroke-linecap:butt;stroke-linejoin:miter;stroke-miterlimit:4;stroke-opacity:1;stroke-dasharray:none" />
      <path
            d="m 318.65,187.2 -2.65,-1.55 55.6,-32.05 0,3 -52.95,30.6 z"
            id="19"
            style="fill:#000000;fill-opacity:1;fill-rule:evenodd;stroke:none" />
      <path
            d="m 479,156.3 -51.9,28.95"
            id="20"
            style="fill:none;stroke:#000000;stroke-width:0.80000001px;stroke-linecap:butt;stroke-linejoin:miter;stroke-miterlimit:4;stroke-opacity:1;stroke-dasharray:none" />
      <path
            d="m 480.2,153.6 0,3 -53,30.6 -1.3,-0.75 0,-1.55 54.3,-31.3 z"
            id="21"
            style="fill:#000000;fill-opacity:1;fill-rule:evenodd;stroke:none" />
      <path
            d="M 533.25,185.25 481.4,156.3"
            id="22"
            style="fill:none;stroke:#000000;stroke-width:0.80000001px;stroke-linecap:butt;stroke-linejoin:miter;stroke-miterlimit:4;stroke-opacity:1;stroke-dasharray:none" />
      <path
            d="m 534.45,184.9 0,3.05 -54.25,-31.35 0,-3 54.25,31.3 z"
            id="23"
            style="fill:#000000;fill-opacity:1;fill-rule:evenodd;stroke:none" />
      <text
            x="572.79999"
            y="136"
            id="24"
            xml:space="preserve"
            style="font-size:44px;font-style:normal;font-weight:normal;text-align:start;text-anchor:start;fill:#000000;font-family:Arial">H</text>
      <text
            x="572.79999"
            y="172.8"
            id="25"
            xml:space="preserve"
            style="font-size:44px;font-style:normal;font-weight:normal;text-align:start;text-anchor:start;fill:#000000;font-family:Arial">N</text>
      <path
            d="m 566.8,168.3 -31.15,16.95"
            id="26"
            style="fill:none;stroke:#000000;stroke-width:0.80000001px;stroke-linecap:butt;stroke-linejoin:miter;stroke-miterlimit:4;stroke-opacity:1;stroke-dasharray:none" />
      <path
            d="m 567.35,165.95 1.3,2.25 -34.2,19.75 0,-3.05 32.9,-18.95 z"
            id="27"
            style="fill:#000000;fill-opacity:1;fill-rule:evenodd;stroke:none" />
      <path
            d="M 641.85,185.25 609.8,167.75"
            id="28"
            style="fill:none;stroke:#000000;stroke-width:0.80000001px;stroke-linecap:butt;stroke-linejoin:miter;stroke-miterlimit:4;stroke-opacity:1;stroke-dasharray:none" />
      <path
            d="m 643.7,185.3 -1.3,2.25 -34.45,-19.85 1.35,-2.3 34.4,19.9 z"
            id="29"
            style="fill:#000000;fill-opacity:1;fill-rule:evenodd;stroke:none" />
      <path
            d="m 534.45,186.45 c -2.4,0 -4.35,1.8 -4.35,4.05 0,2.25 1.95,4.05 4.35,4.05 2.45,0 4.4,1.85 4.4,4.1 0,2.25 -1.95,4.05 -4.4,4.05 -2.4,0 -4.35,1.85 -4.35,4.1 0,2.25 1.95,4.05 4.35,4.05 2.45,0 4.4,1.8 4.4,4.05 0,2.25 -1.95,4.1 -4.4,4.1 -2.4,0 -4.35,1.8 -4.35,4.05 0,2.25 1.95,4.1 4.35,4.1 2.45,0 4.4,1.8 4.4,4.05 0,2.25 -1.95,4.05 -4.4,4.05 -2.4,0 -4.35,1.85 -4.35,4.1 0,2.25 1.95,4.05 4.35,4.05 2.45,0 4.4,1.85 4.4,4.1"
            id="30"
            style="fill:none;stroke:#000000;stroke-width:2.4000001px;stroke-linecap:butt;stroke-linejoin:miter;stroke-miterlimit:4;stroke-opacity:1;stroke-dasharray:none" />
    </g>
  </g>
</svg>