<svg xmlns="http://www.w3.org/2000/svg" xmlns:xlink="http://www.w3.org/1999/xlink"
     xml:space="preserve"
     style="shape-rendering:geometricPrecision; text-rendering:geometricPrecision; image-rendering:optimizeQuality; fill-rule:evenodd; clip-rule:evenodd"
     viewBox="0 0 222.312 274.758">
  <defs>
    <style type="text/css">
      .fil0 {
        fill: #00923F
      }

      .fil1 {
        fill: #1F1A17;
        fill-rule: nonzero
      }
    </style>
  </defs>
  <g id="Layer_x0020_1">
    <metadata id="CorelCorpID_0Corel-Layer"></metadata>
    <path class="fil0"
          d="M22.1136 225.928l37.5 0c2.54531,0 4.62757,2.08226 4.62757,4.62757l0 39.5744c0,2.54531 -2.08226,4.62767 -4.62757,4.62767l-37.5 0c-2.54531,0 -4.62767,-2.08236 -4.62767,-4.62767l0 -39.5744c0,-2.54531 2.08236,-4.62757 4.62767,-4.62757zm18.5586 13.7405l0 27.1542 -7.99921 0 0 -11.4044 -2.39405 0 0 11.4044 -8.00539 0 0 -27.1542 8.00539 0 0 9.70975 2.39405 0 0 -9.70975 7.99921 0zm20.3775 16.4196l-9.94545 0 0 4.81477c0,1.00766 0.0842293,1.65462 0.246613,1.94665 0.168562,0.286256 0.48643,0.435048 0.953604,0.435048 0.583839,0 0.973168,-0.194716 1.16768,-0.578279 0.19451,-0.389329 0.298304,-1.13349 0.298304,-2.23846l0 -2.93701 7.27925 0 0 1.64309c0,1.37413 -0.103794,2.43328 -0.29851,3.17168 -0.194613,0.738603 -0.6553,1.52292 -1.37537,2.3646 -0.726658,0.835806 -1.64124,1.46567 -2.75063,1.88352 -1.10291,0.423618 -2.49774,0.629867 -4.17152,0.629867 -1.62198,0 -3.04914,-0.206249 -4.29487,-0.618437 -1.23914,-0.412188 -2.20572,-0.978934 -2.89325,-1.70034 -0.694326,-0.721304 -1.17447,-1.51716 -1.44045,-2.38169 -0.265971,-0.870095 -0.395713,-2.12973 -0.395713,-3.78435l0 -6.49225c0,-1.94654 0.298407,-3.48079 0.888733,-4.60296 0.596813,-1.12206 1.57657,-1.9866 2.93248,-2.58207 1.3558,-0.601138 2.91291,-0.898721 4.67092,-0.898721 2.15403,0 3.9316,0.3606 5.33302,1.08201 1.40121,0.721304 2.38077,1.67738 2.94514,2.86823 0.564584,1.19085 0.850016,2.86256 0.850016,5.02091l0 2.95421zm-7.70081 -3.62402l0 -1.626c0,-1.15069 -0.0712551,-1.89495 -0.20769,-2.2327 -0.142613,-0.332078 -0.428149,-0.503832 -0.856297,-0.503832 -0.531942,0 -0.862887,0.143128 -0.985936,0.429384 -0.129742,0.286153 -0.194716,1.05338 -0.194716,2.30714l0 1.626 2.24464 0zm6.40998 -16.8318c0.4334,0.13036 0.758064,0.341963 0.971109,0.637075 0.213148,0.294803 0.319721,0.98295 0.319721,2.06877 0,0.805739 -0.104103,1.4319 -0.312514,1.87652 -0.208205,0.444521 -0.566643,0.782159 -1.07758,1.01291 -0.511142,0.233021 -1.16727,0.348347 -1.96662,0.348347 -0.908194,0 -1.62033,-0.134582 -2.13858,-0.403848 -0.518247,-0.269266 -0.859592,-0.598461 -1.02177,-0.98954 -0.164855,-0.39108 -0.244759,-1.06862 -0.244759,-2.03252l0 -0.801414 2.86503 0 0 1.64772c0,0.438137 0.0314058,0.716052 0.0895838,0.835703 0.058075,0.117489 0.191318,0.177417 0.394683,0.177417 0.220561,0 0.36822,-0.0748591 0.438446,-0.224371 0.0724908,-0.149718 0.106574,-0.542857 0.106574,-1.17767l0 -0.701019c0,-0.388917 -0.0483958,-0.673217 -0.147865,-0.850531 -0.0992629,-0.179579 -0.246922,-0.29923 -0.440608,-0.354937 -0.193892,-0.0555008 -0.569114,-0.0895838 -1.12865,-0.0960709l0 -1.47257c0.680631,0 1.10188,-0.0235801 1.26426,-0.068372 0.159809,-0.0470572 0.276062,-0.14529 0.346288,-0.301393 0.0724908,-0.153837 0.106574,-0.395301 0.106574,-0.726658l0 -0.56201c0,-0.354834 -0.0411879,-0.589914 -0.123564,-0.701019 -0.0823759,-0.113267 -0.210573,-0.17093 -0.387476,-0.17093 -0.198629,0 -0.33424,0.0597225 -0.406731,0.179476 -0.0726967,0.119651 -0.111516,0.371927 -0.111516,0.760844l0 0.833438 -2.86503 0 0 -0.865462c0,-0.968226 0.249393,-1.62219 0.750753,-1.96199 0.501257,-0.339904 1.29814,-0.510833 2.39271,-0.510833 1.3659,0 2.29355,0.235183 2.78039,0.707506 0.486842,0.472323 0.731395,1.12618 0.731395,1.96621 0,0.568497 -0.0873184,0.978729 -0.264015,1.2309 -0.174431,0.252276 -0.482105,0.483135 -0.920242,0.69031z">
    </path>
    <path class="fil1"
          d="M77.0361 239.811l0 3.58459 -7.60855 0 0 -3.58459 7.60855 0zm0 4.95913l0 22.551 -7.60855 0 0 -22.551 7.60855 0zm17.7384 7.20377l-6.54744 0 0 -1.21803c0,-1.04401 -0.0625027,-1.70508 -0.19348,-1.98361 -0.124799,-0.278431 -0.443079,-0.417646 -0.954943,-0.417646 -0.418264,0 -0.730159,0.12758 -0.936305,0.382842 -0.20594,0.255159 -0.312102,0.638001 -0.312102,1.14853 0,0.690207 0.0562215,1.20053 0.156102,1.51953 0.106059,0.32487 0.418264,0.678571 0.936202,1.06141 0.518041,0.388608 1.57904,0.951339 3.18939,1.68201 2.14713,0.974507 3.55153,1.89681 4.22557,2.75506 0.66776,0.864329 1.00478,2.11129 1.00478,3.75861 0,1.83276 -0.255777,3.21904 -0.76764,4.15288 -0.511657,0.933731 -1.3731,1.65298 -2.57147,2.15753 -1.19836,0.504758 -2.64633,0.754151 -4.34409,0.754151 -1.87251,0 -3.48285,-0.272664 -4.81868,-0.812123 -1.33552,-0.545122 -2.25298,-1.28177 -2.75238,-2.20973 -0.499404,-0.928067 -0.749003,-2.33752 -0.749003,-4.21682l0 -1.08458 6.54744 0 0 1.42685c0,1.21216 0.0811403,2.00101 0.249702,2.36058 0.162178,0.365543 0.486842,0.545328 0.973683,0.545328 0.52422,0 0.892543,-0.121813 1.09859,-0.365337 0.20594,-0.24373 0.311999,-0.760021 0.311999,-1.53724 0,-1.07882 -0.131081,-1.75152 -0.399523,-2.02418 -0.280902,-0.272664 -1.7163,-1.07295 -4.30054,-2.41279 -2.17194,-1.13112 -3.49521,-2.15773 -3.96949,-3.0857 -0.474382,-0.922198 -0.711625,-2.01852 -0.711625,-3.28865 0,-1.79806 0.255983,-3.12627 0.767846,-3.98473 0.511657,-0.852693 1.37928,-1.51397 2.60884,-1.97785 1.22338,-0.463982 2.64643,-0.695973 4.26923,-0.695973 1.60417,0 2.97727,0.191421 4.10088,0.568394 1.12979,0.382842 1.9972,0.881628 2.59628,1.50212 0.605566,0.626572 0.973786,1.20073 1.09859,1.73432 0.131184,0.53359 0.193583,1.36888 0.193583,2.4998l0 1.30504zm19.274 4.47188l-9.56847 0 0 4.87789c0,1.02095 0.0812432,1.67625 0.237346,1.97218 0.162178,0.289963 0.468101,0.440814 0.917461,0.440814 0.561701,0 0.936202,-0.197187 1.1234,-0.585899 0.187302,-0.394375 0.287183,-1.14832 0.287183,-2.26781l0 -2.97542 7.00308 0 0 1.66461c0,1.39205 -0.0999837,2.465 -0.287183,3.21328 -0.187199,0.748179 -0.630381,1.5429 -1.32327,2.39539 -0.698959,0.846824 -1.57894,1.48483 -2.64643,1.90834 -1.0609,0.429178 -2.4029,0.638001 -4.01335,0.638001 -1.5603,0 -2.93341,-0.208823 -4.13187,-0.626469 -1.19208,-0.417543 -2.122,-0.991806 -2.78358,-1.72269 -0.667965,-0.730674 -1.12979,-1.53703 -1.38577,-2.41279 -0.25588,-0.881525 -0.380783,-2.15773 -0.380783,-3.83388l0 -6.57741c0,-1.97198 0.287183,-3.52641 0.855165,-4.6632 0.574263,-1.13699 1.51664,-2.01275 2.82117,-2.61595 1.30453,-0.608964 2.80243,-0.910562 4.49391,-0.910562 2.07237,0 3.78249,0.365337 5.13068,1.09611 1.34808,0.73088 2.29056,1.69952 2.83373,2.90591 0.54296,1.20639 0.817581,2.90004 0.817581,5.08671l0 2.99282zm-7.40889 -3.67139l0 -1.64731c0,-1.16582 -0.0685779,-1.91977 -0.199659,-2.26204 -0.137362,-0.3363 -0.411879,-0.510422 -0.823862,-0.510422 -0.511863,0 -0.830143,0.144982 -0.948558,0.435151 -0.125005,0.28986 -0.187508,1.06718 -0.187508,2.33731l0 1.64731 2.15959 0zm17.3329 -8.00426l-0.124697 2.07649c0.530398,-0.829422 1.1859,-1.45012 1.95972,-1.8618 0.780203,-0.411879 1.67264,-0.620599 2.68401,-0.620599 1.26684,0 2.30292,0.278328 3.10825,0.835189 0.805121,0.550992 1.32316,1.25283 1.55412,2.09379 0.230961,0.846927 0.343302,2.25628 0.343302,4.22249l0 15.8055 -7.38387 0 0 -15.614c0,-1.55443 -0.0561186,-2.4998 -0.168459,-2.84207 -0.106059,-0.3363 -0.411879,-0.510422 -0.91118,-0.510422 -0.524426,0 -0.855165,0.197187 -0.986245,0.591665 -0.137362,0.388608 -0.199659,1.43262 -0.199659,3.13203l0 15.2428 -7.39015 0 0 -22.551 7.51484 0zm19.4613 -4.95913l0 6.5078c0.605463,-0.655403 1.28578,-1.14842 2.03489,-1.47319 0.7489,-0.319001 1.56658,-0.481384 2.44028,-0.481384 1.01127,0 1.89135,0.144879 2.63397,0.440814 0.742722,0.295729 1.31081,0.707609 1.70395,1.2411 0.387167,0.533693 0.624203,1.05575 0.699062,1.56607 0.0812432,0.504655 0.118724,1.59511 0.118724,3.25972l0 10.1619c0,1.65298 -0.118724,2.88841 -0.355761,3.69456 -0.237243,0.812123 -0.792868,1.51397 -1.67285,2.10563 -0.873699,0.597225 -1.91606,0.893161 -3.12709,0.893161 -0.86124,0 -1.67275,-0.174122 -2.42165,-0.527824 -0.749003,-0.348038 -1.43561,-0.875759 -2.05353,-1.5777l-0.48056 1.69952 -6.90938 0 0 -27.5101 7.38994 0zm2.24701 11.3683c0,-1.16572 -0.0811403,-1.93151 -0.237243,-2.28521 -0.162281,-0.359571 -0.467895,-0.539459 -0.936202,-0.539459 -0.44936,0 -0.742825,0.156617 -0.873699,0.469851 -0.137362,0.313234 -0.199865,1.09622 -0.199865,2.35482l0 9.72108c0,1.21216 0.0749621,1.98361 0.224783,2.32588 0.155999,0.342066 0.455539,0.510422 0.905002,0.510422 0.461923,0 0.767846,-0.174019 0.905105,-0.527824 0.143334,-0.353804 0.212118,-1.19476 0.212118,-2.5346l0 -9.49495zm26.5516 5.2665l-9.56837 0 0 4.87789c0,1.02095 0.0811403,1.67625 0.237243,1.97218 0.162178,0.289963 0.468101,0.440814 0.917564,0.440814 0.561598,0 0.936099,-0.197187 1.1233,-0.585899 0.187508,-0.394375 0.287183,-1.14832 0.287183,-2.26781l0 -2.97542 7.00308 0 0 1.66461c0,1.39205 -0.0997778,2.465 -0.286977,3.21328 -0.187405,0.748179 -0.630484,1.5429 -1.32327,2.39539 -0.699165,0.846824 -1.57915,1.48483 -2.64653,1.90834 -1.061,0.429178 -2.40301,0.638001 -4.01335,0.638001 -1.56041,0 -2.93351,-0.208823 -4.13187,-0.626469 -1.19198,-0.417543 -2.12211,-0.991806 -2.78369,-1.72269 -0.667965,-0.730674 -1.12979,-1.53703 -1.38556,-2.41279 -0.256086,-0.881525 -0.380988,-2.15773 -0.380988,-3.83388l0 -6.57741c0,-1.97198 0.287183,-3.52641 0.855371,-4.6632 0.574057,-1.13699 1.51664,-2.01275 2.82117,-2.61595 1.30432,-0.608964 2.80222,-0.910562 4.49391,-0.910562 2.07217,0 3.78229,0.365337 5.13047,1.09611 1.34808,0.73088 2.29056,1.69952 2.83373,2.90591 0.543063,1.20639 0.817581,2.90004 0.817581,5.08671l0 2.99282zm-7.40868 -3.67139l0 -1.64731c0,-1.16582 -0.0687839,-1.91977 -0.199659,-2.26204 -0.137362,-0.3363 -0.412085,-0.510422 -0.823965,-0.510422 -0.511863,0 -0.830143,0.144982 -0.948661,0.435151 -0.125005,0.28986 -0.187405,1.06718 -0.187405,2.33731l0 1.64731 2.15969 0zm17.208 -8.00426l-0.293464 2.95812c1.07367,-2.11706 2.62779,-3.24221 4.66258,-3.36403l0 7.93455c-1.35457,0 -2.34689,0.16815 -2.98355,0.510422 -0.630279,0.342272 -1.02362,0.811917 -1.16716,1.42098 -0.149718,0.603197 -0.218399,2.00112 -0.218399,4.18778l0 8.90319 -7.39004 0 0 -22.551 7.39004 0zm22.7942 0l0 17.3657c0,2.34905 -0.0561186,3.86291 -0.168562,4.54736 -0.118621,0.684338 -0.530501,1.40935 -1.23584,2.17503 -0.705241,0.765581 -1.69149,1.35138 -2.95225,1.75162 -1.26087,0.400244 -2.85237,0.603094 -4.76864,0.603094 -2.34679,0 -4.23793,-0.371103 -5.66736,-1.11352 -1.42294,-0.742516 -2.15959,-2.1983 -2.20942,-4.37334l7.16526 0c0,0.991806 0.393242,1.49069 1.17344,1.49069 0.561701,0 0.930127,-0.150851 1.11104,-0.458216 0.187302,-0.301702 0.274518,-0.945469 0.274518,-1.91987l0 -1.69941c-0.630484,0.53359 -1.29824,0.933834 -1.99731,1.20639 -0.705241,0.272561 -1.4354,0.411879 -2.20325,0.411879 -1.32944,0 -2.42803,-0.249393 -3.28299,-0.748179 -0.861343,-0.498992 -1.44796,-1.15429 -1.76635,-1.96642 -0.31828,-0.806151 -0.474382,-1.96034 -0.474382,-3.4568l0 -8.18971c0,-2.14033 0.411879,-3.68313 1.24202,-4.62273 0.830143,-0.939703 2.09101,-1.40945 3.78239,-1.40945 0.930127,0 1.77273,0.174019 2.53409,0.527721 0.761565,0.348038 1.44189,0.875862 2.04107,1.5777l0.530501 -1.69952 6.872 0zm-7.4025 5.98574c0,-1.03238 -0.0625027,-1.68788 -0.193583,-1.97198 -0.124697,-0.2843 -0.411879,-0.429281 -0.848884,-0.429281 -0.424339,0 -0.730159,0.162486 -0.905002,0.487253 -0.174637,0.32487 -0.268339,0.957002 -0.268339,1.914l0 7.57498c0,1.00921 0.0686809,1.66471 0.205837,1.96621 0.131184,0.295935 0.412085,0.44658 0.836424,0.44658 0.493123,0 0.805121,-0.179682 0.954943,-0.545122 0.143643,-0.359468 0.218605,-1.18323 0.218605,-2.45923l0 -6.98342zm-66.4726 -90.8326c0,7.04777 -3.19969,2.50495 -6.70015,6.09046 -1.04514,1.07058 -5.80956,5.78649 -7.30859,5.78649l-3.04533 0c-1.81742,0 -2.65302,-2.01327 -3.82183,-3.18259 -0.747046,-0.747149 -3.94158,-2.52534 -4.09614,-2.90818 -1.92945,0.0429384 -2.62378,0.913549 -4.87264,0.913549l-0.608964 0c-1.62826,0 -3.32881,-4.46024 -2.33865,-5.98646 0.664362,-1.02424 4.22527,-3.28731 5.38388,-4.06319 0,-6.23575 1.0923,-15.8559 1.80578,-21.9482 0.549138,-4.68884 0.510422,-5.98492 2.02964,-9.84721 0.447816,-1.13833 3.47348,-8.24922 3.47348,-8.40347l0 -0.913652 2.13179 -0.0760947 1.52643 -0.0224474 2.73714 0.0985422c1.00653,1.50315 1.9658,8.59788 3.25426,11.3635 1.51551,3.25292 1.05513,8.44672 1.73998,12.2688 0.611332,3.41222 0.264324,10.9733 1.3973,13.2204 1.5152,3.00538 7.31261,4.73177 7.31261,7.60978zm-11.5725 -43.2443c1.18045,0.315191 3.01197,2.45552 3.04544,3.95899 1.49842,0.792868 4.25245,8.68551 4.93442,10.9014 1.0368,3.36876 3.21698,8.17756 4.47414,11.6663 1.5601,4.32885 3.36094,6.91247 6.97034,9.17019 2.37943,1.48833 8.609,3.89288 12.2475,3.89288 5.58282,0 12.7068,-0.662302 16.7427,-2.74765 2.32104,-1.19919 3.90534,-2.52431 5.7173,-4.33235 1.26756,-1.26468 3.95445,-4.67782 5.166,-5.35865l-1.07706 5.54853 -3.0996 9.02191c0,2.22538 -5.92952,16.058 -7.08639,17.7933l0.995616 0.478913 0 0.913652c0,0.299436 -1.3141,3.34302 -1.52262,3.6544 0,4.35511 -2.74085,4.56095 -2.74085,8.52704 -2.24711,0.0500434 -1.40976,2.36635 -2.38983,4.61449 -0.490445,1.12515 -1.85789,3.25127 -2.65436,4.65455 -0.833953,1.46897 -4.906,8.41645 -5.00557,9.61224 -1.7994,0.149718 -1.47618,2.14033 -2.37016,3.72051 -0.755799,1.33583 -1.57503,2.71583 -2.20881,3.89566l0.163207 1.36765 -0.761256 1.06594c-0.634397,-0.262058 -5.00959,2.51164 -6.46136,2.97943 -2.26493,0.729747 -4.74784,1.91946 -7.23868,2.81097 -2.28047,0.816139 -13.7098,4.56383 -15.8402,4.56383l-4.58865 0.120166 -3.93839 -0.729233 0 -0.913652 -3.04533 0c-0.68269,0 -0.66848,-0.241052 -1.21813,-0.609067 -5.46337,0 -22.2865,-5.04532 -24.2513,-7.72511 -1.26962,-1.73144 -4.54468,-8.1271 -5.59363,-10.2422 -0.63172,-1.27394 -1.88147,-4.2229 -2.61554,-5.30254 -0.992424,-1.4597 -2.88583,-3.51972 -2.56138,-5.05211 -2.32146,-1.55454 -4.23906,-7.13025 -5.78608,-9.44059 0,-5.04923 -1.06975,-6.92452 -3.10403,-9.99106 -1.73401,-2.61399 -3.90441,-5.37915 -5.48912,-7.91045 -2.3543,-3.76067 -6.93832,-14.1832 -6.93832,-19.861 1.15522,0.773613 3.62186,2.13179 5.4817,2.13179 7.55655,0 13.5769,-0.611435 21.0131,-0.60917 8.16201,0.00257425 12.0795,-1.92801 15.2228,-7.00844 2.85422,-4.61326 5.00897,-9.62408 7.41476,-14.8163 1.22771,-2.64952 6.23472,-13.5984 8.72978,-13.806 0,4.13445 -3.63885,8.16149 -3.04533,10.9633 -2.3785,3.55184 -0.488489,8.77633 -1.40121,13.8258 -0.291817,1.61446 -0.709565,5.73388 -0.726041,7.19183 -0.0244039,2.15464 -0.918182,4.1779 -0.918182,6.99979 -1.03444,0.0860828 -4.3617,2.42185 -5.13006,3.09249 -1.41233,1.23255 -2.28511,3.19577 -3.48193,4.74063 -1.99576,2.5762 -3.77879,8.18271 -4.73105,11.7139 -1.27219,4.71787 -1.94438,8.43859 -2.85793,13.587 -1.22246,6.8892 -2.35338,8.18126 2.86905,11.7007l1.15038 -1.28578c-5.82459,-3.08209 -2.94957,-7.57467 -2.10182,-14.2835 0.481281,-3.80978 3.92912,-11.9759 3.92912,-15.5611 1.54064,-2.30086 1.91987,-5.43506 4.26347,-7.00442 2.93186,6.11013 1.01209,5.17712 8.83162,5.17712l1.52262 0c2.60442,0 3.77992,4.03601 5.83901,5.1244 3.05203,1.61343 5.84282,-0.186375 8.7788,-0.251761 0.0838175,-1.00746 2.54799,-4.18264 3.27527,-4.94729 1.86067,-1.95602 1.90371,-2.6661 5.86084,-2.6661l0.805327 -0.0727997 1.02187 -1.7545c2.30725,0.192039 6.14689,7.3089 6.39525,7.3089 0.861652,0 1.09014,-0.876685 1.52282,-1.52272 -1.18199,-1.35982 -2.36831,-2.68473 -3.3459,-4.26759 -1.33531,-2.16206 -2.17668,-2.57734 -3.36166,-4.25173 -1.5672,-2.21437 -0.516394,-2.73179 -3.03741,-4.57598 -1.63835,-1.19847 -2.57785,-2.52523 -4.26378,-3.65419 0,-2.04982 -0.828393,-7.08669 -1.24089,-9.11345 -0.671466,-3.29854 -0.428972,-6.20157 -0.954428,-9.70429 -0.742001,-4.94636 -4.20004,-12.4891 -4.20004,-17.1176zm-77.7026 -40.0619l64.8902 3.88145 0.0219326 -0.363998c1.06975,0.0645621 2.05888,-0.713272 2.79285,-0.861652 0.887703,-0.179579 2.90272,-0.0258454 3.91862,-0.0403642 2.22044,-0.0319207 4.83649,-0.31622 7.60175,-0.31622l3.34992 0c4.66196,0 3.98483,0.0741383 7.97522,-0.551815 2.57847,-0.404363 7.09998,0.108839 8.64535,-0.171342 3.14954,-0.570968 14.3332,-0.494976 17.4876,-0.494976 0.541621,-0.36266 3.15448,-1.52272 3.95899,-1.52272l4.26923 -0.101734 13.897 1.02939 0.715023 4.85863c-0.170415,0.245171 -0.609067,0.751886 -0.609067,0.913549 0,1.78941 1.52262,6.37095 1.52262,7.61349l0.037584 7.61853 -0.338874 2.47334 -0.307674 -0.0421147 0 -7.00442 -0.609067 0 0.0975125 2.14301 -0.706682 6.9931c-0.0953501,0.828701 0.304688,0.751062 0.913652,0.913652l0 0.609067c-3.96856,0.924566 -16.6669,0.514952 -20.6992,1.00797l-38.9901 3.56008 -3.3492 -0.00720789 -3.04605 -0.297377 -3.67386 -0.115429 -4.54859 0.724496c-1.14121,0.19173 -12.2435,-0.168253 -14.6067,-0.338771 -4.26285,-0.307571 -10.867,-0.910254 -15.8439,-0.882555 -5.61505,0.0311999 -11.0264,-0.632338 -17.365,-0.60258 -2.14599,0.010091 -6.62395,-0.725011 -8.33284,-0.438137 -0.86227,0.144776 -6.04464,0.434842 -7.49981,0.434842l-0.0531324 -1.81793 -1.77417 -11.8862c-0.778864,-4.45695 1.54197,-11.7982 1.8273,-15.2269l-0.552845 0.0224474 -1.08674 2.08524 0.710698 -3.58459 -0.639546 -0.213251zm99.3285 -76.1604c-0.718936,-0.0864947 -0.647989,0.113885 -1.22184,0.498271 -1.13792,-0.721922 -5.19596,0.0401582 -6.82072,0.16537 -2.64355,0.203777 -4.54375,-0.16537 -6.57895,-0.16537l-1.83019 0.0810373 -15.8323 -0.572615 -5.48232 -0.117489 -1.52272 0c-2.10759,0 -3.60528,0.843941 -5.544,0.6761 -1.78601,-0.154764 -4.62407,0.092261 -5.73367,0.204292 -4.42297,0.446683 -7.73829,0.914372 -11.8558,0.958032 -5.86506,0.0622968 -20.0121,1.78426 -22.8515,4.25224 -0.371515,-0.20872 -0.325797,-0.304482 -0.913652,-0.304482l-0.913549 0c-0.370897,1.38896 -1.78261,3.11412 -2.54984,5.67261 -0.494564,1.64886 -1.40914,5.04851 -1.36507,6.84997l-0.653138 0.877097c0,4.04517 -3.84335,17.734 -5.06035,22.0435 -1.05554,3.73811 -1.58934,7.21139 -2.48806,10.9115 -0.473249,1.9487 -0.673011,3.47564 -1.14585,5.55399 -0.393139,1.72845 -1.54949,3.25766 -1.96456,5.03976l-6.39525 0c-3.30492,0 -9.8469,-0.113782 -12.1523,-0.942895 -2.99457,-1.07696 -5.062,-3.92974 -9.16535,-3.92974 -3.9768,0 -4.38065,1.69252 -6.32482,3.72483 -0.920242,0.961944 -1.90927,1.73751 -2.62656,2.55056 -1.50089,1.70086 -0.98501,1.63176 -2.01193,3.16529 2.31147,4.3685 5.09237,5.1869 10.7699,6.28404 4.11756,0.795751 10.953,1.93841 15.4203,1.93841l0.00453067 0.967917 5.17259 -0.35885 4.87253 0c0.950515,0 1.76254,0.557067 2.28387,0.894396l-1.06564 7.02357c-0.118209,0.936099 -0.0104,0.278431 0.348656,0.950309l-0.419705 0.856606 0.187302 2.76289 -0.116253 3.04358 0 1.8273 -0.60917 0c0,3.24262 1.52272,6.23204 1.52272,8.22245 0,0.822523 -0.145393,0.839719 -0.304482,1.52272 0.595063,1.12464 0.492917,1.68304 1.07758,2.88872 0.902428,1.86128 0.531633,1.70981 -1.18632,2.17956 -4.93051,1.34829 -2.97387,3.06727 -4.27778,3.54072l0.732013 0.831585c-0.213354,0.430311 -0.304482,0.505685 -0.304482,1.21824l0 0.304482c0,2.13343 1.68747,8.48245 2.38365,10.1024 0.652417,1.51819 2.40671,8.98597 3.40254,9.38797l0 0.913652c0,2.24361 4.39074,8.89454 5.36329,11.3862 0.740662,1.89732 1.35169,4.24431 2.03726,6.1853 0.809961,2.29334 0.599696,5.25908 2.34462,6.18241 0,7.88327 5.78619,13.6918 5.89255,17.2998l7.53183 13.6132 0.279769 -0.154867 0.261852 1.39195 1.77118 4.16946 -2.6421 -2.82055c0.139009,1.67038 3.42076,6.05164 5.17712,6.09077 0.373884,1.40008 3.82389,7.8913 4.74918,9.25956 1.536,2.27141 2.11521,8.63722 5.30058,8.70816 0.135302,1.62631 1.9243,3.09064 2.80675,4.50205 1.31853,2.10903 1.89732,2.50793 4.26439,3.34909 1.44281,0.512687 10.8358,4.33029 10.8965,4.33029 1.90165,0 3.15314,0.0667245 4.87264,1.21813 3.46555,0 4.15525,-0.00267722 6.81187,0.801517 1.71496,0.519174 5.71524,1.63475 7.53801,1.59058l0.876994 0.653344c3.49964,-0.0780512 5.25713,-2.20778 8.70466,-2.86781 2.59721,-0.497138 6.93718,-2.0734 8.6539,-3.22306 2.81437,0 11.5602,-2.72427 12.1814,-4.26347 1.30967,0.628425 1.65761,-0.116459 2.70492,-0.645003 1.70158,-0.858872 2.22538,-0.0810373 1.86314,-1.79126 2.11377,-0.564378 2.389,-5.76158 4.0255,-6.41265l-0.378723 -1.25356 0.921271 -0.251761c3.266,-6.80651 7.48529,-13.0269 10.7714,-19.6824 1.29567,-2.62439 2.70831,-8.5256 3.786,-11.4409 1.6296,-4.40845 2.24237,-6.9689 4.36119,-10.9147l-0.151778 -1.13802 2.85546 -8.59531 0.686912 -0.085465 1.44477 -3.26445c0,-3.37288 1.86097,-8.47195 2.37479,-11.9385 0.702769,-4.74197 1.42582,-7.47571 2.55334,-11.7599 0.882967,-3.35538 2.47478,-6.65402 3.42745,-10.8857 0.481487,-2.13817 2.16154,-10.706 1.38958,-12.3146 0.616481,-0.451626 0.913652,-0.699165 0.913652,-1.8272l0 -1.52272c0,-0.773819 -0.930642,-1.30834 -1.52272,-1.52262l0.0968946 -0.926523 -0.705961 -6.0779 -0.0552948 -4.57742 0.968946 -6.69036 0 -0.304585c0,-1.72032 -0.609067,-1.66574 -0.609067,-3.6545l0.609067 0 0 -0.913549c0,-1.81175 -0.571998,-2.29262 -0.609067,-3.95899l2.74672 -0.0715641 5.17125 0.376046 0 -0.609067c4.95203,0 9.1983,-0.29923 14.0655,-0.422794 2.35482,-0.0597225 3.72823,0.12933 6.1264,-0.702769 0.995204,-0.345361 6.83452,-0.629455 4.78007,-1.3107 1.06213,-1.58604 2.13179,-1.15553 2.13179,-3.04533l0 -6.09077c0,-1.60726 -5.07466,-8.22245 -7.00432,-8.22245 -5.08959,0 -7.02872,5.17712 -11.877,5.17712l-7.3089 0c-3.7133,0 -6.53838,-1.8272 -9.58155,-1.77911l-1.6641 -4.82558 -3.98112 -11.363c0,-3.30997 -1.76058,-9.46118 -2.9227,-11.9996 -0.722951,-1.57894 -3.77714,-9.55993 -3.77714,-11.1451 -1.67604,-2.50289 -2.87996,-7.89727 -3.9977,-11.2293 -0.616481,-1.83801 -1.03135,-3.94241 -1.88641,-5.72687 -1.92893,-4.0253 -0.865462,-1.74637 -3.85591,-3.80577l-10.0563 -1.20619 -13.3944 0.456774zm-4.57186 173.475c0,0.980994 2.32969,7.01997 3.04544,7.3089l-0.334343 0.0522057 0.94341 7.2567c1.41779,0.572306 0.0309939,1.21813 1.52272,1.21813 1.45527,0 0.304482,-3.3944 0.505994,-5.54256l1.02846 3.75263 1.20639 -0.34186 0 -0.913549c0,-2.74538 -1.8273,-5.37812 -1.8273,-8.22256 1.12227,0.822317 2.43627,4.55044 2.43627,6.69984 1.52241,2.27337 -0.165061,4.26048 2.43637,3.6545l0 -0.913652c0,-3.27197 -3.69116,-13.5045 -6.09077,-13.7042l0 1.21813 -0.546976 -0.0155484 -0.37759 -1.50439 -0.225916 -0.239611 -1.21813 1.21813 0.127065 0.316735 -1.41285 -2.21159c-0.519586,0.1387 -1.21824,0.353804 -1.21824,0.913549zm-22.5357 3.6545c0,2.43029 -0.913652,4.34347 -0.913652,5.4816l-0.0690928 2.44502 0.410541 3.4222 1.2725 -0.714508 1.1269 -9.72077 0 -0.913549c0,-0.70174 -0.211912,-0.913652 -0.913652,-0.913652l-0.913549 0 0 0.913652zm-4.86759 -2.4097c-0.00504552,2.58434 -2.44131,6.46259 -2.44131,11.2412l0 1.8273 1.52272 0 -0.368323 -0.0875244 2.74909 -11.5705 0.359983 0.085568c0,1.8169 -1.61539,12.486 -0.609067,12.486 0.697621,0 0.354113,-0.103176 1.21824,-0.304482l0.013798 -3.34889 0.0470572 -2.37644 0.395713 -0.702254 0.717082 -3.39142 0.348965 0.0738294c-0.818404,-1.54681 -0.342581,-2.32413 -2.1426,-2.74363l0.303143 -1.58543 -2.11449 0.39664zm23.7655 -2.45655c0.895529,3.90904 1.93048,6.42058 1.9312,10.6558l-0.037584 2.12839 -0.0830967 2.43627 0 0.304585c0,1.04988 0.225298,1.17911 0.304585,2.13168l0.877097 -0.0054574 0.341036 -2.73539 0 -1.52262c0.91221,0.243524 1.52272,2.30333 1.52272,3.34982l0.0118415 0.950927 1.20629 -0.341757 0 -1.21813c0,-2.635 -1.35931,-6.35005 -1.89691,-9.0665 -0.238066,-1.20279 -0.779482,-2.86256 -1.20485,-4.27685 -0.483032,-1.60664 -1.51191,-2.74095 -1.77088,-3.71072l-0.856812 0.0217266 -0.34464 0.898206zm-44.7837 19.1795l0.913652 0 0 -0.913652c0,-1.60231 1.24223,-6.04804 2.11387,-6.70251l-0.895735 6.70251 0 1.52272 1.21813 0c0.310969,-3.73606 1.02228,-6.60078 1.54424,-10.0282 0.444727,-2.92064 2.11809,-6.27231 2.71933,-8.85304l-0.317868 0.247128 -1.81392 -2.07433c-0.193171,0.829319 -1.46125,3.10794 -1.97918,4.41607 -0.619879,1.56524 -1.17653,3.31511 -1.64278,4.75237 -1.0575,3.2592 -1.85974,6.68305 -1.85974,10.931zm40.2256 2.13003l-1.85335 -0.291302 -30.165 1.50902 0.0153425 0.306644c-1.06584,1.59171 -1.8273,0.501257 -1.8273,3.6545l0.254336 0.252379 2.79512 -2.57486 44.7756 -1.58213 0.023992 -0.403127 0.876891 0.653241 0 -2.13168c-0.227769,-0.158265 -0.771141,-0.621629 -0.914681,-0.621629l-13.9809 1.22895zm-52.2554 0.900163l0.152807 0.928788c0,3.01238 0.659934,4.70531 1.67244,6.8547 0.427222,0.907062 2.25998,5.63132 2.89562,5.63132 0.498477,0 0.913652,-0.18236 0.913652,-0.609067 0,-0.444006 -2.58774,-6.06009 -3.04533,-6.39536 0.587134,-1.22369 -0.942483,-4.05207 -0.579205,-6.66339 0.324046,-2.32928 0.580132,-5.20667 0.874523,-7.659 0.329607,-2.74518 1.80156,-14.6578 -0.579411,-15.2459l-2.30508 23.1579zm73.7297 -108.04c-1.64288,-0.126344 -6.95088,-0.884614 -13.5227,-1.01106 -6.57174,-0.126344 -9.47848,-1.3902 -14.6601,-0.379135 -5.18155,1.01106 -11.8797,1.26385 -17.946,1.13741 -6.06626,-0.126344 -9.22579,-0.252688 -13.2699,0.126447 -4.04414,0.379135 -8.34107,1.51654 -7.70925,2.5276 0.631926,1.01106 3.41232,1.13741 9.47858,0.505479 6.06626,-0.631926 7.45646,-0.884614 15.6712,-0.884614 8.21473,0 10.4895,-1.26385 16.6821,-1.13741 6.19271,0.126344 8.59397,0.631823 14.9129,1.01096 6.31905,0.379135 8.72031,0.884717 10.1105,0.631926 1.39009,-0.252791 2.14847,-1.51654 0.252688,-2.5276zm-36.7767 6.19261c-5.56068,0.379135 -16.1767,1.13751 -20.0945,1.76933 -3.9178,0.631926 -8.21473,0.75827 -12.8908,1.26385 -4.67607,0.505479 -8.59386,0.252791 -8.59386,1.3902 0,1.13741 0.379135,1.76933 3.79145,1.64288 3.41222,-0.126344 12.8908,-2.78029 19.5889,-2.90674 6.69819,-0.126344 15.5448,-1.01106 20.8528,-1.26375 5.30799,-0.252791 9.09934,-0.884717 14.0282,-0.252791 4.92886,0.631926 8.21473,1.26385 12.3853,1.51654 4.17049,0.252791 10.995,0 10.995,0 0,0 2.5276,-1.64288 -1.01096,-1.64288 -3.53866,0 -11.627,-0.884717 -15.7976,-1.13751 -4.17049,-0.252688 -8.34107,-0.75827 -12.0061,-0.75827 -3.66501,0 -11.2479,0.379135 -11.2479,0.379135zm-16.6821 7.83559c-3.53866,1.01106 -7.07732,1.3902 -9.09945,2.14847 -2.02212,0.75827 -4.80241,2.02212 -1.64288,2.02212 3.15942,0 9.22569,-2.02212 16.0502,-2.78039 6.82464,-0.75827 11.3743,-1.26375 18.3252,-1.13741 6.95088,0.126344 11.2478,0.126344 16.303,0.252791 5.05531,0.126344 5.43444,0.126344 5.56078,-0.631926 0.126344,-0.75827 0.884614,-1.51654 -4.92886,-1.3902 -5.81347,0.126344 -14.1545,0 -18.8307,0.126344 -4.67607,0.126447 -8.72021,-0.126344 -13.1435,0.505582 -4.42338,0.631926 -9.33226,1.08685 -8.59386,0.884614zm-23.8748 72.4016c-1.67511,0.442976 -1.8964,0.696179 -1.70673,1.96188 0.189568,1.26571 0.284403,3.86055 0.158059,5.66417 -0.126447,1.80372 0.221179,3.16426 0.726864,4.46168 0.505685,1.29742 0.979861,2.43658 1.39071,0.917667 0.41085,-1.51881 -0.410953,-5.47419 -0.379341,-7.34124 0.0317147,-1.86695 0.0948352,-3.00621 0.126447,-3.82883 0.0316117,-0.822729 -0.316015,-1.83533 -0.316015,-1.83533zm12.6269 1.84697c-1.26375,1.83245 -2.33803,7.0141 -2.96996,8.59386 -0.631823,1.57976 -1.01106,4.17049 -0.884614,5.93982 0.126344,1.76933 0.884614,1.57976 1.76933,-1.20063 0.884614,-2.78029 1.01106,-3.98092 1.89568,-6.69809 0.884717,-2.71717 1.83255,-5.18165 1.83255,-5.56078 0,-0.379135 -0.189568,-1.89568 -1.64299,-1.07418zm12.6113 -0.533796c-0.742722,0.0633265 -0.489828,-1.07583 -1.5012,1.42397 -1.01147,2.4998 -2.07021,8.54372 -2.4653,9.98355 -0.395095,1.43972 -0.505685,2.18337 -0.505685,2.91116 0,0.727791 -0.0157544,1.18662 0.758579,1.23409 0.774333,0.0474691 0.869169,-1.40811 1.28002,-3.49655 0.41085,-2.08854 0.347626,-3.33849 0.963901,-4.68328 0.616378,-1.34489 1.09045,-4.54087 1.51716,-5.44268 0.426604,-0.90181 0.932392,-2.19923 -0.0474691,-1.93027zm2.1808 -0.90181c-0.837557,0.363895 -0.726864,-0.316426 -1.01137,1.36075 -0.284506,1.67707 -1.28095,12.8471 -1.47062,14.4293 -0.18967,1.58223 -0.284506,3.76561 0.0632235,3.95548 0.347626,0.189876 0.632029,0.759403 0.948044,-1.01261 0.316117,-1.77201 0.695458,-6.96148 1.3592,-9.52461 0.663641,-2.56313 -0.0316117,-4.65166 0.853311,-6.42367 0.884923,-1.77201 0.522469,-2.21498 0.411879,-2.62635 -0.110693,-0.411365 -0.995616,-0.300672 -1.15367,-0.158265zm3.50829 1.18662c-0.916638,1.23409 -0.695355,2.46819 -1.15367,3.9871 -0.458216,1.51891 -2.43462,11.4074 -2.6559,12.1985 -0.221179,0.791014 1.13792,0.537915 1.32749,-0.0949382 0.18967,-0.632853 1.3591,-6.70849 1.73834,-8.0058 0.379341,-1.29732 1.58131,-6.7401 1.73937,-7.46789 0.157956,-0.727791 -0.426707,-0.854341 -0.995616,-0.616995zm2.41784 1.29742c-0.663744,0.316426 -0.742825,0.474691 -0.979861,2.00935 -0.236934,1.53466 -1.13782,9.68287 -1.15357,10.3632 -0.0157544,0.680322 -0.41085,2.54727 -0.284403,2.78461 0.126344,0.237346 1.02723,0.332181 1.23265,-0.300672 0.205322,-0.63275 0.632132,-4.88891 0.774333,-6.0122 0.142201,-1.1233 1.35807,-6.7401 1.35807,-7.56283 0,-0.822626 -0.18967,-1.20238 -0.94722,-1.28146zm12.0724 0.110693c-0.600417,0.569629 -0.47397,1.7404 -0.663641,3.86055 -0.18967,2.12005 0.252791,6.64516 0.221179,8.48039 -0.0315088,1.83533 0.126447,2.97449 0.568908,3.0061 0.442564,0.0317147 0.916535,-1.39226 0.884923,-3.22759 -0.0315088,-1.83533 -0.189568,-7.91087 -0.252791,-8.9868 -0.0632235,-1.07583 -0.189568,-3.2592 -0.758579,-3.13265zm2.48209 0.332284c-0.205528,0.0317147 -0.805945,0.0949382 -0.995616,0.711934 -0.189568,0.617098 -0.0474691,2.2467 0.173813,3.38586 0.221282,1.13916 0.458319,5.42682 0.568908,6.17047 0.110693,0.743648 0.158059,2.19923 0.489931,2.42072 0.331769,0.221488 1.04298,-0.0633265 1.09035,-1.59799 0.0474691,-1.53466 -0.870095,-7.18307 -0.964931,-8.44878 -0.0947323,-1.26571 -0.362454,-2.64221 -0.362454,-2.64221zm2.06918 -1.3765c-0.884923,0.189876 -1.13782,0.379753 -0.853311,1.55052 0.284403,1.17087 1.10621,6.26541 1.10621,8.16397 0,1.89866 0.0316117,3.13276 -0.0316117,4.20858 -0.0632235,1.07593 0.0316117,1.32903 0.663744,1.36075 0.632029,0.0316117 0.916535,-2.65806 0.948146,-4.93638 0.0316117,-2.27831 -0.60052,-8.06903 -0.726967,-8.98669 -0.126447,-0.91777 -0.663744,-1.51891 -1.10621,-1.36075zm2.81293 -0.759403c-0.442461,0.189876 -0.568908,2.08854 -0.379238,3.5124 0.18967,1.42387 0.505685,5.79072 0.41085,7.59444 -0.0947323,1.80362 0.410953,4.9996 0.316117,5.34774 -0.0949382,0.348038 0.632132,0.189876 0.8217,-0.189876 0.18967,-0.379753 1.32749,-2.4998 1.01137,-5.12625 -0.316015,-2.62645 -0.568908,-6.67677 -0.632132,-7.87925 -0.0631205,-1.20238 -0.853311,-3.67057 -1.54867,-3.2592zm2.87615 0.0632235c-0.726967,0.253203 -0.790088,1.26581 -0.726967,2.46829 0.0632235,1.20238 1.01137,5.94888 1.13782,8.03742 0.126447,2.08843 0.979758,4.87305 1.29588,5.5059 0.316015,0.632853 0.663744,0.348038 1.01137,-0.0949382 0.347626,-0.443079 -0.41085,-3.57573 -0.726864,-5.06293 -0.316117,-1.48719 -1.20114,-8.03752 -1.23276,-8.73359 -0.0315088,-0.696179 -0.758476,-2.12015 -0.758476,-2.12015zm2.68648 -0.664465c-0.252894,0.0316117 -1.6435,0.189773 -0.8217,2.78461 0.8217,2.59474 2.05435,4.96799 2.08596,6.92987 0.0315088,1.96188 0.189568,3.5124 0.126447,5.09464 -0.0632235,1.58213 0.790088,1.80362 1.16933,1.55052 0.379341,-0.2531 0.158059,-6.36035 -0.347626,-8.73359 -0.505685,-2.37325 -1.07459,-4.96799 -1.23255,-5.7591 -0.158059,-0.791117 -0.979861,-1.86695 -0.979861,-1.86695zm15.3875 -1.72423c-1.13751,0.126344 -1.07428,0.884614 -0.0632235,2.46438 1.01106,1.57976 4.04414,17.6301 4.23371,21.4847 0.189568,3.85468 0.252791,9.22579 -0.189568,10.3001 -0.442256,1.07418 0.69515,1.9589 1.13741,-1.07428 0.442359,-3.03308 1.70621,-17.6301 -0.695047,-24.6442 -2.40126,-7.0141 -4.42328,-8.53064 -4.42328,-8.53064zm8.02516 6.4454c-0.126447,1.01106 0.75827,1.3902 0.821391,3.22265 0.0632235,1.83255 -0.0631205,5.62401 -0.126344,6.19271 -0.0632235,0.568703 2.14847,1.13741 1.83255,-2.14847 -0.316015,-3.28587 -0.884717,-9.16257 -2.5276,-7.26689zm4.54962 -1.83255c-0.821391,1.07428 -0.75827,0.505582 -0.505479,2.78039 0.252791,2.27481 1.32697,2.08524 1.3902,-0.126344 0.0631205,-2.21169 -0.884717,-2.65405 -0.884717,-2.65405z">
    </path>
  </g>
</svg>